<?xml version="1.0" encoding="utf-8"?>
<!-- Generator: Adobe Illustrator 23.0.2, SVG Export Plug-In . SVG Version: 6.00 Build 0)  -->
<svg version="1.1" xmlns="http://www.w3.org/2000/svg" xmlns:xlink="http://www.w3.org/1999/xlink" x="0px" y="0px"
	 viewBox="0 0 530.16 226.32" style="enable-background:new 0 0 530.16 226.32;" xml:space="preserve">
<style type="text/css">
	.st0{fill:#CDCDFF;}
	.st1{fill:none;stroke:#CDCDFF;stroke-width:0.1;stroke-miterlimit:10;}
	.st2{fill:none;stroke:#CDCDFF;stroke-width:0.3;stroke-miterlimit:10;}
	.st3{fill:none;stroke:#CDCDFF;stroke-miterlimit:10;}
	.st4{fill:none;stroke:#CDCDFF;stroke-width:1.3;stroke-miterlimit:10;}
	.st5{fill:none;stroke:#CDCDFF;stroke-width:1.45;stroke-miterlimit:10;}
	.st6{fill:none;stroke:#CDCDFF;stroke-width:1.26;stroke-miterlimit:10;}
	.st7{fill:none;stroke:#CDCDFF;stroke-width:2;stroke-miterlimit:10;}
	.st8{fill:none;}
	.st9{fill:none;stroke:#CDCDFF;stroke-width:1.95;stroke-miterlimit:10;}
	.st10{fill:none;stroke:#CDCDFF;stroke-width:0.4;stroke-miterlimit:10;}
	.st11{fill:none;stroke:#CDCDFF;stroke-width:0.2;stroke-miterlimit:10;}
	.st12{fill:none;stroke:#CDCDFF;stroke-width:0.03;stroke-miterlimit:10;}
	.st13{fill:none;stroke:#CDCDFF;stroke-width:0.05;stroke-miterlimit:10;}
	.st14{fill:none;stroke:#CDCDFF;stroke-width:0.5;stroke-miterlimit:10;}
	.st15{fill:none;stroke:#CDCDFF;stroke-width:5;stroke-miterlimit:10;}
	.st16{fill:none;stroke:#CECEFF;stroke-miterlimit:10;}
	.st17{fill:none;stroke:#CECEFF;stroke-width:0.02;stroke-miterlimit:10;}
	.st18{fill:#CECEFF;}
	.st19{fill:none;stroke:#CECEFF;stroke-width:0.025;stroke-miterlimit:10;}
	.st20{fill:none;stroke:#CECEFF;stroke-width:0.036;stroke-miterlimit:10;}
	.st21{fill:none;stroke:#CECEFF;stroke-width:9.000000e-03;stroke-miterlimit:10;}
</style>
<g id="vectorize_logo">
	<path class="st0" d="M497.74,56.91c-0.74-0.04-1.48-0.07-2.22-0.11"/>
	<path class="st0" d="M506.62,71.03"/>
	<path class="st0" d="M514.24,68.4"/>
	<path class="st0" d="M504.85,69.62"/>
	<path class="st1" d="M504.93,74.94c0.22-3.25,0.07-5.9-0.34-5.93"/>
	<path class="st0" d="M513.08,62.15c-0.1,0-0.21,0.02-0.31,0.05c-0.09-0.09-0.17-0.19-0.27-0.28c-0.36-0.94-1-1.76-1.9-2.3
		c-0.35-0.44-0.8-0.81-1.32-1.1c-0.65-0.24-1.68-0.6-2.98-0.95c-2.5-0.68-5.44-1.48-8.84-1.1c-0.77,0.09-0.69,0.14-3.11,0.49
		c-1.92,0.28-2.4,0.32-3.13,0.61c-0.25,0.1-0.38,0.19-2.58,1.87c-1.46,1.12-1.55,1.19-1.71,1.37c-0.73,0.82-1.03,1.63-1.46,2.86
		c-0.25,0.72-1.13,3.2-0.68,3.44c0.27,0.14,0.93-0.59,1.77-1.51c1-1.1,0.94-1.34,1.56-1.77c0.39-0.27,0.67-0.37,2.22-0.9
		c1.43-0.49,2.15-0.74,2.17-0.74c1.57-0.29,1.98,0.36,4.26,0.46c1.74,0.07,1.61-0.3,2.61-0.09c2.01,0.43,3.25,2.08,3.59,2.54
		c0.56,0.75,0.88,1.46,1.06,1.95c0.05,0.04,0.11,0.08,0.17,0.13c0.06,0.04,0.12,0.08,0.18,0.12c0.04,0.05,0.07,0.1,0.12,0.15
		c0.08,0.2,0.15,0.4,0.25,0.59c0.12,0.23,0.24,0.47,0.36,0.7c0.02,0.16,0.06,0.32,0.09,0.48c-0.17,0.48-0.25,0.99-0.22,1.5
		c0.01,0.15,0.02,0.3,0.03,0.45c0.01,0.15,0.04,0.29,0.06,0.43c-0.02,0.16-0.05,0.32-0.05,0.48v0.01c0,0.2,0.04,0.4,0.06,0.6
		c-0.49,6.67-0.97,13.34-1.46,20.01l4.24,0.33l0,0.03l5.29,0.38l1.23,0.09c0,0,0,0,0-0.01l0.39,0.03
		c0.59-8.11,1.17-16.21,1.76-24.32C516.4,64.98,514.51,62.15,513.08,62.15z"/>
	<line class="st1" x1="505.03" y1="72.67" x2="503.87" y2="92.73"/>
	<path class="st0" d="M476.09,38.67l-3.85,49.87l10.75,0.83c0.59-7.65,1.18-15.3,1.77-22.95c0.69-8.97,1.39-17.94,2.08-26.92
		C483.26,39.22,479.67,38.94,476.09,38.67z"/>
	<path class="st2" d="M484.09,73.43c0.15-3.99,1.18-7.18,2.29-7.14"/>
	<path class="st3" d="M484.78,66.58c0-5.72,5.7-10.36,12.74-10.36"/>
	<path class="st3" d="M484.26,69.25c1.75-5.45,8.59-8.12,15.3-5.97"/>
	<path class="st4" d="M498.3,62.74c3.63,0.81,6.3,3.72,7.27,7.39c0.16,0.6,0.27,1.21,0.34,1.84c0.13,1.3,0.06,2.67-0.25,4.04"/>
	<path class="st5" d="M507.55,61.08c5.45,1.16,8.8,7.07,7.49,13.2"/>
	<path class="st5" d="M515.62,68.11c-0.07-6.54-8.2-11.75-18.16-11.64"/>
	<path class="st6" d="M515.42,72.32c0.63-4.01,0.19-7.4-0.98-7.58"/>
	<ellipse id="o_interior" class="st7" cx="424.11" cy="68.44" rx="14.7" ry="11.18"/>
	<path id="o_1" class="st0" d="M424.11,50.41c-13.08,0-23.68,8.07-23.68,18.03s10.6,18.03,23.68,18.03
		c13.08,0,23.68-8.07,23.68-18.03S437.19,50.41,424.11,50.41z M438.16,70.32c-0.03,0.26-0.09,0.52-0.17,0.79
		c-0.82,2.61-2.34,4.02-4.29,5.23c-0.58,0.72-1.41,1.32-2.53,1.67c-0.33,0.1-0.67,0.17-1,0.23c-0.21,0.1-0.42,0.18-0.65,0.25
		c-0.05,0.02-0.1,0.03-0.15,0.05c-3.66,1.99-8.11,1.98-11.7-0.21c-1.05-0.31-2.02-0.96-2.7-1.77c-0.17-0.07-0.35-0.15-0.51-0.24
		c-0.05-0.03-0.09-0.06-0.14-0.09c-1.1-0.3-2.32-1.26-2.85-2.26c-0.21-0.4-0.35-0.82-0.47-1.25c-0.43-0.5-0.78-1.09-0.99-1.77
		c-0.09-0.28-0.14-0.56-0.19-0.84c-0.32-0.86-0.38-1.88-0.05-3.01c0.03-0.1,0.07-0.19,0.1-0.29c0.5-3.89,5-7.12,8.3-8.28
		c0.6-0.21,1.22-0.38,1.85-0.53c0.61-0.22,1.2-0.31,1.77-0.3c0.83-0.1,1.66-0.15,2.49-0.14c0.15-0.03,0.3-0.07,0.45-0.08
		c2.4-0.26,4.62,0.69,6.71,1.86c0.97,0.35,1.9,0.86,2.75,1.5c1.64,0.76,2.92,2.11,3.24,3.81C438.37,66.42,438.72,68.4,438.16,70.32z
		"/>
	<path class="st0" d="M379.93,66.12h0.14c-0.04-0.18-0.1-0.35-0.14-0.52v-0.02h-0.01c-2.1-8.11-11.28-14.46-22.55-14.86
		c-13.07-0.47-23.96,7.21-24.32,17.16c-0.36,9.95,9.94,18.4,23.01,18.87c8.82,0.32,16.65-3.08,20.91-8.38l-7.23-4.86
		c-0.92,1.59-2.2,2.59-3.74,3.46c-0.6,0.7-1.45,1.27-2.59,1.58c-0.33,0.09-0.67,0.15-1.01,0.19c-0.21,0.09-0.43,0.16-0.66,0.22
		c-0.05,0.02-0.1,0.03-0.15,0.05c-3.73,1.86-8.18,1.69-11.68-0.63c-1.04-0.35-1.98-1.03-2.63-1.87c-0.17-0.08-0.34-0.16-0.5-0.26
		c-0.05-0.03-0.09-0.07-0.13-0.1c-1.09-0.34-2.28-1.35-2.76-2.36c-0.2-0.41-0.32-0.83-0.42-1.26c-0.41-0.52-0.73-1.12-0.93-1.8
		c-0.06-0.2-0.08-0.4-0.11-0.6h37.48V66.12z M351.17,58.61c0.6-0.19,1.23-0.34,1.87-0.46c0.62-0.19,1.21-0.27,1.78-0.24
		c0.83-0.07,1.67-0.09,2.5-0.04c0.15-0.02,0.3-0.06,0.46-0.07c2.41-0.18,4.6,0.86,6.64,2.1c0.96,0.39,1.87,0.93,2.7,1.59
		c0.96,0.49,1.78,1.19,2.35,2.03c-0.13,0.67-0.15,1.37-0.04,2.05h-26.57C344.04,62.19,348.13,59.56,351.17,58.61z"/>
	
		<rect x="378.13" y="66.32" transform="matrix(0.9749 -0.2224 0.2224 0.9749 -5.5024 86.0373)" class="st0" width="2.09" height="2.25"/>
	<path class="st8" d="M380.25,66.58c-0.28-1.41-0.71-2.5-0.94-2.46"/>
	<path id="e_2_interior_2_" class="st7" d="M370.18,73.71c-2.33,4.01-7.71,6.7-13.86,6.47c-8.11-0.29-14.51-5.53-14.28-11.7
		c0.22-6.17,6.98-10.94,15.09-10.64c6.08,0.22,11.2,3.22,13.29,7.31"/>
	<line class="st9" x1="377.58" y1="69.15" x2="380.59" y2="69.15"/>
	<path class="st2" d="M380.59,70.13c0-4.8-2.2-8.69-4.91-8.69"/>
	
		<rect x="369.37" y="73.02" transform="matrix(0.8245 0.5658 -0.5658 0.8245 106.203 -196.1872)" class="st0" width="0.11" height="0.24"/>
	<line class="st10" x1="369.37" y1="73.21" x2="376.79" y2="78.52"/>
	<path class="st0" d="M314.52,70.7l0.14-0.01c-0.05-0.17-0.12-0.34-0.18-0.51l0-0.02l-0.01,0c-2.59-7.97-12.14-13.74-23.41-13.46
		c-13.08,0.32-23.48,8.65-23.23,18.61c0.25,9.95,11.05,17.76,24.12,17.44c8.83-0.22,16.43-4.09,20.37-9.64l-7.51-4.41
		c-0.83,1.64-2.04,2.72-3.52,3.68c-0.56,0.74-1.38,1.35-2.49,1.74c-0.33,0.11-0.66,0.19-1,0.25c-0.21,0.1-0.42,0.19-0.64,0.26
		c-0.05,0.02-0.1,0.04-0.14,0.06c-3.61,2.08-8.06,2.18-11.7,0.08c-1.06-0.28-2.04-0.91-2.74-1.71c-0.17-0.07-0.35-0.14-0.51-0.23
		c-0.05-0.03-0.09-0.06-0.14-0.09c-1.11-0.28-2.35-1.21-2.9-2.18c-0.22-0.39-0.37-0.81-0.5-1.24c-0.44-0.49-0.8-1.07-1.03-1.75
		c-0.07-0.2-0.11-0.39-0.15-0.59l37.42-2.28L314.52,70.7z M285.36,64.96c0.59-0.22,1.21-0.41,1.84-0.57
		c0.6-0.23,1.19-0.34,1.76-0.35c0.83-0.12,1.66-0.19,2.49-0.2c0.15-0.03,0.3-0.07,0.45-0.1c2.4-0.32,4.64,0.58,6.76,1.69
		c0.98,0.33,1.92,0.81,2.79,1.43c0.99,0.43,1.85,1.08,2.46,1.88c-0.09,0.68-0.06,1.38,0.09,2.05l-26.52,1.62
		C278.45,68.96,282.37,66.09,285.36,64.96z"/>
	<path class="st2" d="M315.53,74.65c-0.29-4.79-2.72-8.54-5.43-8.37"/>
	<line class="st9" x1="312.45" y1="73.86" x2="315.45" y2="73.68"/>
	
		<rect x="312.93" y="70.89" transform="matrix(0.9596 -0.2814 0.2814 0.9596 -7.5771 91.2562)" class="st0" width="2.09" height="2.25"/>
	<path id="e_2_interior_1_" class="st7" d="M305.17,78.87c-2.08,4.14-7.28,7.15-13.44,7.31c-8.11,0.2-14.82-4.64-14.97-10.81
		s6.3-11.34,14.41-11.54c6.09-0.15,11.38,2.53,13.71,6.49"/>
	<line class="st10" x1="304.31" y1="78.4" x2="312.1" y2="83.28"/>
	
		<rect x="304.33" y="78.23" transform="matrix(0.8575 0.5146 -0.5146 0.8575 83.707 -145.4568)" class="st0" width="0.11" height="0.24"/>
	<line class="st5" x1="515.33" y1="64.47" x2="515.33" y2="64.47"/>
	<path class="st0" d="M247.78,101.44l-10.64,1.75c-0.79-4.83-2.66-16.22-4.43-26.99c-1.6-9.71-3.11-18.93-3.67-22.37
		c3.55-0.58,7.09-1.17,10.64-1.75L247.78,101.44z"/>
	<path class="st0" d="M223.27,76.21"/>
	<path class="st0" d="M224.78,76.84c0.79-0.19,1.72-0.37,4.04-0.56c1.18-0.09,2.74-0.19,4.6-0.24c-0.56-2.8-1.11-5.6-1.67-8.41
		c-1.73,0-3.71,0.1-5.87,0.4c-1.91,0.26-3.64,0.63-5.15,1.03c-2.38,1.11-4.76,2.22-7.14,3.33c-2.11,1.75-4.23,3.49-6.34,5.24
		l-2.54,4.43c-0.39,0.85-0.89,2.22-1.03,3.96c-0.14,1.77,0.14,3.22,0.4,4.12c0.11,1.38,0.26,2.54,0.4,3.41
		c0.16,1,0.28,1.57,0.58,2.24c0.3,0.67,0.66,1.17,0.93,1.49c0.14,0.41,0.39,1,0.85,1.61c0.69,0.92,1.49,1.37,2.08,1.72
		c1.11,0.65,2.44,1.45,4.2,2.56c1.14,0.55,2.69,1.16,4.6,1.56c1.98,0.41,3.7,0.46,5,0.4c0.92-0.04,2.11-0.12,3.49-0.24
		c0.97-0.08,2.68-0.24,4.84-0.56c1.63-0.24,3.7-0.6,6.09-1.16l-1.29-7.83c-3.43,0.57-6.85,1.13-10.28,1.7
		c-2.17-0.08-4.33-0.16-6.5-0.24c-0.49-0.06-2.12-0.34-3.41-1.74c-0.82-0.9-1.14-1.86-1.27-2.38c-0.16-1.59-0.32-3.17-0.48-4.76
		l0.79-3.49l1.59-3.01l2.38-2.22l3.65-1.58C222.88,77.41,223.73,77.1,224.78,76.84z"/>
	<path class="st0" d="M203.69,86.04c0-10.17,12.55-18.4,28.07-18.4"/>
	<path class="st0" d="M225.61,104.51c0.23,0.13,0.56,0.27,0.95,0.24c0.19-0.02,0.32-0.07,0.36-0.08c0.37-0.13,3.06-0.7,10.47-2.14
		c-6.69-1.89-11.44-3.21-14.14-3.92c-1.55-0.41-3.06-0.95-4.61-1.36c-1.17-0.31-2.04-0.51-3.15-1.12c-0.99-0.54-2.03-1.11-2.42-2.16
		c-0.47-1.26,0.4-2.16,0.4-3.12c0.01-1.45-1.97-3.37-9.75-5.68c-0.26,1.37-1.61,9.26,3.42,14.68c4.26,4.6,10.6,4.88,13.36,5
		C222.63,104.94,224.41,104.73,225.61,104.51z"/>
	<path class="st3" d="M213.68,88.54c0.72-7.84,9.56-13.43,19.74-12.49"/>
	<path class="st3" d="M214.91,83.5c-0.14,0.35-2.99,7.8,0.8,11.58c2.4,2.39,6.15,2.2,10.25,1.98c4.6-0.25,8.18-1.56,10.31-2.52"/>
	<path class="st3" d="M218.98,78.81c-0.26,0.27-0.52,0.53-0.79,0.8c0.21-0.11,0.43-0.29,0.63-0.4c0,0.26,0,0.52,0,0.78
		c0.02-0.25,0.05-0.51,0.07-0.76c-0.1,0.13-0.18,0.28-0.23,0.43c0.08-0.17,0.17-0.34,0.25-0.5c-0.01,0.17-0.15,0.33-0.32,0.35
		c0.06-0.37,0.35-0.69,0.71-0.8c-0.04,0.23-0.2,0.43-0.41,0.51C218.77,79.04,218.89,79.01,218.98,78.81z"/>
	<path class="st3" d="M235.41,95.67c0.28-0.09,0.54-0.23,0.76-0.43c-0.2,0.17-0.44,0.3-0.69,0.36c0.17-0.2,0.41-0.34,0.67-0.4
		c0.12,0.21-0.23,0.47-0.41,0.31c-0.18-0.16,0.01-0.52,0.25-0.48c0.03,0.38-0.22,0.77-0.57,0.91c-0.06-0.24,0.04-0.51,0.25-0.64
		c0.1,0.18-0.04,0.43-0.23,0.45c0.32-0.1,0.66-0.14,1-0.12"/>
	<path class="st0" d="M247.97,101.85c-7.07,0.94-14.15,1.88-21.22,2.83c-0.33-1.39-0.66-2.77-0.99-4.16
		c7.01-1.21,14.02-2.42,21.03-3.64C247.19,98.53,247.58,100.19,247.97,101.85z"/>
	<path class="st0" d="M248.53,97.06"/>
	<path class="st0" d="M204.05,94.24c1.1,3.31,2.69,5.55,4.18,7.1c7.77,8.05,23.51,8.12,39.54,0.63"/>
	<path class="st0" d="M147.84,107.26l0.47-0.15l-5.3-16.82l-10.29,3.24l5.3,16.82l0.05-0.02c0.01,0.02,0.01,0.03,0.02,0.05
		c0.17,0.55,0.43,1.07,0.79,1.52c0.03,0.05,0.06,0.11,0.1,0.16c0.01,0.02,0.02,0.03,0.04,0.05c0.13,0.17,0.26,0.32,0.41,0.47l0,0
		c0.78,1.17,2.07,2,3.92,2c3.46,0,5.06-2.9,4.8-5.58C148.14,108.42,148.05,107.83,147.84,107.26z"/>
	
		<rect x="168.64" y="81.36" transform="matrix(0.9538 -0.3005 0.3005 0.9538 -21.5679 56.8451)" class="st0" width="10.78" height="34.38"/>
	<path class="st0" d="M166.92,107.08"/>
	<path class="st2" d="M148.12,107.11c0.12,0.61,0.37,1.45,0.99,2.24c1.89,2.41,5.56,2.26,7.23,2.19c0.41-0.02,10.01-0.54,12.22-7.03
		c0.13-0.38,0.22-0.78,0.22-0.78c0.39-1.67,0.18-3.12-0.03-4.04"/>
	<path class="st0" d="M138.23,110.37c0.34,1.04,0.94,2.54,2.07,4.09c2.83,3.89,6.82,5.2,8.25,5.65c5.3,1.66,12.43,0.94,17.53-3.82
		c4.41-4.11,5.27-9.34,5.47-11.06c-0.78,0.1-1.94,0.36-3.09,1.11c-1.6,1.04-1.79,2.13-3.33,3.38c-1.34,1.1-2.68,1.48-3.96,1.85
		c-1.6,0.46-3.26,0.4-6.5,0.32c-0.75-0.02-1.94,0.13-3.49-0.16c-0.49-0.09-1.09-0.03-1.64-0.42c-0.56-0.4-0.8-1.01-0.9-1.37"/>
	<path class="st1" d="M153.93,111.53c-2.46,0.03-4.71-1.48-5.5-3.84"/>
	
		<rect x="148.01" y="106.91" transform="matrix(0.9516 -0.3072 0.3072 0.9516 -25.8728 50.7394)" class="st0" width="0.43" height="1.28"/>
	<line class="st1" x1="167.95" y1="96.92" x2="168.74" y2="100.21"/>
	<path class="st11" d="M168.68,99.7c0.01-0.07,0.02-0.14,0.02-0.21c-0.01,0.08,0,0.15,0.03,0.22c-0.02-0.07-0.04-0.13-0.06-0.19
		c0,0.04,0,0.07,0,0.09"/>
	<path class="st11" d="M168.62,99.29c-0.03-0.19-0.08-0.39-0.15-0.58"/>
	<path class="st8" d="M148.72,110.23c-0.52-0.3-1.02-0.64-1.49-1.01c0.38,0.3,0.76,0.61,1.14,0.91c-0.04-0.31-0.22-0.59-0.49-0.75
		c0.11,0.21,0.29,0.39,0.5,0.51c0.12-0.13,0.03-0.33-0.06-0.48c-0.24-0.37-0.51-0.73-0.8-1.06"/>
	<path class="st3" d="M150.53,112.26c0.11,0.04,0.22,0.08,0.33,0.12c-0.54-0.42-1.07-0.84-1.61-1.26c-0.37-0.29-1.11-0.66-1.19-1.17
		c0.21,0.3,0.9,1.51,1.3,1.51c0.41,0,0.32-0.74,0.74,0.04c-0.66-0.74-1.39-1.44-2.18-2.05c0.99,0.84,2.13,1.61,3.04,2.54
		c-0.23-0.23-0.47-0.44-0.73-0.63c0.91,0.19,1.8,0.42,2.69,0.68c-0.86-0.25-1.7-0.53-2.54-0.85"/>
	<path class="st3" d="M150.85,111.15c-0.63-0.35-1.32-0.7-1.71-1.3c-0.52-0.8-0.96-1.67-1.3-2.58"/>
	<path class="st3" d="M168.87,106.13c0.54-1.57,0.7-3.27,0.45-4.91c0.21,0.4,0.08,0.38,0.3,0.79"/>
	<path class="st3" d="M169.83,103.22c0.09,1.09,0.13,2.19,0.1,3.28c0.03-0.83,0.12-1.66,0.29-2.48c-0.11,0.64-0.26,1.27-0.45,1.9
		c0.13-0.67,0.25-1.34,0.38-2.01c-0.39,0.9-0.78,1.8-1.16,2.7c0.45-0.98,0.9-1.96,1.35-2.94c-0.02,0.31-0.05,0.61-0.07,0.92"/>
	<path class="st3" d="M168.4,106.44c0.27-0.59,0.47-1.21,0.6-1.85c-0.13,0.24-0.01,0.14-0.02,0.42"/>
	<path class="st3" d="M163.8,110.09c-0.28,0.16-0.5,0.45-0.79,0.58c-3.02,1.27-6.91,1.82-10.15,1.39c1.92,0.41,3.91,0.33,5.87,0.25
		c0.76-0.03,1.52-0.06,2.25-0.29c0.66-0.21,1.27-0.58,1.84-0.97c0.98-0.66,1.91-1.39,2.81-2.16c1.12-0.94,2.06-1.4,2.77-2.71"/>
	<path class="st3" d="M145.35,127.23c12.06,5.11,23.09,2.87,27.02-4.24c0.8-1.45,1.86-4.1,1.63-8.4"/>
	<path class="st3" d="M148.23,136.58c17.38,2.21,31.55-3.66,35.12-13.35c0.73-1.99,1.43-5.25,0.36-9.91"/>
	<line class="st11" x1="145.16" y1="127.99" x2="144.65" y2="126.48"/>
	<line class="st11" x1="146.07" y1="127.09" x2="144.63" y2="126.44"/>
	<line class="st12" x1="144.51" y1="126.3" x2="144.59" y2="126.55"/>
	<line class="st12" x1="144.75" y1="126.4" x2="144.51" y2="126.3"/>
	<rect x="144.58" y="126.37" class="st0" width="0.12" height="0.14"/>
	<rect x="144.58" y="126.37" class="st0" width="0.12" height="0.14"/>
	
		<rect x="144.57" y="126.29" transform="matrix(0.5386 -0.8426 0.8426 0.5386 -39.7498 180.1279)" class="st0" width="0.04" height="0.13"/>
	
		<rect x="144.55" y="126.33" transform="matrix(0.9387 -0.3447 0.3447 0.9387 -34.7101 57.5843)" class="st0" width="0.04" height="0.13"/>
	
		<rect x="144.79" y="126.58" transform="matrix(0.9487 -0.3162 0.3162 0.9487 -32.7086 52.3645)" class="st0" width="0.4" height="0.75"/>
	
		<rect x="145.05" y="126.74" transform="matrix(0.9487 -0.3162 0.3162 0.9487 -32.7437 52.4675)" class="st0" width="0.47" height="0.77"/>
	
		<rect x="147.87" y="136.49" transform="matrix(0.9947 0.1031 -0.1031 0.9947 14.8994 -14.5724)" class="st0" width="0.99" height="0.61"/>
	
		<rect x="147.76" y="136.46" transform="matrix(0.9557 -0.2942 0.2942 0.9557 -33.6835 49.5494)" class="st0" width="0.21" height="0.56"/>
	<path class="st13" d="M184.31,113.32c0,0,0.03,0.25,0.03,0.25c0.01,0.07,0.3,2.4,0.31,2.47"/>
	
		<rect x="184.15" y="113.29" transform="matrix(0.9909 -0.1345 0.1345 0.9909 -13.6313 25.8095)" class="st0" width="0.23" height="1.07"/>
	<path class="st0" d="M184.16,112.73c0.16,0.4,0.3,0.82,0.42,1.26c1.02,3.69,0.14,7.1-0.71,9.28"/>
	<path class="st14" d="M172.93,112.14c0.35,0.92,0.72,2.23,0.81,3.83c0.06,1.13-0.03,2.11-0.16,2.89"/>
	<path class="st0" d="M180.13,113.48c0.19-0.03,0.82-0.12,1.67-0.16c0.79-0.03,1.45-0.02,1.91,0c0.41,1.59,0.61,2.92,0.71,3.88
		c0.17,1.61,0.06,2.12-0.04,2.46c-0.12,0.4-0.29,0.73-0.48,1.51c-0.13,0.52-0.11,0.61-0.24,1.1c-0.16,0.59-0.33,1.02-0.5,1.43
		c-0.24,0.57-0.38,0.94-0.66,1.39c-0.22,0.36-0.36,0.51-0.9,1.19c-0.93,1.15-0.86,1.13-1.19,1.51c-0.68,0.78-1.3,1.26-1.82,1.67
		c-3.2,2.49-3.07,2.58-4.17,3.31c-2.76,1.83-5.39,2.43-8.77,3.2c-2.36,0.54-4.18,0.73-4.81,0.79c-1.2,0.11-3.18,0.29-5.68,0.11
		c-2.64-0.19-3.06-0.58-4.76-0.32c-0.59,0.09-1.02,0.21-1.51-0.01c-0.99-0.46-1.06-1.82-1.47-3.56c-0.87-3.68-2.33-5.08-1.79-5.57
		c0.47-0.44,1.59,0.67,3.93,1.61c3.91,1.56,7.64,1.19,10.46,0.92c1.2-0.12,2.25-0.23,3.62-0.61c1.33-0.37,3.96-1.14,6.46-3.44
		c2.41-2.21,3.6-4.5,3.68-5.35c0.01-0.06,0.06-0.66,0.16-1.47c0.05-0.39,0.09-0.7,0.12-0.87c-0.2-1.29-0.34-2.22-0.33-2.22
		c0,0,0,0,0,0c0.07-0.45,2.75-1.31,2.75-1.31c0.29-0.17,0.69-0.41,1.27-0.63C178.61,113.7,179.35,113.59,180.13,113.48z"/>
	
		<rect x="102.21" y="103.93" transform="matrix(0.931 -0.3651 0.3651 0.931 -37.1655 47.721)" class="st0" width="10.78" height="36.41"/>
	
		<ellipse transform="matrix(0.9538 -0.3005 0.3005 0.9538 -34.6083 33.0568)" class="st15" cx="90.17" cy="129.05" rx="14.26" ry="12.13"/>
	
		<ellipse transform="matrix(0.9538 -0.3005 0.3005 0.9538 -34.7507 32.7677)" class="st15" cx="89.16" cy="129.37" rx="18.7" ry="15.56"/>
	<path class="st16" d="M73.88,125.48c-0.4,1.3-1.02,3.92-0.32,7.08c1.1,4.95,4.63,7.65,5.6,8.35"/>
	
		<rect x="20.12" y="140.29" transform="matrix(0.8847 -0.4661 0.4661 0.8847 -70.9408 30.1631)" class="st0" width="10.78" height="36.41"/>
	<path class="st15" d="M26.92,152.35c0-9.58,6.12-17.34,13.69-17.34"/>
	<path class="st3" d="M28.84,155.18c0-9.17,5.77-16.6,12.9-16.6"/>
	<line class="st3" x1="40.4" y1="132.75" x2="41.57" y2="138.94"/>
	<path class="st3" d="M28.5,151.75c0.01,0.3-0.06,0.59-0.18,0.86"/>
	<path class="st0" d="M32.36,140.33c0.28-0.16,0.35-0.1,0.71-0.29c0.64-0.34,0.98-0.82,1.14-1c0.57-0.69,1.22-0.61,2.85-1.24
		c2.39-0.92,2.91-1.81,3.65-1.45c0.58,0.28,0.91,1.14,0.68,1.6c-0.19,0.36-0.69,0.39-1.31,0.49c0,0-2.5,0.41-4.76,1.96
		c-0.52,0.36-0.83,0.66-1.43,1.24c-0.92,0.9-2.08,2.22-3.17,4.07c0-0.06,0.03-0.95,0.03-1.01c0.01-0.49,0.02-0.73,0.02-0.76
		c0.01-0.26,0.04-1.01,0.34-1.82C31.32,141.54,31.62,140.73,32.36,140.33z"/>
	<rect x="40.38" y="132.52" class="st0" width="0.5" height="0.36"/>
	<line class="st17" x1="40.89" y1="132.52" x2="40.94" y2="132.97"/>
	<line class="st17" x1="40.86" y1="132.54" x2="40.91" y2="132.99"/>
	<rect x="41.63" y="138.79" class="st18" width="0.42" height="0.3"/>
	<line class="st19" x1="42.05" y1="138.83" x2="42.09" y2="139.08"/>
	<line class="st19" x1="42.03" y1="138.83" x2="42.08" y2="139.08"/>
	<line class="st20" x1="42.1" y1="139.07" x2="41.84" y2="139.07"/>
	<rect x="42.02" y="139" class="st18" width="0.05" height="0.05"/>
	<rect x="42.07" y="139.06" class="st18" width="0.03" height="0.02"/>
	<line class="st21" x1="42.09" y1="139.03" x2="42.1" y2="139.08"/>
</g>
<g id="white_shiny_layer">
</g>
<g id="hole_in_a">
</g>
</svg>
