<?xml version="1.0" encoding="utf-8"?>
<!-- Generator: Adobe Illustrator 22.1.0, SVG Export Plug-In . SVG Version: 6.00 Build 0)  -->
<svg version="1.1" xmlns="http://www.w3.org/2000/svg" xmlns:xlink="http://www.w3.org/1999/xlink" x="0px" y="0px"
	 viewBox="0 0 289 285" style="enable-background:new 0 0 289 285;" xml:space="preserve">
<style type="text/css">
	.st0{display:none;}
	.st1{display:inline;}
	.st2{fill:#FFFFFF;}
	.st3{display:inline;fill:#FFFFFF;}
</style>
<g id="submission" class="st0">
	<g id="full_background_1_" class="st1">
		<path class="st2" d="M278.8,166.11c-9.78,2.92-12.48,6.25-12.92,8.95c-1.27,7.77,15.6,14.23,14.09,23.19
			c-0.43,2.56-2.15,4.07-5.97,7.24c-17.24,14.32-22.77,18.02-22.77,18.02c-32.41,21.72-25.68,14.61-35.44,22.3
			c-5.43,4.29-8.12,6.97-11.51,6.21c-8.5-1.9-8.45-22.48-15.95-23.25c-1.73-0.18-2.66,0.81-7.8,4.68
			c-5.06,3.8-10.54,7.04-15.58,10.87c-5.62,4.28-14.74,10.94-30.42,21.72C91.44,203.81,48.35,141.6,5.26,79.38
			C41.11,54.56,76.95,29.74,112.79,4.91c1.55,0.31,3.1,0.62,4.65,0.93c5.41,1.09,10.82,2.18,16.23,3.26
			c6.63,1.16,13.27,2.31,19.9,3.47c4.96,2.45,8.94,2.86,11.62,2.79c4.36-0.1,6.04-1.48,8.93-0.43c2.97,1.08,4.33,3.67,6.89,8.31
			c2.63,4.76,5.39,9.46,8.07,14.19c3.84,6.78,6.47,8.52,12.38,15.77c7.72,9.48,11.49,16.66,15.42,23.16
			C223.39,87.17,239.43,111.09,278.8,166.11z"/>
	</g>
	<g id="hand_background" class="st1">
		<path class="st2" d="M265.17,178.12c9.39,12.64,14.95,17.28,13.88,23.32c-0.46,2.56-2.19,4.05-6.04,7.18
			c-17.37,14.15-22.94,17.81-22.94,17.81c-32.61,21.42-25.82,14.37-35.64,21.97c-5.37,4.16-8.68,6.67-11.57,6.1
			c-2.44-0.48-2.66-2.79-7.59-11.03c-4.03-6.73-4.15-5.64-8.15-12.38c-4.83-8.14-4.56-9.59-7.32-11.42
			c-5.04-3.34-11.46-2.15-13.06-1.86c-4.7,0.87-4.47,2.51-10.38,4.06c-3.44,0.9-2.93,0.19-11.96,1.36
			c-6.14,0.79-7.31,1.24-9.74,0.54c-2.21-0.64-3.83-1.76-6.89-3.89c-2.41-1.68-3.64-2.55-4.86-4.26c-1.87-2.6-2.32-5.16-2.43-5.93
			c-0.29-1.96-0.05-3.47,0.11-4.51c0.12-0.74,0.64-3.63,2.79-7.09c0.73-1.17,2.1-2.68,4.83-5.65c3.07-3.34,4.6-5.01,5.57-5.92
			c3.73-3.48,5.13-3.82,5.34-5.41c0.26-1.97-1.57-3.89-4.44-6.12c-6.26-4.86-9.88-5.28-16.78-9c-6-3.24-12.83-6.92-13.12-12.11
			c-0.11-1.91,0.75-2.56,0.8-6.53c0.06-4.53-1.04-5.44-0.14-7.08c1.46-2.66,4.73-1.03,8.3-4.17c2.77-2.44,2.21-4.66,5.07-6.16
			c2.65-1.39,4.2-0.04,5.22-1.16c2.22-2.43-5.34-8.73-5.05-18.36c0.16-5.62,2.93-9.9,3.91-11.37c1.54-2.33,3.02-4.55,5.83-5.68
			c2.47-0.99,2.51,0.25,10-0.05c2.17-0.09,3.9-0.26,5.53,0.83c1.07,0.72,1.13,1.34,2.32,2.18c1.26,0.89,3.58,1.88,5.04,1.35
			c3.19-1.16,0.16-8.79,4.52-16.14c0.68-1.14,3.46-5.69,8.79-7.27c4.12-1.22,8.07-0.15,9.26,0.22c1.16,0.36,1.06,0.48,5.32,2.34
			c4.13,1.8,4.41,1.77,6.08,2.57c3.46,1.64,4.43,2.8,8.16,5.26c4.25,2.8,7.02,3.95,8.9,4.98c6.65,3.64,10.27,10.16,15.32,18.8
			c8.11,13.87,12.17,20.81,16.58,27.26c7.26,10.63,8.41,9.88,18.61,24.29C261.33,171.59,259.05,169.89,265.17,178.12z"/>
	</g>
	<g id="icon" class="st1">
		<rect x="66.7" y="56.67" transform="matrix(0.8231 -0.5679 0.5679 0.8231 -85.7276 69.4606)" width="3.86" height="231.33"/>
		<rect x="224.18" y="-2.78" transform="matrix(0.8231 -0.5679 0.5679 0.8231 -11.4675 144.4821)" width="4" height="186.86"/>
		<rect x="158.77" y="211.4" transform="matrix(0.5679 0.8231 -0.8231 0.5679 272.6579 -25.6661)" width="4" height="70.91"/>
		<rect x="267.97" y="159.64" transform="matrix(0.5679 0.8231 -0.8231 0.5679 257.8299 -148.0999)" width="4" height="23.76"/>
		<rect x="56.35" y="-26.54" transform="matrix(0.5679 0.8231 -0.8231 0.5679 59.233 -30.1709)" width="4" height="135.74"/>
		<rect x="123.29" y="-2.16" transform="matrix(-0.8231 0.5679 -0.5679 -0.8231 240.7415 -31.5813)" width="4" height="47.72"/>
		<rect x="153.77" y="3.29" transform="matrix(-0.5679 -0.8231 0.8231 -0.5679 221.8087 170.9136)" width="4" height="47.89"/>
		<rect x="117.34" y="2.88" transform="matrix(-0.8231 0.5679 -0.5679 -0.8231 221.3741 -55.5659)" width="4" height="7.63"/>
		<rect x="122.8" y="3.75" transform="matrix(-0.8231 0.5679 -0.5679 -0.8231 231.8205 -57.0816)" width="4" height="7.63"/>
		<rect x="128.26" y="4.62" transform="matrix(-0.8231 0.5679 -0.5679 -0.8231 242.2669 -58.5972)" width="4" height="7.63"/>
		<rect x="133.99" y="5.87" transform="matrix(-0.8231 0.5679 -0.5679 -0.8231 253.4176 -59.5607)" width="4" height="7.63"/>
		<rect x="139.6" y="6.97" transform="matrix(-0.8231 0.5679 -0.5679 -0.8231 264.2771 -60.7526)" width="4" height="7.63"/>
		<rect x="139.6" y="6.97" transform="matrix(-0.8231 0.5679 -0.5679 -0.8231 264.2771 -60.7526)" width="4" height="7.63"/>
		<rect x="145.06" y="7.84" transform="matrix(-0.8231 0.5679 -0.5679 -0.8231 274.7235 -62.2683)" width="4" height="7.63"/>
		<rect x="150.73" y="9.01" transform="matrix(-0.8231 0.5679 -0.5679 -0.8231 285.7237 -63.3498)" width="4" height="7.63"/>
		<rect x="156.19" y="9.88" transform="matrix(-0.8231 0.5679 -0.5679 -0.8231 296.1701 -64.8655)" width="4" height="7.63"/>
		<rect x="161.73" y="10.86" transform="matrix(-0.8231 0.5679 -0.5679 -0.8231 306.8238 -66.2187)" width="4" height="7.63"/>
		<rect x="167.18" y="11.73" transform="matrix(-0.8231 0.5679 -0.5679 -0.8231 317.2702 -67.7344)" width="4" height="7.63"/>
		<rect x="192.87" y="224.1" transform="matrix(0.8231 -0.5679 0.5679 0.8231 -86.476 178.0869)" width="99.5" height="7.5"/>
		<rect x="163.17" y="230.36" transform="matrix(0.5679 0.8231 -0.8231 0.5679 275.2519 -56.093)" width="55.76" height="7.5"/>
		<rect x="167" y="140.37" transform="matrix(0.5679 0.8231 -0.8231 0.5679 222.6497 -135.873)" width="147.47" height="7.5"/>
		<rect x="208.53" y="248.14" transform="matrix(0.5679 0.8231 -0.8231 0.5679 301.6104 -70.7564)" width="19.33" height="7.5"/>
		<rect x="265.05" y="208.13" transform="matrix(0.5679 0.8231 -0.8231 0.5679 292.2784 -132.9907)" width="15.5" height="7.5"/>
		<rect x="270.67" y="223.2" transform="matrix(0.5679 0.8231 -0.8231 0.5679 307.2083 -131.2873)" width="15.95" height="7.5"/>
		<rect x="217.92" y="263.33" transform="matrix(0.5679 0.8231 -0.8231 0.5679 316.6829 -69.0703)" width="12.42" height="7.5"/>
		<rect x="222.7" y="265.85" transform="matrix(0.5679 0.8231 -0.8231 0.5679 321.0497 -67.1635)" width="3.59" height="12.7"/>
		<rect x="278.4" y="227.42" transform="matrix(0.5679 0.8231 -0.8231 0.5679 313.4865 -129.6119)" width="3.59" height="12.7"/>
		<rect x="173.55" y="127.05" transform="matrix(0.8231 -0.5679 0.5679 0.8231 -63.6234 149.0165)" width="67.67" height="99.17"/>
		<rect x="170.83" y="174.02" transform="matrix(0.8231 -0.5679 0.5679 0.8231 -75.6255 133.4351)" width="11.08" height="28.17"/>
		<rect x="167.63" y="179" transform="matrix(0.8231 -0.5679 0.5679 0.8231 -77.1729 133.9226)" width="17.5" height="23.67"/>
		<rect x="156.39" y="185.46" transform="matrix(0.8231 -0.5679 0.5679 0.8231 -81.3445 128.9517)" width="19.85" height="19.17"/>
		<rect x="145.26" y="190.4" transform="matrix(0.8231 -0.5679 0.5679 0.8231 -87.0279 121.41)" width="12.2" height="20"/>
		<rect x="140.53" y="190.8" transform="matrix(0.8231 -0.5679 0.5679 0.8231 -88.5024 117.4829)" width="7.58" height="20"/>
		<rect x="136.43" y="193.15" transform="matrix(0.8231 -0.5679 0.5679 0.8231 -88.356 118.9833)" width="20.75" height="16.33"/>
		<rect x="132.11" y="195.74" transform="matrix(0.8231 -0.5679 0.5679 0.8231 -89.5509 116.6609)" width="20.75" height="12.67"/>
		<rect x="187.32" y="110.26" transform="matrix(0.8231 -0.5679 0.5679 0.8231 -33.1656 133.2142)" width="19.85" height="19.17"/>
		<rect x="178.47" y="98.02" transform="matrix(0.8231 -0.5679 0.5679 0.8231 -28.1106 124.9583)" width="16.1" height="19.17"/>
		<rect x="170.06" y="90.23" transform="matrix(0.8231 -0.5679 0.5679 0.8231 -26.4267 119.195)" width="16.1" height="23.58"/>
		<rect x="163.37" y="93.32" transform="matrix(0.8231 -0.5679 0.5679 0.8231 -26.0207 114.8986)" width="16.1" height="11.79"/>
		<rect x="163.72" y="90.71" transform="matrix(0.5679 0.8231 -0.8231 0.5679 153.7416 -99.6427)" width="16.1" height="11.79"/>
		<rect x="163.52" y="88.26" transform="matrix(0.5679 0.8231 -0.8231 0.5679 150.0314 -101.3737)" width="16.1" height="7.89"/>
		<rect x="164.67" y="125.89" transform="matrix(0.8231 -0.5679 0.5679 0.8231 -46.0482 123.115)" width="19.85" height="19.17"/>
		<rect x="172.54" y="130.38" transform="matrix(0.8231 -0.5679 0.5679 0.8231 -47.2061 128.3819)" width="19.85" height="19.17"/>
		<rect x="160.75" y="120.91" transform="matrix(0.8231 -0.5679 0.5679 0.8231 -44.3133 118.7327)" width="15.35" height="19.17"/>
		<rect x="150.31" y="112.68" transform="matrix(0.8231 -0.5679 0.5679 0.8231 -41.9333 111.7234)" width="16.11" height="20.99"/>
		<rect x="143.99" y="112.12" transform="matrix(0.8231 -0.5679 0.5679 0.8231 -41.4673 107.5201)" width="15.73" height="16.41"/>
		<rect x="134.52" y="108.21" transform="matrix(0.8231 -0.5679 0.5679 0.8231 -39.6583 101.0566)" width="15.73" height="11.96"/>
		<rect x="136.3" y="104.42" transform="matrix(0.8231 -0.5679 0.5679 0.8231 -37.891 99.167)" width="7.86" height="11.96"/>
		<rect x="148.7" y="147.81" transform="matrix(0.8231 -0.5679 0.5679 0.8231 -60.7655 116.5554)" width="16" height="16"/>
		<rect x="142.08" y="147.22" transform="matrix(0.8231 -0.5679 0.5679 0.8231 -60.4429 112.3075)" width="15.93" height="11.91"/>
		<rect x="136.47" y="146.17" transform="matrix(0.8231 -0.5679 0.5679 0.8231 -60.8395 108.9371)" width="15.93" height="11.91"/>
		<rect x="130.85" y="144.97" transform="matrix(0.8231 -0.5679 0.5679 0.8231 -61.1517 105.5323)" width="15.93" height="11.91"/>
		<rect x="125.48" y="144.26" transform="matrix(0.8231 -0.5679 0.5679 0.8231 -61.7024 102.3583)" width="15.93" height="11.91"/>
		<rect x="118.66" y="143.25" transform="matrix(0.8231 -0.5679 0.5679 0.8231 -61.2734 97.9746)" width="15.93" height="8.17"/>
		<rect x="120.3" y="139.83" transform="matrix(0.8231 -0.5679 0.5679 0.8231 -59.7275 96.0986)" width="8.17" height="8.17"/>
		<rect x="169.66" y="211.73" transform="matrix(0.8231 -0.5679 0.5679 0.8231 -91.3352 137.8394)" width="11.85" height="7.59"/>
		<rect x="161.28" y="213.19" transform="matrix(0.8231 -0.5679 0.5679 0.8231 -93.9645 132.7498)" width="9.63" height="8.01"/>
		<rect x="148.83" y="217.07" transform="matrix(0.8231 -0.5679 0.5679 0.8231 -96.1271 129.5308)" width="22.03" height="3.98"/>
		<rect x="148.8" y="216.94" transform="matrix(0.8231 -0.5679 0.5679 0.8231 -98.2989 126.3234)" width="9.63" height="8.01"/>
		<rect x="140.49" y="217.8" transform="matrix(0.8231 -0.5679 0.5679 0.8231 -100.2613 121.7566)" width="9.63" height="8.01"/>
		<rect x="131.39" y="219" transform="matrix(0.8231 -0.5679 0.5679 0.8231 -102.5485 116.8008)" width="9.63" height="8.01"/>
		<rect x="123.44" y="215.15" transform="matrix(0.8231 -0.5679 0.5679 0.8231 -102.2281 111.7485)" width="9.63" height="9.63"/>
		<rect x="116.86" y="209.99" transform="matrix(0.8231 -0.5679 0.5679 0.8231 -101.3042 107.0755)" width="8.72" height="12.32"/>
		<rect x="115.15" y="202.19" transform="matrix(0.8231 -0.5679 0.5679 0.8231 -96.1431 103.8784)" width="7.03" height="8.15"/>
		<rect x="118.45" y="194.29" transform="matrix(0.8231 -0.5679 0.5679 0.8231 -90.9012 104.9079)" width="8.98" height="8.15"/>
		<rect x="119.38" y="181.35" transform="matrix(0.8231 -0.5679 0.5679 0.8231 -81.5063 109.1933)" width="30.27" height="8.15"/>
		<rect x="145.22" y="175.83" transform="matrix(0.8231 -0.5679 0.5679 0.8231 -75.6898 116.8329)" width="8.94" height="8.15"/>
		<rect x="150.64" y="177.31" transform="matrix(0.8231 -0.5679 0.5679 0.8231 -75.6397 119.952)" width="8.15" height="8.15"/>
		<rect x="132.6" y="170.62" transform="matrix(0.8231 -0.5679 0.5679 0.8231 -75.9906 109.0685)" width="8.94" height="11.77"/>
		<rect x="124.78" y="166.47" transform="matrix(0.8231 -0.5679 0.5679 0.8231 -75.0606 103.7511)" width="8.44" height="11.77"/>
		<rect x="117.39" y="161.99" transform="matrix(0.8231 -0.5679 0.5679 0.8231 -73.8234 98.7584)" width="8.44" height="11.77"/>
		<rect x="109.46" y="157.27" transform="matrix(0.8231 -0.5679 0.5679 0.8231 -72.5468 93.4209)" width="8.44" height="11.77"/>
		<rect x="100.55" y="149.77" transform="matrix(0.8231 -0.5679 0.5679 0.8231 -71.0138 87.3951)" width="8.44" height="15.82"/>
		<rect x="98.68" y="144.29" transform="matrix(0.8231 -0.5679 0.5679 0.8231 -66.1366 84.7078)" width="8.44" height="8.44"/>
		<rect x="101.02" y="139.58" transform="matrix(0.8231 -0.5679 0.5679 0.8231 -62.7737 84.6814)" width="7.05" height="7.05"/>
		<rect x="99.31" y="127.43" transform="matrix(0.8231 -0.5679 0.5679 0.8231 -54.0168 88.4962)" width="31.46" height="7.05"/>
		<rect x="119.58" y="124.08" transform="matrix(0.8231 -0.5679 0.5679 0.8231 -50.6919 93.8725)" width="11.51" height="8.44"/>
		<rect x="128.86" y="125.08" transform="matrix(0.8231 -0.5679 0.5679 0.8231 -50.3059 97.1182)" width="3.75" height="8.44"/>
		<rect x="117.65" y="105.45" transform="matrix(0.8231 -0.5679 0.5679 0.8231 -46.2546 90.0813)" width="7.63" height="27.68"/>
		<rect x="111.53" y="105.6" transform="matrix(0.8231 -0.5679 0.5679 0.8231 -41.617 86.0347)" width="11.51" height="8.44"/>
		<rect x="112.57" y="99.75" transform="matrix(0.8231 -0.5679 0.5679 0.8231 -38.1162 85.5882)" width="11.51" height="8.44"/>
		<rect x="112.31" y="90.53" transform="matrix(0.8231 -0.5679 0.5679 0.8231 -31.8315 87.3242)" width="23.88" height="8.44"/>
		<rect x="118.46" y="86.79" transform="matrix(0.8231 -0.5679 0.5679 0.8231 -30.0584 85.5233)" width="7.58" height="8.44"/>
		<rect x="129.14" y="88.32" transform="matrix(0.8231 -0.5679 0.5679 0.8231 -28.6898 92.978)" width="11.51" height="8.44"/>
		<rect x="138.52" y="88.43" transform="matrix(0.8231 -0.5679 0.5679 0.8231 -27.4395 97.2086)" width="7.58" height="8.44"/>
		<rect x="145.11" y="89.37" transform="matrix(0.8231 -0.5679 0.5679 0.8231 -27.761 101.4101)" width="7.58" height="11.79"/>
		<rect x="143.77" y="88.4" transform="matrix(0.8231 -0.5679 0.5679 0.8231 -26.1053 101.4454)" width="12.03" height="8.44"/>
		<rect x="147.61" y="78.5" transform="matrix(0.8231 -0.5679 0.5679 0.8231 -21.1331 100.9025)" width="7.58" height="11.75"/>
		<rect x="144.65" y="72.75" transform="matrix(0.8231 -0.5679 0.5679 0.8231 -15.6852 103.5854)" width="27.56" height="8.44"/>
		<rect x="153.47" y="67.74" transform="matrix(0.8231 -0.5679 0.5679 0.8231 -13.0407 102.0551)" width="7.63" height="8.44"/>
		<rect x="164.52" y="68.95" transform="matrix(0.8231 -0.5679 0.5679 0.8231 -11.387 109.7929)" width="12.03" height="8.44"/>
		<rect x="170.1" y="70.14" transform="matrix(0.8231 -0.5679 0.5679 0.8231 -11.0728 113.1706)" width="12.03" height="8.44"/>
		<rect x="175.92" y="72.38" transform="matrix(0.8231 -0.5679 0.5679 0.8231 -11.6597 115.777)" width="8.18" height="8.44"/>
		<rect x="183.68" y="72.28" transform="matrix(0.8231 -0.5679 0.5679 0.8231 -12.5831 120.8968)" width="8.18" height="16.74"/>
		<rect x="191.23" y="76.41" transform="matrix(0.8231 -0.5679 0.5679 0.8231 -13.6616 125.9381)" width="8.18" height="16.98"/>
	</g>
</g>
<g id="schedule" class="st0">
	<g id="time" class="st1">
		<g id="full_background" class="st0">
			<path class="st3" d="M251.33,245.55c-0.44,0.2-1.1,0.57-1.64,1.25c-1.07,1.34-0.63,2.58-1.69,3.2c-0.18,0.1-1.18,0.66-1.78,0.77
				c-0.1,0.02-0.33,0.05-0.52,0.22c-0.11,0.1-0.13,0.18-0.3,0.36c0,0-0.11,0.12-0.28,0.27c-0.48,0.4-1.52,0.81-2.29,1.56
				c-0.38,0.36-0.66,0.64-0.79,1.07c-0.06,0.2-0.08,0.41-0.25,0.7c-0.15,0.26-0.26,0.29-0.41,0.5c-0.25,0.37-0.19,0.64-0.3,0.99
				c-0.15,0.47-0.49,0.74-0.93,1.07c-1.04,0.8-1.77,0.53-2.37,1.33c-0.14,0.19-0.18,0.31-0.39,0.5c-0.4,0.36-0.89,0.47-1.24,0.51
				c0.06,0.17,0.09,0.34,0.1,0.5c0,0,0.05,0.51-0.1,1c-0.3,0.97-2.33,1.63-3.25,1.92c-1.28,0.4-1.84,0.41-2.08,0.92
				c-0.26,0.54,0.26,0.87,0,1.5c-0.22,0.53-0.63,0.69-2.32,1.7c-0.93,0.55-1.4,0.83-1.51,0.97c-0.86,1-0.38,1.96-1.22,2.63
				c-0.62,0.5-1.22,0.24-1.45,0.7c-0.29,0.58,0.72,1.2,0.5,1.83c-0.19,0.53-1,0.45-2.21,0.96c-0.93,0.39-1.49,0.89-2.35,1.65
				c-1.5,1.32-1.57,2.02-2.4,2.77c-1.47,1.33-3.58,1.23-5.34,1.13c-6.41-0.38-9.62-0.57-11.21-1c-7.03-1.88-15.76,0.11-26.17,0.17
				c-61.75,0.35-92.8,0.51-100.83,0c-10.97-0.7-18.86-1.61-30.17-0.83c-5.76,0.4-16.73,1.54-22.17,1c-2.5-0.25-4.46-0.91-7.17,0
				c-1.21,0.4-2.51,1.1-3.33,0.5c-0.84-0.61-0.37-1.97-1.5-2.83c-0.7-0.54-1.34-0.35-1.5-0.83c-0.24-0.74,1-2,1-2
				c-0.66-12.82-0.17-15.67-0.17-15.67c0.87-1.95,2.15-4.31,4-6.75c1.29-1.7,4.07-5.04,5.42-5.67c0.13-0.06,0.72-0.31,1.17-0.92
				c0.25-0.34,0.31-0.59,0.42-0.83c0.69-1.62,2.82-1.69,2.93-2.89c0.03-0.36-0.15-0.5-0.01-0.77c0.24-0.48,0.9-0.33,1.67-0.67
				c1.13-0.49,0.86-1.32,1.92-1.83c1.08-0.52,2.22-0.06,2.33-0.42c0.07-0.22-0.35-0.4-0.5-0.75c-0.45-1.08,2.03-3.05,2.58-3.5
				c2.92-2.36,5.21-5.4,7.92-8c1-0.96,2.54-2.45,4.43-4.32c0.71-0.75,1.41-1.45,1.48-1.39c0.05,0.04-0.12,0.34-0.12,0.33
				c0,0,0.05-0.15,0.12-0.33c0.34-0.87,2.68-1.57,2.71-1.5c0.02,0.06-1.38,0.72-1.58,0.46c-0.1-0.14,0.09-0.55,0.38-0.76
				c0.17-0.12,0.33-0.15,0.36-0.16c0.65-0.14,1.87-1.58,2.09-1.92c1.47-2.23,0.62-18.29,0.46-23.58c-0.08-2.67-0.17-8.83-0.17-8.83
				s1.05-1.6,3-4.57c0,0,2.44,0.37,2.67,0.4c5.32,0.8,7.98,1.2,10.22,0.14c2.69-1.28,4.75-4.48,4.04-6.09
				c-0.69-1.56-3.58-0.75-5.43-3.25c-0.8-1.08-0.8-1.96-1.61-2.25c-1.1-0.39-2.51,0.71-3.59,1.79c0-47.64,0-95.27,0-142.91
				C60.02,26.6,62.01,26.2,64,25c2.21-1.33,2.86-2.69,5.48-5.75c2.56-2.99,4.76-4.99,6.51-6.59c2.56-2.33,4.73-4.31,7.17-5.66
				c4.59-2.56,9.19-2.4,14.46-2.08C108.74,5.6,115.27,6.55,120,7c10.43,0.99,7.78-0.87,30.83-1c5.6-0.03,11.71,0.04,22.83-0.17
				c3.09-0.06,5.63-0.12,7.33-0.17c8.4-0.73,15.18-0.5,19.83-0.17c7.24,0.53,8.93,1.31,16.5,1.67c3.48,0.17,9.82,0.44,17.83-0.33
				c10.17-0.99,15.06-2.9,21.5-0.5c3.83,1.42,5.13,3.23,5.67,4.5c0.76,1.8,0.31,3.29,0,6c-0.27,2.31-0.45,5.65,0,9.83
				c-0.36,3.14-0.81,7.89-0.92,13.67c-0.16,7.86,0.38,13.24,0.78,18.32c0.51,6.57,0.68,14.33,1.02,29.85
				c0.34,15.6,0.51,23.4,0.12,29.82c-0.33,5.44,0.3,10.97-0.67,16.33c-0.37,2.05-1.33,6.7,0.17,12c0.83,2.95,1.76,3.76,2.18,4.08
				c2.26,1.7,6.66,1.7,9.99,0.42c1.07-0.41,2.12-0.99,3-0.5c1.18,0.65,1.67,3,1.67,3c0,0,1.12,3.76,1.5,6
				c0.58,3.37-0.17,5.24-0.67,8.83c-0.15,1.11-0.27,2.32,0,11.67c0.38,12.98,0.57,19.47,0.78,21.17c0.84,6.88,2.07,11.43-0.44,14.33
				c-0.58,0.66-1.82,1.78-3.81,4.18c-1.82,2.2-1.79,2.47-2.86,3.48c-2.25,2.12-3.14,1.6-5,3.5c-1.78,1.81-1.05,2.38-2.97,4.36
				c-1.53,1.58-2.3,1.54-4.34,3.47c-1.32,1.24-2.07,2.27-2.62,2.98C257.84,239.43,255.48,242.06,251.33,245.55z"/>
		</g>
		<g id="screen_background">
			<rect x="84.17" y="41.17" class="st2" width="135.79" height="106.38"/>
		</g>
		<g id="keyboard">
			<rect x="196.71" y="247.03" width="12.54" height="3.95"/>
			<rect x="204.08" y="243.08" width="7.68" height="3.95"/>
			<rect x="209.25" y="239.67" width="8.65" height="4.24"/>
			<rect x="214.83" y="235.87" width="9.63" height="3.95"/>
			<rect x="220.46" y="230.61" width="7.95" height="3.95"/>
			
				<rect x="217.94" y="233.15" transform="matrix(-1.836970e-16 1 -1 -1.836970e-16 457.6136 12.6713)" width="9.06" height="3.99"/>
			<rect x="175.17" y="247.03" width="11.92" height="3.95"/>
			<rect x="182.08" y="243.08" width="7.68" height="3.95"/>
			
				<rect x="182.53" y="239.79" transform="matrix(-1.836970e-16 1 -1 -1.836970e-16 429.5636 54.014)" width="10.49" height="3.99"/>
			<rect x="185.78" y="236.54" width="11.52" height="3.95"/>
			<rect x="191.76" y="234.95" transform="matrix(-1.836970e-16 1 -1 -1.836970e-16 432.2526 41.6342)" width="7.1" height="3.99"/>
			<rect x="195.15" y="230.6" transform="matrix(-1.836970e-16 1 -1 -1.836970e-16 431.2934 33.8862)" width="7.1" height="3.99"/>
			<rect x="193.32" y="232.45" width="7.38" height="4.24"/>
			<rect x="205.94" y="241.5" transform="matrix(-1.836970e-16 1 -1 -1.836970e-16 453.2589 33.734)" width="7.65" height="3.99"/>
			
				<rect x="211.85" y="237.89" transform="matrix(-1.836970e-16 1 -1 -1.836970e-16 455.7631 24.0127)" width="8.05" height="3.99"/>
			<rect x="146.49" y="247.03" width="11.92" height="3.95"/>
			<rect x="153.9" y="243.08" width="7.68" height="3.95"/>
			
				<rect x="154.41" y="239.87" transform="matrix(-1.836970e-16 1 -1 -1.836970e-16 401.4552 82.2806)" width="10.36" height="3.99"/>
			<rect x="157.59" y="236.54" width="17.58" height="3.95"/>
			
				<rect x="168.97" y="234.29" transform="matrix(-1.836970e-16 1 -1 -1.836970e-16 409.4638 63.1063)" width="8.42" height="3.99"/>
			<rect x="171.33" y="232.07" width="8" height="3.95"/>
			<rect x="128.17" y="247.03" width="10.48" height="3.95"/>
			
				<rect x="133.38" y="245.71" transform="matrix(-1.836970e-16 1 -1 -1.836970e-16 384.3639 111.0497)" width="6.56" height="3.99"/>
			<rect x="134.66" y="243.5" width="7.68" height="3.95"/>
			<rect x="134.79" y="240" transform="matrix(-1.836970e-16 1 -1 -1.836970e-16 382.4952 101.4967)" width="11.42" height="3.99"/>
			<rect x="138.51" y="235.86" width="10.68" height="3.95"/>
			<rect x="145.82" y="227.96" width="11.92" height="3.95"/>
			
				<rect x="141.78" y="231.37" transform="matrix(-1.836970e-16 1 -1 -1.836970e-16 380.5619 86.172)" width="10.82" height="3.99"/>
			<rect x="105.85" y="247.03" width="10.81" height="3.95"/>
			
				<rect x="111.13" y="245.46" transform="matrix(-1.836970e-16 1 -1 -1.836970e-16 362.1193 132.7816)" width="7.07" height="3.99"/>
			<rect x="112.67" y="243.91" width="7.57" height="3.95"/>
			
				<rect x="112.54" y="240.16" transform="matrix(-1.836970e-16 1 -1 -1.836970e-16 360.4043 123.906)" width="11.42" height="3.99"/>
			<rect x="116.26" y="236.29" width="11.18" height="3.95"/>
			
				<rect x="119.73" y="232.57" transform="matrix(-1.836970e-16 1 -1 -1.836970e-16 360.0115 109.1211)" width="11.42" height="3.99"/>
			<rect x="123.45" y="228.64" width="7.68" height="3.95"/>
			<rect x="79.48" y="247.03" width="14.75" height="3.95"/>
			
				<rect x="87.05" y="243.81" transform="matrix(-1.836970e-16 1 -1 -1.836970e-16 338.0421 153.5717)" width="10.36" height="3.99"/>
			<rect x="90.24" y="240.63" width="10.99" height="3.95"/>
			<rect x="95.45" y="238.8" transform="matrix(-1.836970e-16 1 -1 -1.836970e-16 340.0321 141.5616)" width="7.56" height="3.99"/>
			<rect x="97.24" y="233.24" width="11.8" height="3.95"/>
			
				<rect x="103.26" y="231.37" transform="matrix(-1.836970e-16 1 -1 -1.836970e-16 340.412 126.3219)" width="7.56" height="3.99"/>
			<rect x="57.54" y="247.03" width="11.28" height="3.95"/>
			
				<rect x="61.65" y="243.81" transform="matrix(-1.836970e-16 1 -1 -1.836970e-16 312.6393 178.9745)" width="10.36" height="3.99"/>
			<rect x="64.84" y="239.89" width="15.1" height="3.95"/>
			
				<rect x="72.31" y="236.22" transform="matrix(-1.836970e-16 1 -1 -1.836970e-16 316.157 160.2773)" width="11.25" height="3.99"/>
			<rect x="75.95" y="232.59" width="7.57" height="3.95"/>
			
				<rect x="77.94" y="230.94" transform="matrix(-1.836970e-16 1 -1 -1.836970e-16 314.6552 151.2072)" width="7.56" height="3.99"/>
			<rect x="35.38" y="247.03" width="11.28" height="3.95"/>
			
				<rect x="39.23" y="243.48" transform="matrix(-1.836970e-16 1 -1 -1.836970e-16 290.1145 200.8313)" width="10.83" height="3.99"/>
			<rect x="42.65" y="240.02" width="7.57" height="3.95"/>
			
				<rect x="45.15" y="238.22" transform="matrix(-1.836970e-16 1 -1 -1.836970e-16 289.1257 191.3027)" width="7.52" height="3.99"/>
			<rect x="50.89" y="232.59" width="10.42" height="3.95"/>
			
				<rect x="55.84" y="230.85" transform="matrix(-1.836970e-16 1 -1 -1.836970e-16 292.3814 173.3104)" width="7.39" height="3.99"/>
		</g>
		<g id="_x3F__3">
			<rect x="184.62" y="106.25" width="7.28" height="7.28"/>
			<rect x="184.62" y="91.5" width="7.28" height="10.97"/>
			<rect x="188.27" y="87.86" width="7.28" height="7.28"/>
			<rect x="195.55" y="84.22" width="7.28" height="7.28"/>
			<rect x="199.19" y="73.25" width="7.28" height="14.61"/>
			<rect x="184.62" y="69.47" width="18.2" height="7.28"/>
			<rect x="180.98" y="73.11" width="7.28" height="10.83"/>
		</g>
		<g id="_x3F__2">
			<rect x="151.5" y="106.25" width="7.28" height="7.28"/>
			<rect x="151.5" y="91.5" width="7.28" height="10.97"/>
			<rect x="155.14" y="87.86" width="7.28" height="7.28"/>
			<rect x="162.42" y="84.22" width="7.28" height="7.28"/>
			<rect x="166.06" y="73.25" width="7.28" height="14.61"/>
			<rect x="151.5" y="69.47" width="18.2" height="7.28"/>
			<rect x="147.86" y="73.11" width="7.28" height="10.83"/>
		</g>
		<g id=":">
			<rect x="133.12" y="91.5" width="7.28" height="7.28"/>
			<rect x="133.12" y="106.25" width="7.28" height="7.28"/>
		</g>
		<g id="_x3F__1">
			<rect x="105.06" y="106.25" width="7.28" height="7.28"/>
			<rect x="105.06" y="91.5" width="7.28" height="10.97"/>
			<rect x="108.7" y="87.86" width="7.28" height="7.28"/>
			<rect x="115.98" y="84.22" width="7.28" height="7.28"/>
			<rect x="119.62" y="73.25" width="7.28" height="14.61"/>
			<rect x="105.06" y="69.47" width="18.2" height="7.28"/>
			<rect x="101.42" y="73.11" width="7.28" height="10.83"/>
		</g>
	</g>
	<g id="computer_screen" class="st1">
		<polygon points="58.62,26.75 58.62,26.75 58.62,26.75 58.62,26.75 		"/>
		<rect x="57.88" y="26.75" width="4.5" height="143.38"/>
		<rect x="238.25" y="22.64" width="4.5" height="144.19"/>
		
			<rect x="149.95" y="-65.66" transform="matrix(-1.836970e-16 1 -1 -1.836970e-16 177.0901 -127.3147)" width="4.5" height="181.1"/>
		
			<rect x="147.86" y="83.18" transform="matrix(-1.836970e-16 1 -1 -1.836970e-16 321.7396 21.5358)" width="4.48" height="176.92"/>
		<rect x="59.45" y="24.18" transform="matrix(-1.836970e-16 1 -1 -1.836970e-16 89.7159 -33.6906)" width="4.5" height="7.66"/>
		<rect x="236.31" y="163.69" transform="matrix(-1.836970e-16 1 -1 -1.836970e-16 406.4366 -70.6866)" width="4.5" height="8.38"/>
		<rect x="59.97" y="163.53" transform="matrix(-1.836970e-16 1 -1 -1.836970e-16 230.0942 105.6558)" width="4.5" height="8.69"/>
		
			<rect x="162.85" y="90.44" transform="matrix(-1.836970e-16 1 -1 -1.836970e-16 314.3125 -125.6042)" width="114.21" height="7.83"/>
		<rect x="80.25" y="143.62" width="143.62" height="7.83"/>
		<rect x="80.25" y="37.25" width="143.08" height="7.83"/>
		<rect x="27.06" y="90.44" transform="matrix(-1.836970e-16 1 -1 -1.836970e-16 178.5208 10.1875)" width="114.21" height="7.83"/>
		<rect x="168" y="-83.87" transform="matrix(-1.836970e-16 1 -1 -1.836970e-16 176.3926 -164.1172)" width="4.5" height="180.01"/>
		<rect x="260.26" y="8.39" width="4.5" height="143.69"/>
		<rect x="65.53" y="19.25" width="3.95" height="3.95"/>
		<rect x="69.48" y="15.25" width="3.95" height="3.95"/>
		<rect x="73.44" y="11.3" width="3.95" height="3.95"/>
		<rect x="77.39" y="7.34" width="3.95" height="3.95"/>
		<rect x="246.7" y="14.73" width="3.95" height="3.95"/>
		<rect x="242.75" y="18.68" width="3.95" height="3.95"/>
		<rect x="250.66" y="10.89" width="3.95" height="3.95"/>
		<rect x="254.61" y="7.07" width="3.95" height="3.95"/>
		<rect x="65.22" y="169.39" width="177.53" height="10.08"/>
		<rect x="246.7" y="162.22" width="3.95" height="3.95"/>
		<polyline points="242.75,170.12 242.75,166.17 246.7,166.17 246.7,170.12 		"/>
		<rect x="250.66" y="158.37" width="3.95" height="3.95"/>
		<rect x="254.61" y="154.42" width="3.95" height="3.95"/>
		<rect x="258.61" y="150.47" width="3.95" height="3.95"/>
		<rect x="260.26" y="148" width="18.74" height="4.08"/>
		<rect x="248.92" y="173.61" width="3.95" height="3.95"/>
		<rect x="252.87" y="169.66" width="3.95" height="3.95"/>
		<rect x="256.83" y="165.71" width="3.95" height="3.95"/>
		<rect x="260.78" y="161.76" width="3.95" height="3.95"/>
		<rect x="264.73" y="157.8" width="3.95" height="3.95"/>
		<rect x="268.69" y="153.85" width="3.95" height="3.95"/>
		<rect x="272.64" y="149.9" width="3.95" height="3.95"/>
		<rect x="279" y="152.08" width="3.37" height="65.8"/>
		<rect x="275.05" y="217.88" width="3.95" height="3.95"/>
		<rect x="149.52" y="77.83" transform="matrix(-1.836970e-16 1 -1 -1.836970e-16 330.4659 26.9286)" width="4.5" height="201.73"/>
		<rect x="248.92" y="173.89" width="3.95" height="73.36"/>
		<rect x="271.09" y="221.83" width="3.95" height="3.95"/>
		<rect x="267.14" y="225.78" width="3.95" height="3.95"/>
		<rect x="263.19" y="229.73" width="3.95" height="3.95"/>
		<rect x="259.23" y="233.69" width="3.95" height="3.95"/>
		<rect x="255.28" y="237.64" width="3.95" height="3.95"/>
		<rect x="251.33" y="241.59" width="3.95" height="3.95"/>
		<rect x="245.55" y="247.25" width="3.95" height="3.95"/>
		<rect x="241.6" y="251.2" width="3.95" height="3.95"/>
		<rect x="237.64" y="255.16" width="3.95" height="3.95"/>
		<rect x="233.69" y="259.11" width="3.95" height="3.95"/>
		<rect x="229.74" y="263.06" width="3.95" height="3.95"/>
		<rect x="225.78" y="267.02" width="3.95" height="3.95"/>
		<rect x="221.83" y="270.97" width="3.95" height="3.95"/>
		<rect x="217.88" y="274.92" width="3.95" height="3.95"/>
		<rect x="245.55" y="228.44" width="3.95" height="3.95"/>
		<rect x="241.6" y="232.39" width="3.95" height="3.95"/>
		<rect x="237.64" y="236.34" width="3.95" height="3.95"/>
		<rect x="234.03" y="240.27" width="3.95" height="3.95"/>
		<rect x="230.07" y="244.23" width="3.95" height="3.95"/>
		<rect x="226.12" y="248.18" width="3.95" height="3.95"/>
		<rect x="222.17" y="252.13" width="3.95" height="3.95"/>
		<rect x="218.21" y="256.09" width="3.95" height="3.95"/>
		<rect x="216.19" y="258.4" width="3.37" height="21.97"/>
		<rect x="6.63" y="254.78" width="3.37" height="22.22"/>
		
			<rect x="109.72" y="151.68" transform="matrix(-1.836970e-16 1 -1 -1.836970e-16 367.8733 145.0547)" width="3.37" height="209.56"/>
		<path d="M10,280.37V277h209.56v3.37c-2.23,0-4.46,0-6.7,0C145.25,280.37,77.62,280.37,10,280.37z"/>
		<rect x="10" y="250.82" width="3.95" height="3.95"/>
		<rect x="13.95" y="246.87" width="3.95" height="3.95"/>
		<rect x="17.91" y="242.92" width="3.95" height="3.95"/>
		<rect x="21.86" y="238.97" width="3.95" height="3.95"/>
		<rect x="25.81" y="235.01" width="3.95" height="3.95"/>
		<rect x="29.77" y="231.06" width="3.95" height="3.95"/>
		<rect x="33.72" y="227.11" width="3.95" height="3.95"/>
		<rect x="37.67" y="223.15" width="3.95" height="3.95"/>
		<rect x="41.62" y="219.2" width="3.95" height="3.95"/>
		<rect x="45.58" y="215.25" width="5.33" height="3.95"/>
		<path d="M50.9,219.2h-3.95v-38.31h3.95c0,10.62,0,21.25,0,31.87C50.9,214.91,50.9,217.05,50.9,219.2z"/>
		<rect x="62.22" y="199.5" width="18.03" height="11.07"/>
		<rect x="172.09" y="205.03" width="58.66" height="6.47"/>
		<path d="M243.57,253.18"/>
		<path d="M249.78,247.81"/>
		<path d="M56.67,205.83"/>
	</g>
</g>
<g id="mandate" class="st0">
	<path id="full_background_3_" class="st3" d="M285.73,146.17c0.18,1.7,0.13,3.79-1.98,11.08c-1.4,4.83-2.1,7.25-3.25,10
		c-4.15,9.93-7.32,10.12-8.5,16c-0.24,1.19-0.59,3.59-2.5,5.25c-1.32,1.15-2.09,0.81-3.25,2c-1.93,1.97-0.89,3.98-2.5,5.25
		c-1.7,1.34-3.45-0.45-5.25,0.75c-2.35,1.57-0.58,5.45-3,7.25c-1.91,1.42-4.14-0.14-5.5,1.5c-1.03,1.24-0.29,2.76-1.5,3.75
		c-0.88,0.72-2.05,0.54-2.75,0.5c-5.29-0.3-7.01,6.03-13.75,7c-2.36,0.34-4.05-0.16-5.75,1.25c-1.35,1.12-0.98,2.01-2,3
		c-2.56,2.48-7.22-0.85-12.75,0.25c-3.55,0.71-3.36,2.42-7.5,4.5c-9.01,4.52-19.87,1.41-26.5-0.5c-4.7-1.35-3.95-1.73-8.25-3
		c-10.65-3.15-17-1.35-27.44-1.41c-2.88-0.01-11.77-1.54-29.56-4.59c-14.22-2.44-21.33-3.66-25-4.5
		c-10.7-2.45-22.35-5.18-36.25-11.75c-10.79-5.09-18.78-10.53-23.75-14.25C18.6,179.03,13.49,175.21,9.5,169
		c-7.78-12.12-6.34-25.68-5.51-33.6C8.79,90,52.62,64.62,61.5,63.75c0.48-0.05,3.32-0.26,7-1.25c5.52-1.48,9.25-3.7,10.25-4.25
		c8.4-4.61,23.14-0.49,36.25,1.5c16.3,2.47,14.28-0.75,32.91,1.23C175.16,63.86,187.8,71.63,213,78c5.47,1.38,10.5,4.26,16,5.5
		c1.79,0.41,4.85,0.99,7,3.5c1.33,1.55,1.1,2.43,2.5,3.5c2.25,1.73,3.95,0.32,7,1.75c2.77,1.3,2.12,2.81,4.75,4
		c3.41,1.54,5.94-0.36,7.25,1.25c1.23,1.52-0.41,3.96,1,5.25c0.82,0.75,2.07,0.55,2.75,0.5c5.64-0.38,11.63,7.8,15.25,12.75
		c2.61,3.57,3.92,5.35,4.75,7.75c1.92,5.54,0.05,7.96,2,15C284.46,143.13,285.39,142.95,285.73,146.17z"/>
	<g id="eyes__x2B__teeth_background" class="st1">
		<path class="st2" d="M133.95,110.11c-0.9,4.89-5.28,4.64-12.53,13.45c-1.19,1.44-1.98,2.56-3.66,3.75
			c-2.9,2.06-7.53,3.71-10.05,1.91c-1.04-0.75-0.64-1.31-1.88-2.21c-2.2-1.58-4.13-0.31-5.43-1.82c-0.54-0.63-0.78-1.52-1.23-3.18
			c-0.31-1.15-0.19-1.21-0.39-1.65c-0.63-1.38-2.22-1.79-4.44-2.52c-4.57-1.51-3.59-1.67-5.83-2.17c-1.48-0.33-4.02-0.86-7.17-0.33
			c-1.82,0.31-3.06,0.84-5.2,1.76c-4.19,1.8-4.15,2.57-6.49,3.26c-0.57,0.17-6.34,1.81-8.86-0.87c-1.69-1.79-0.69-4.21-3.2-6.43
			c-0.45-0.4-0.94-0.67-1.92-1.22c-3.94-2.22-5.68-1.82-6.33-3.17c-0.53-1.08,0.49-1.57,1-4.5c0.63-3.64-0.7-4.21,0.17-6.5
			c0.95-2.49,2.78-2.45,3.33-5c0.39-1.79-0.41-2.27,0.13-3.46c1.12-2.47,5.59-2.66,6.53-2.71c4.21-0.19,7.46,1.41,8,1.67
			c2.18,1.05,4.18,1.5,23,2.5c24.81,1.32,38.02,1.41,40.33,6.83c0.25,0.58,0.86,2.38,1.33,4.5
			C133.78,104.77,134.41,107.61,133.95,110.11z"/>
		<path class="st2" d="M249.17,126.83c-0.87,2.68-1.73,5.31-4.17,6.83c-1.57,0.98-2.55,0.73-3.89,2.02
			c-1.84,1.79-1.02,3.3-2.46,4.87c-1.97,2.15-5.72,1.76-8.82,1.44c-2.96-0.31-5.17-1.16-6.95-1.85c-2.79-1.08-5.05-2.4-6.05-2.98
			c-2.57-1.5-2.39-1.73-4.09-2.5c-2.13-0.96-3.18-0.96-4.78-2.21c-1.39-1.07-1.06-1.43-2.04-2.01c-1.77-1.05-3.44-0.26-7.42,0.22
			c-3.76,0.45-3.19-0.14-5.62,0.33c-1.43,0.28-5.33,1-7.88,3.25c-0.64,0.56-1.65,1.66-3.38,2.5c-0.46,0.22-0.73,0.31-1.12,0.62
			c-1.37,1.09-1.24,2.52-1.88,2.62c-0.76,0.13-0.94-1.91-2.62-2.62c-1.52-0.65-3.75,0-3.75,0c-0.05-0.45-0.18-1.12-0.66-1.7
			c-0.79-0.95-1.66-0.6-2.34-1.43c0,0-0.5-3.5-0.5-3.5l0,0c0.59,0.78-1.12-1.63-1.88-2.25c-0.89-0.73-1.22-0.4-3-1.12
			c-1.26-0.51-2.92-1.21-3.75-2.75c-0.37-0.69-0.45-1.31-0.5-1.75c-0.73-6.59-1.09-9.88,0.38-12.38c1.49-2.53,2.93-2.04,3.83-4.5
			c1.07-2.9-0.67-4.33,0.42-6.25c1.44-2.55,6.24-3.13,9.75-2c2.7,0.87,3.5,2.39,5.5,3.92c5.21,3.99,9.57,1.17,24.83,2.5
			c5.82,0.51,6.1,1,12,1.33c7.97,0.45,8.05-0.41,12,0.5c5.77,1.32,7.12,3.51,12.17,3.33c1.73-0.06,2.92-0.36,4.5,0.33
			c2.85,1.25,3.99,4.42,4.5,5.83C251.26,120.39,249.82,124.84,249.17,126.83z"/>
		<rect x="165.1" y="164" class="st2" width="12.55" height="14.55"/>
		<rect x="186.2" y="171.95" class="st2" width="7.6" height="6.61"/>
		<rect x="149.72" y="183.36" class="st2" width="12.04" height="14.87"/>
		<rect x="137.65" y="165.5" class="st2" width="8.87" height="17.05"/>
		<path class="st2" d="M126.5,179.17c-1.9,0.5-4.65,1.47-7.51,3.45c-1.98,1.37-3.45,2.84-4.49,4.06c0.41,2.69,0.82,5.38,1.23,8.07
			h14.61c0.36-0.81,2.7-6.38-0.17-11.59C129.07,181.17,127.57,179.9,126.5,179.17z"/>
		<rect x="86.23" y="146.22" class="st2" width="11.74" height="13.76"/>
		<path class="st2" d="M103.02,167.15c-0.24-0.1-2.95-1.22-5.36,0.35c-1.44,0.94-1.99,2.32-2.17,2.83c-0.5-0.08-3.12-0.44-4.83,1.17
			c-2.07,1.94-2.18,6.12,0.61,9.41c2.85-1.14,5.7-2.27,8.55-3.41c0.76-0.39,1.94-1.14,2.83-2.5
			C104.9,171.58,103.2,167.54,103.02,167.15z"/>
		<path class="st2" d="M120.43,162.71h-11.74c0.48,3.95,0.95,7.9,1.43,11.85c2.96,0.24,5.91,0.49,8.87,0.73
			C119.46,171.09,119.94,166.9,120.43,162.71z"/>
	</g>
	<g id="icon_1_" class="st1">
		<rect x="245.18" y="93.62" width="16.11" height="7.31"/>
		<rect x="254.84" y="100.08" width="16.61" height="7.3"/>
		<rect x="262.45" y="105.37" width="13.62" height="5.25"/>
		<rect x="269.26" y="113.06" width="9.84" height="4.83"/>
		<polyline points="285.6,117.83 274.36,117.83 274.36,125.22 285.6,125.22 		"/>
		<rect x="241.11" y="131.66" width="6.45" height="4.03"/>
		<rect x="246.78" y="113.07" width="4.03" height="19.42"/>
		<rect x="224.67" y="108.19" width="22.91" height="5.67"/>
		<rect x="226.68" y="104.17" width="15.3" height="4.03"/>
		<rect x="211.16" y="100.93" width="18.55" height="12.93"/>
		<rect x="211.16" y="113.07" width="15.52" height="4.03"/>
		<rect x="211.16" y="116.3" width="8.99" height="4.03"/>
		<rect x="207.96" y="119.53" width="6.48" height="4.03"/>
		<rect x="201.49" y="100.93" width="9.67" height="22.63"/>
		<rect x="207.12" y="98.53" width="4.03" height="4.03"/>
		<rect x="195" y="98.87" width="6.49" height="21.45"/>
		<rect x="174.06" y="98.53" width="37.09" height="4.03"/>
		<rect x="189.38" y="102.56" width="5.63" height="14.53"/>
		<rect x="182.91" y="102.56" width="6.47" height="5.63"/>
		<rect x="174.06" y="100.93" width="9.45" height="4.03"/>
		<rect x="161.83" y="96.05" width="16.16" height="5.69"/>
		<rect x="161.83" y="101.74" width="4.03" height="6.45"/>
		<rect x="158.58" y="107.42" width="4.28" height="19.41"/>
		<rect x="161.86" y="125.19" width="7.29" height="4.03"/>
		<rect x="167.56" y="128.44" width="4.03" height="7.24"/>
		<rect x="241.09" y="155.94" width="4.03" height="4.03"/>
		<rect x="237.92" y="152.7" width="4.03" height="4.03"/>
		<rect x="234.62" y="150.26" width="4.03" height="4.03"/>
		<rect x="203.91" y="134.91" width="4.03" height="4.03"/>
		<rect x="201.48" y="138.13" width="9.74" height="6.46"/>
		<rect x="201.48" y="144.29" width="6.45" height="4.03"/>
		<rect x="201.48" y="147.04" width="9.69" height="4.03"/>
		<rect x="201.48" y="150.25" width="12.96" height="4.03"/>
		<rect x="201.48" y="155.94" width="18.62" height="19.41"/>
		<rect x="206.32" y="153.47" width="11.34" height="4.03"/>
		<rect x="198.25" y="144.29" width="5.09" height="18.94"/>
		<rect x="192.61" y="144.29" width="5.64" height="4.03"/>
		<rect x="198.25" y="141.4" width="4.03" height="4.03"/>
		<rect x="191.79" y="134.11" width="4.03" height="4.03"/>
		<rect x="191.79" y="137.37" width="7.36" height="4.03"/>
		<rect x="189.38" y="138.13" width="7.76" height="6.46"/>
		<rect x="182.92" y="147.04" width="15.34" height="12.95"/>
		<rect x="173.2" y="150.25" width="13.77" height="12.98"/>
		<rect x="198.78" y="168.83" width="18.88" height="12.94"/>
		<rect x="192.45" y="171.26" width="18.72" height="13.67"/>
		<rect x="186.2" y="168.07" width="9.61" height="4.03"/>
		<rect x="174" y="183.36" width="34.73" height="4.03"/>
		<rect x="186.2" y="171.2" width="3.1" height="3.36"/>
		<rect x="182.92" y="171.32" width="4.03" height="16.06"/>
		<rect x="179.64" y="180.91" width="4.03" height="4.03"/>
		<rect x="174" y="187.38" width="28.3" height="6.48"/>
		<rect x="174" y="193.11" width="21.81" height="4.03"/>
		<rect x="174" y="195.66" width="16.16" height="4.03"/>
		<rect x="174" y="198.8" width="10.5" height="4.03"/>
		<rect x="174" y="202" width="4.03" height="4.03"/>
		<rect x="158.62" y="186.6" width="15.6" height="19.43"/>
		<rect x="167.5" y="153.52" width="12.89" height="12.89"/>
		<rect x="176.37" y="166.45" width="4.03" height="4.03"/>
		<rect x="176.37" y="162.99" width="4.23" height="12.29"/>
		<rect x="173.95" y="171.26" width="4.23" height="10.55"/>
		<rect x="169.13" y="172.77" transform="matrix(6.123234e-17 -1 1 6.123234e-17 -8.4612 350.9476)" width="4.23" height="13.87"/>
		<rect x="161.88" y="174.56" width="6.45" height="3.99"/>
		<rect x="155.42" y="155.94" width="16.14" height="13.71"/>
		<rect x="137.64" y="168.94" width="28.26" height="6.35"/>
		<rect x="135.16" y="158.98" width="20.36" height="8.48"/>
		<rect x="131.18" y="158.98" width="6.45" height="16.31"/>
		<rect x="155.39" y="189.87" width="6.45" height="3.99"/>
		<rect x="140.81" y="193.13" width="27.81" height="16.11"/>
		<rect x="140.81" y="207.78" width="18.65" height="3.99"/>
		<rect x="146.5" y="186.6" width="3.37" height="6.52"/>
		<rect x="149.71" y="180.93" width="3.61" height="9.95"/>
		<rect x="155.4" y="189.86" width="3.24" height="1.64"/>
		<rect x="152.66" y="180.93" width="6.82" height="3.24"/>
		<rect x="155.4" y="183.36" width="7.33" height="4.19"/>
		<rect x="146.5" y="175.29" width="3.24" height="3.24"/>
		<rect x="143.28" y="177.69" width="6.47" height="3.24"/>
		<rect x="137.64" y="180.93" width="8.88" height="3.24"/>
		<rect x="134.41" y="177.69" width="6.47" height="4.13"/>
		<rect x="134.41" y="174.56" width="3.24" height="3.24"/>
		<rect x="167.5" y="147.01" width="4.04" height="4.04"/>
		<rect x="170.77" y="143.8" width="4.02" height="4.02"/>
		<rect x="173.2" y="140.56" width="4.03" height="4.03"/>
		<rect x="176.38" y="138.13" width="4.09" height="4.03"/>
		<rect x="179.69" y="134.9" width="4.09" height="4.03"/>
		<rect x="173.96" y="134.9" width="4.09" height="4.03"/>
		<rect x="170.73" y="134.9" width="4.09" height="4.03"/>
		<rect x="182.89" y="131.67" width="4.09" height="4.03"/>
		<rect x="185.26" y="131.67" width="4.09" height="4.03"/>
		<rect x="189.35" y="128.44" width="4.09" height="4.03"/>
		<rect x="193.28" y="128.44" width="4.09" height="4.03"/>
		<rect x="197.14" y="128.44" width="4.09" height="4.03"/>
		<rect x="200.95" y="128.44" width="4.09" height="4.03"/>
		<rect x="203.87" y="128.44" width="4.09" height="4.03"/>
		<rect x="207.16" y="131.68" width="4.09" height="4.03"/>
		<rect x="211.02" y="131.68" width="4.09" height="4.03"/>
		<rect x="212.74" y="131.68" width="4.09" height="4.03"/>
		<rect x="213.64" y="134.91" width="4.09" height="4.03"/>
		<rect x="215.99" y="134.91" width="4.09" height="4.03"/>
		<rect x="219.23" y="138.13" width="7.3" height="4.03"/>
		<rect x="225.77" y="140.56" width="12.88" height="4.82"/>
		<rect x="228.16" y="144.62" width="4.03" height="4.03"/>
		<rect x="231.4" y="147.02" width="4.16" height="4.03"/>
		<rect x="237.9" y="134.9" width="4.03" height="7.29"/>
		<rect x="28.42" y="78.23" width="6.54" height="11.41"/>
		<rect x="31.11" y="78.23" width="3.85" height="6.56"/>
		<rect x="31.63" y="74.95" width="6.54" height="8.19"/>
		<rect x="34.9" y="71.78" width="7.27" height="9.01"/>
		<rect x="38.17" y="69.41" width="7.27" height="8.17"/>
		<rect x="43.78" y="67.7" width="10.5" height="6.56"/>
		<rect x="48.63" y="64.42" width="9.82" height="7.47"/>
		<polyline points="61.66,61.33 61.66,70.25 57.44,70.25 57.44,61.33 		"/>
		<rect x="16.31" y="92.75" width="10.15" height="8.21"/>
		<rect x="13.88" y="96.9" width="10.77" height="7.32"/>
		<rect x="10.49" y="102.33" width="10.77" height="7.58"/>
		<rect x="7.5" y="105.67" width="10.77" height="10.77"/>
		<polyline points="4.82,114.61 14.74,114.61 14.74,122.07 4.82,122.07 		"/>
		<polyline points="4.82,121.79 11.45,121.79 11.45,134.32 4.82,134.32 		"/>
		<polyline points="1.75,124.32 8.38,124.32 8.38,161.54 1.75,161.54 		"/>
		<rect x="219.23" y="213.96" width="18.63" height="5.91"/>
		<rect x="227.34" y="210.23" width="14.61" height="6.43"/>
		<rect x="236.18" y="206.05" width="10.75" height="6.6"/>
		<rect x="241.95" y="202.75" width="15.06" height="6.6"/>
		<rect x="241.11" y="131.66" width="5.66" height="4.03"/>
		<rect x="246.78" y="113.86" width="4.03" height="17.81"/>
		<rect x="224.67" y="108.2" width="24.12" height="5.66"/>
		<rect x="226.68" y="104.17" width="15.3" height="4.03"/>
		<rect x="211.16" y="100.93" width="18.55" height="12.93"/>
		<rect x="211.16" y="113.07" width="15.52" height="4.03"/>
		<rect x="211.16" y="116.3" width="8.99" height="4.03"/>
		<rect x="207.96" y="119.53" width="6.48" height="4.03"/>
		<rect x="201.49" y="100.93" width="9.67" height="22.63"/>
		<rect x="207.12" y="98.53" width="4.03" height="4.03"/>
		<rect x="195" y="98.87" width="6.49" height="21.45"/>
		<rect x="174.06" y="98.53" width="37.09" height="4.03"/>
		<rect x="189.38" y="102.56" width="5.63" height="14.53"/>
		<rect x="182.91" y="102.56" width="6.47" height="5.63"/>
		<rect x="174.06" y="100.93" width="9.45" height="4.03"/>
		<rect x="161.83" y="96.05" width="16.16" height="5.69"/>
		<rect x="161.83" y="101.74" width="4.03" height="6.45"/>
		<rect x="158.58" y="107.42" width="4.28" height="19.41"/>
		<rect x="161.86" y="125.19" width="7.29" height="4.03"/>
		<rect x="167.56" y="128.44" width="4.03" height="7.24"/>
		<rect x="241.09" y="155.94" width="4.03" height="4.03"/>
		<rect x="237.92" y="152.7" width="4.03" height="4.03"/>
		<rect x="234.62" y="150.26" width="4.03" height="4.03"/>
		<rect x="203.91" y="134.91" width="4.03" height="4.03"/>
		<rect x="201.48" y="138.13" width="9.74" height="6.46"/>
		<rect x="201.48" y="144.29" width="6.45" height="4.03"/>
		<rect x="201.48" y="147.04" width="9.69" height="4.03"/>
		<rect x="201.48" y="150.25" width="12.96" height="4.03"/>
		<rect x="201.48" y="155.94" width="18.62" height="19.41"/>
		<rect x="206.32" y="153.47" width="11.34" height="4.03"/>
		<rect x="198.25" y="144.29" width="5.09" height="18.94"/>
		<rect x="192.61" y="144.29" width="5.64" height="4.03"/>
		<rect x="198.25" y="141.4" width="4.03" height="4.03"/>
		<rect x="191.79" y="134.11" width="4.03" height="4.03"/>
		<rect x="191.79" y="137.37" width="7.36" height="4.03"/>
		<rect x="189.38" y="138.13" width="7.76" height="6.46"/>
		<rect x="182.92" y="147.04" width="15.34" height="12.95"/>
		<rect x="173.2" y="150.25" width="13.77" height="12.98"/>
		<rect x="198.78" y="168.83" width="18.88" height="12.94"/>
		<rect x="192.45" y="171.26" width="18.72" height="13.67"/>
		<rect x="186.2" y="168.07" width="9.61" height="4.03"/>
		<rect x="174" y="183.36" width="34.73" height="4.03"/>
		<rect x="186.2" y="171.2" width="3.1" height="3.36"/>
		<rect x="182.92" y="171.32" width="4.03" height="16.06"/>
		<rect x="179.64" y="180.91" width="4.03" height="4.03"/>
		<rect x="174" y="187.38" width="28.3" height="6.48"/>
		<rect x="174" y="193.11" width="21.81" height="4.03"/>
		<rect x="174" y="195.66" width="16.16" height="4.03"/>
		<rect x="174" y="198.8" width="10.5" height="4.03"/>
		<rect x="174" y="202" width="4.03" height="4.03"/>
		<rect x="158.62" y="186.6" width="15.6" height="19.43"/>
		<rect x="167.5" y="153.52" width="12.89" height="12.89"/>
		<rect x="176.37" y="166.45" width="4.03" height="4.03"/>
		<rect x="176.37" y="162.99" width="4.23" height="12.29"/>
		<rect x="173.95" y="171.26" width="4.23" height="10.55"/>
		<rect x="169.13" y="172.77" transform="matrix(6.123234e-17 -1 1 6.123234e-17 -8.4612 350.9476)" width="4.23" height="13.87"/>
		<rect x="161.88" y="174.56" width="6.45" height="3.99"/>
		<rect x="155.42" y="155.94" width="16.14" height="13.71"/>
		<rect x="131.18" y="168.94" width="34.71" height="6.35"/>
		<rect x="135.16" y="158.98" width="20.36" height="8.48"/>
		<rect x="131.18" y="158.98" width="6.45" height="16.31"/>
		<rect x="155.39" y="189.87" width="6.45" height="3.99"/>
		<rect x="132.09" y="193.13" width="36.53" height="17.04"/>
		<rect x="140.81" y="207.78" width="18.65" height="3.99"/>
		<rect x="146.5" y="186.6" width="3.37" height="6.52"/>
		<rect x="149.71" y="180.93" width="3.61" height="9.95"/>
		<rect x="152.66" y="180.93" width="6.82" height="3.24"/>
		<rect x="155.4" y="183.36" width="7.33" height="4.19"/>
		<rect x="146.5" y="175.29" width="3.24" height="3.24"/>
		<rect x="143.28" y="177.69" width="6.47" height="3.24"/>
		<rect x="137.64" y="180.93" width="8.88" height="3.24"/>
		<rect x="134.41" y="177.69" width="6.47" height="4.13"/>
		<rect x="134.41" y="174.56" width="3.24" height="3.24"/>
		<rect x="127.96" y="156.67" width="7.27" height="15.44"/>
		<rect x="122.85" y="156.67" width="5.12" height="12.95"/>
		<rect x="118.98" y="153.43" width="6.78" height="16.19"/>
		<rect x="118.98" y="169.62" width="4.11" height="5.67"/>
		<rect x="115.73" y="171.27" width="4.04" height="7.24"/>
		<rect x="110.11" y="174.56" width="8.87" height="3.97"/>
		<rect x="106.01" y="171.24" width="6.53" height="4.05"/>
		<rect x="106.01" y="159.19" width="4.1" height="12.05"/>
		<rect x="112.54" y="151.05" width="6.44" height="15.39"/>
		<rect x="110.11" y="147.81" width="3.24" height="15.41"/>
		<rect x="118.98" y="177.53" width="9.99" height="3.51"/>
		<rect x="125.46" y="180.93" width="6.46" height="3.37"/>
		<rect x="128.72" y="184.18" width="3.24" height="8.95"/>
		<rect x="115.73" y="180.93" width="6.51" height="3.37"/>
		<rect x="112.49" y="184.21" width="6.48" height="2.47"/>
		<rect x="125.46" y="193.13" width="15.35" height="3.24"/>
		<rect x="112.49" y="186.68" width="4.07" height="6.96"/>
		<rect x="114.14" y="189.89" width="9.83" height="3.75"/>
		<rect x="121.26" y="191.51" width="4.34" height="4.86"/>
		<rect x="131.93" y="193.87" width="8.87" height="16.3"/>
		<rect x="123.05" y="193.13" width="8.91" height="15.36"/>
		<rect x="112.49" y="193.64" width="10.7" height="14.15"/>
		<rect x="106.07" y="186.68" width="6.42" height="19.4"/>
		<rect x="97.16" y="184.21" width="10.54" height="3.24"/>
		<rect x="97.16" y="187.45" width="8.91" height="15.4"/>
		<rect x="97.16" y="177.77" width="4.07" height="6.48"/>
		<rect x="97.98" y="175.29" width="6.44" height="3.24"/>
		<rect x="101.2" y="166.44" width="3.24" height="8.92"/>
		<rect x="94.52" y="166.37" width="9.9" height="2.46"/>
		<rect x="89.09" y="168.85" width="8.89" height="3.24"/>
		<rect x="91.5" y="177.77" width="5.66" height="22.61"/>
		<rect x="88.26" y="177.77" width="3.24" height="19.42"/>
		<rect x="85.02" y="177.77" width="3.24" height="16.17"/>
		<rect x="81.78" y="177.77" width="3.24" height="12.92"/>
		<rect x="75.39" y="177.4" width="6.39" height="10.06"/>
		<rect x="72.94" y="177.4" width="2.44" height="7.64"/>
		<rect x="69.7" y="177.4" width="3.24" height="4.38"/>
		<rect x="67.21" y="175.29" width="25.08" height="3.24"/>
		<rect x="89.09" y="168.85" width="3.2" height="9.31"/>
		<rect x="67.21" y="172.05" width="21.88" height="3.24"/>
		<rect x="63.97" y="172.9" width="3.24" height="3.24"/>
		<rect x="60.74" y="168.85" width="25.42" height="3.24"/>
		<rect x="60.74" y="169.66" width="3.98" height="3.24"/>
		<rect x="57.5" y="165.61" width="25.16" height="4.05"/>
		<rect x="79.41" y="165.61" width="3.24" height="3.24"/>
		<rect x="76.16" y="162.37" width="3.24" height="4.01"/>
		<rect x="57.5" y="162.37" width="18.66" height="4.35"/>
		<rect x="54.26" y="159.13" width="21.91" height="3.24"/>
		<rect x="54.26" y="159.93" width="11.69" height="3.24"/>
		<rect x="54.26" y="147.02" width="18.65" height="12.11"/>
		<rect x="72.9" y="147.02" width="4.07" height="7.32"/>
		<rect x="57.49" y="141.35" width="19.48" height="5.67"/>
		<rect x="60.78" y="138.11" width="16.19" height="3.24"/>
		<rect x="67.25" y="134.87" width="9.72" height="3.24"/>
		<rect x="76.97" y="134.87" width="18.65" height="16.16"/>
		<rect x="84.89" y="150.25" width="4.2" height="12.95"/>
		<rect x="87.98" y="159.13" width="10" height="4.08"/>
		<rect x="93.84" y="156.73" width="16.27" height="3.24"/>
		<rect x="91.36" y="151.02" width="7.6" height="3.38"/>
		<rect x="97.98" y="154.29" width="12.13" height="3.24"/>
		<rect x="97.98" y="144.59" width="12.13" height="9.81"/>
		<rect x="95.62" y="141.33" width="8.98" height="9.7"/>
		<rect x="95.62" y="137.32" width="3.24" height="4.01"/>
		<rect x="79.25" y="131.76" width="9.87" height="3.24"/>
		<rect x="76.13" y="129.21" width="16.23" height="3.29"/>
		<rect x="73.73" y="125.97" width="21.05" height="3.24"/>
		<rect x="85.87" y="122.73" width="8.91" height="3.24"/>
		<rect x="73.73" y="122.73" width="8.99" height="3.4"/>
		<rect x="88.29" y="119.49" width="4.07" height="3.24"/>
		<rect x="91.52" y="116.31" width="7.25" height="4.04"/>
		<rect x="97.15" y="119.49" width="4.09" height="7.31"/>
		<rect x="100.4" y="125.18" width="7.32" height="4.03"/>
		<rect x="106.83" y="128.41" width="7.31" height="4.09"/>
		<rect x="106.83" y="132.34" width="4.09" height="3.43"/>
		<rect x="110.11" y="134.87" width="4.03" height="4.03"/>
		<rect x="112.54" y="138.14" width="4.03" height="4.03"/>
		<rect x="115.76" y="140.53" width="4.2" height="4.03"/>
		<rect x="118.98" y="143.77" width="4.25" height="4.03"/>
		<rect x="122.13" y="147.02" width="4.25" height="4.03"/>
		<rect x="112.54" y="126.01" width="7.42" height="3.21"/>
		<rect x="118.92" y="122.77" width="4.25" height="4.03"/>
		<rect x="121.42" y="119.53" width="4.84" height="4.03"/>
		<rect x="124.62" y="116.29" width="4.25" height="4.03"/>
		<rect x="127.83" y="113.09" width="4.25" height="4.03"/>
		<rect x="131" y="99.29" width="4.25" height="15.36"/>
		<rect x="118.97" y="94.45" width="16.28" height="4.84"/>
		<rect x="118.97" y="92.01" width="13.12" height="4.03"/>
		<rect x="100.4" y="88.82" width="21.02" height="8.09"/>
		<rect x="19.89" y="88.97" width="6.56" height="10.97"/>
		<rect x="76.13" y="113.06" width="19.5" height="4.03"/>
		<rect x="76.1" y="116.78" width="4.25" height="6.88"/>
		<rect x="69.64" y="116.32" width="7.2" height="4.04"/>
		<rect x="60.78" y="119.49" width="10.54" height="4.16"/>
		<rect x="57.59" y="113.06" width="4.85" height="7.3"/>
		<rect x="51.87" y="110.65" width="6.55" height="4.04"/>
		<rect x="48.63" y="95.26" width="4.2" height="16.21"/>
		<rect x="51.8" y="82.35" width="4.34" height="13.7"/>
		<rect x="56.14" y="82.35" width="11.96" height="7.22"/>
		<rect x="63.89" y="85.57" width="37.63" height="7.3"/>
		<rect x="72.94" y="91.55" width="28.2" height="7"/>
		<rect x="76.1" y="97.75" width="25.04" height="4.04"/>
		<rect x="78.58" y="100.92" width="22.94" height="4.04"/>
		<rect x="60.78" y="122.09" width="4.2" height="4.77"/>
		<rect x="57.59" y="125.21" width="4.2" height="4.04"/>
		<rect x="51.87" y="128.3" width="6.55" height="4.21"/>
		<rect x="45.33" y="131.36" width="7.51" height="4.31"/>
		<rect x="38.89" y="134.87" width="7.39" height="4.04"/>
		<polyline points="90.73,56.43 90.73,63.67 67.26,63.67 67.26,56.43 		"/>
		<polyline points="169.98,57.2 169.98,64.65 143.28,64.65 143.28,57.2 		"/>
		<polyline points="174.79,59.7 174.79,67.13 159.41,67.13 159.41,59.7 		"/>
		<rect x="165.95" y="64.65" width="8.84" height="5.67"/>
		<rect x="172.78" y="64.3" width="17.59" height="9.1"/>
		<rect x="187.63" y="67.49" width="9.7" height="8.8"/>
		<rect x="192.6" y="69.95" width="19.17" height="6.33"/>
		<rect x="207.12" y="73.4" width="7.56" height="8.98"/>
		<rect x="214.69" y="76.52" width="12.69" height="5.87"/>
		<rect x="217.62" y="79.9" width="13.26" height="5.75"/>
		<rect x="229.02" y="81.96" width="11.38" height="5.2"/>
		<rect x="234.57" y="84.56" width="11.67" height="6.05"/>
		<rect x="241.81" y="87.16" width="9.92" height="10.53"/>
		<polyline points="285.6,158.74 279.1,158.74 279.1,117.89 285.6,117.89 		"/>
		<rect x="167.5" y="147.01" width="4.04" height="4.04"/>
		<rect x="170.77" y="143.8" width="4.02" height="4.02"/>
		<rect x="173.2" y="140.56" width="4.03" height="4.03"/>
		<rect x="176.38" y="138.13" width="4.09" height="4.03"/>
		<rect x="179.69" y="134.9" width="4.09" height="4.03"/>
		<rect x="173.96" y="134.9" width="4.09" height="4.03"/>
		<rect x="170.73" y="134.9" width="4.09" height="4.03"/>
		<rect x="182.89" y="131.67" width="4.09" height="4.03"/>
		<rect x="185.26" y="131.67" width="4.09" height="4.03"/>
		<rect x="189.35" y="128.44" width="4.09" height="4.03"/>
		<rect x="193.28" y="128.44" width="4.09" height="4.03"/>
		<rect x="197.14" y="128.44" width="4.09" height="4.03"/>
		<rect x="200.95" y="128.44" width="4.09" height="4.03"/>
		<rect x="203.87" y="128.44" width="4.09" height="4.03"/>
		<rect x="207.16" y="131.68" width="4.09" height="4.03"/>
		<rect x="211.02" y="131.68" width="4.09" height="4.03"/>
		<rect x="212.74" y="131.68" width="4.09" height="4.03"/>
		<rect x="213.64" y="134.91" width="4.09" height="4.03"/>
		<rect x="215.99" y="134.91" width="4.09" height="4.03"/>
		<rect x="219.23" y="138.13" width="7.3" height="4.03"/>
		<rect x="225.77" y="140.56" width="12.88" height="4.82"/>
		<rect x="228.16" y="144.62" width="4.03" height="4.03"/>
		<rect x="231.4" y="147.02" width="4.16" height="4.03"/>
		<rect x="237.9" y="134.9" width="4.03" height="7.29"/>
		<polyline points="287.96,162.24 280.62,162.24 280.62,139.59 287.96,139.59 		"/>
		<polyline points="284.37,173.7 276.86,173.7 276.86,157.5 284.37,157.5 		"/>
		<rect x="274.36" y="166.26" width="5.61" height="14.03"/>
		<rect x="271.13" y="172.94" width="5.74" height="14.44"/>
		<rect x="264.7" y="184.85" width="6.42" height="10.82"/>
		<rect x="257.01" y="191.39" width="7.7" height="9.8"/>
		<rect x="253.23" y="197.06" width="8.09" height="9.8"/>
		<rect x="133.61" y="164.08" width="28.26" height="6.35"/>
		<rect x="203.1" y="151.46" width="3.21" height="10.56"/>
		<rect x="195.76" y="139.31" width="3.21" height="10.56"/>
		<rect x="64.33" y="164.38" width="3.21" height="10.56"/>
		<rect x="182.89" y="177.59" width="17.37" height="6.98"/>
		<polyline points="75.37,60.94 75.37,66.4 57.23,66.4 57.23,60.94 		"/>
		<polyline points="146.08,54.25 146.08,61.33 75.19,61.33 75.19,54.25 		"/>
		<rect x="22.81" y="85.97" width="6.56" height="8.06"/>
		<rect x="26.09" y="83.19" width="8.87" height="6.45"/>
		<rect x="99.56" y="90" width="6.54" height="11.41"/>
		<rect x="245.12" y="92.43" width="16.16" height="8.5"/>
		<polyline points="276.07,119.17 268.6,119.17 268.6,105.37 276.07,105.37 		"/>
		<rect x="82.53" y="101.1" width="12.19" height="6.25"/>
		<rect x="201.59" y="218.37" width="24.94" height="3.77"/>
		<rect x="169.91" y="221.5" width="44.36" height="3.77"/>
		<rect x="169.91" y="224.23" width="38.02" height="3.77"/>
		<rect x="127.51" y="218.95" width="46.7" height="6.31"/>
		<rect x="111.81" y="215.8" width="21.32" height="6.31"/>
		<rect x="99.7" y="212.74" width="16.06" height="5.79"/>
		<rect x="81.09" y="209.84" width="20.43" height="5.79"/>
		<rect x="74.8" y="206.35" width="9.45" height="5.79"/>
		<rect x="66.05" y="203.46" width="12.53" height="5.79"/>
		<rect x="53.42" y="200.37" width="16.22" height="5.98"/>
		<rect x="48.03" y="198.8" width="16.22" height="4.56"/>
		<rect x="44.35" y="194.15" width="11.78" height="5.98"/>
		<rect x="38.17" y="190.95" width="12.37" height="5.98"/>
		<rect x="31.98" y="187.89" width="12.37" height="5.98"/>
		<rect x="29.38" y="184.9" width="8.79" height="5.98"/>
		<rect x="24.81" y="181.58" width="10.11" height="5.98"/>
		<rect x="19.63" y="179.58" width="10.36" height="5.32"/>
		<rect x="15.74" y="176.56" width="10.36" height="5.33"/>
		<rect x="10.49" y="172.77" width="12.96" height="5.74"/>
		<rect x="6.41" y="166.27" width="9.9" height="6.63"/>
		<rect x="3.97" y="158.24" width="6.52" height="11.35"/>
		<rect x="94.52" y="166.44" width="3.46" height="5.66"/>
	</g>
</g>
<g id="archives">
	<g id="full_background_2_">
		<path class="st2" d="M211.8,71.72c-83.88-1.36-145.04-1.98-154.03-1.77C48.08,70.18,46,70.33,46,70.33
			c-6.21,0.47-8.18,1.05-12.67,0.67c-3.03-0.26-3.01-0.6-8-1.17c-5.02-0.57-7.58-0.84-9.83-0.17c-1.57,0.47-4.52,1.7-7.33,5.5
			c-0.55,0.72-1.26,1.8-1.77,3.22c-1.41,4-0.14,7.77,0,8.28c1.12,4,1.39,52.3,0,179.67c68.47,0,136.93,0,205.4,0
			c-1.33-62.19-1.4-124.92-0.13-188.17C211.71,76.02,211.75,73.87,211.8,71.72z"/>
		<rect x="121.33" y="16.96" class="st2" width="136.86" height="196.44"/>
	</g>
	<g id="smiley__x2B__metal_background" class="st0">
		<path class="st3" d="M151.6,209.2c0.09,2.88-0.03,2.05,0.07,6.46c0.15,7.2,0.42,7.67,0,9.67c-0.33,1.58-1.1,5.27-4,8.17
			c-1.59,1.58-2.55,1.67-4.14,3.74c-1.57,2.04-1.26,2.79-2.69,4.43c-1.84,2.12-4.17,2.97-5.27,3.38c-3.59,1.31-4.89,0.21-7.06,1.79
			c-1.69,1.23-1.26,2.17-2.83,3.17c-1.99,1.26-4.09,0.67-7.17,0.33c-3.9-0.43-2.95,0.24-9.4,0c-1.67-0.06-4.33-0.2-15.7-1.77
			c-7.1-0.98-10.67-1.48-11.73-2.07c-4.29-2.4-6.73-6.49-10.02-12.05c-1.65-2.79-2.65-4.46-3.56-6.97
			c-2.29-6.3-0.54-8.15-1.49-18.27c-0.78-8.31-2.45-12.41,0.07-14.87c0.78-0.76,2.17-1.58,3.67-3.67c1.22-1.71,1.76-3.22,1.99-3.84
			c0.72-1.91,4.98-13.18,11.34-14.33c2.49-0.45,3.82,0.92,6.17-0.33c1.78-0.95,1.82-2.18,3.67-3.17c1.88-1.01,3.59-0.67,6-0.5
			c3.2,0.22,6.4-0.31,9.6-0.43c10.73-0.41,13.62-0.74,15.52,1.26c0.53,0.56,1.02,1.34,2.22,2c1.62,0.9,2.76,0.58,4.9,1.14
			c1.17,0.31,2.02,0.75,3.72,1.64c3.69,1.94,5.79,3.04,7.23,5.3c1.29,2.03,0.57,2.67,2.16,4.75c1.27,1.66,2.1,1.73,2.83,3.33
			c0.61,1.33,0.3,1.86,0.83,4c0.45,1.79,1.03,2.89,1.4,3.74C151.26,198.32,151.38,201.95,151.6,209.2z"/>
		<path class="st3" d="M159.67,127.33c-0.94,0.63-2.41,1.5-4.33,2.17c-5.84,2.02-11.14,0.55-13.5,0c-11.7-2.74-13.02,2.51-33.5,1
			c-2.77-0.2-6.93-0.61-14-1c-5.56-0.31-8.38-0.46-10.67-0.33C74.82,129.65,70,130.5,70,130.5c-2.42,0.43-4.56,0.92-6.83-0.17
			c-1.9-0.91-3.03-2.5-3.67-3.66c-0.82-0.61-1.96-1.63-2.83-3.18c-1.47-2.63-1.28-5.25-1.17-7.17c0.22-3.88-0.28-7.8,0.17-11.67
			c0.56-4.82,0.96-14.32,0.33-34.72c35.53,0,71.07,0,106.6,0c0.44,20.68,0.52,36.24,0.57,42.88c0.01,1.69,0.04,5.48-1.5,10
			C160.98,124.84,160.19,126.39,159.67,127.33z"/>
		<path class="st3" d="M233.33,69.95L233.33,69.95c-3.97,0.99-4.33,1.55-4.33,1.55c-0.98,1.5,1.41,3.37,0.67,4.83
			c-0.98,1.92-5.41-0.73-13,0.5c-1.97,0.32-4.13,0.9-5.67-0.33c-0.91-0.72-0.88-1.5-1.83-2.83c-1.31-1.84-3.03-2.69-4.33-3.33
			c-2.76-1.36-5.15-1.07-11.5-0.83c-10.03,0.37-9.01-0.19-13.33,0.33c-3.17,0.38-5.24,0.86-9.13,0.85c-2.03-0.01-2.8-0.18-5.72-0.32
			c-5.56-0.28-8.38-0.42-10.67-0.3c-8.85,0.44-13.67,1.21-13.67,1.21c-1.89,0.15-4.21,0.17-6.83-0.15c-2.14-0.26-4.01-0.7-5.58-1.17
			c-0.22-1.18-0.54-2.93-0.92-5.03c-0.72-3.94-1.2-5.91-1.17-6.51c0.22-3.53-0.28-7.09,0.17-10.59c0.56-4.38,0.96-13,0.33-31.53
			c35.53,0,71.07,0,106.6,0c-0.62,25.5-0.1,35.14,0.57,38.94c0.17,0.96,0.9,4.72,0.36,9.6C234.08,67.11,233.62,68.92,233.33,69.95z"
			/>
	</g>
	<g id="icon_2_">
		<rect x="4.63" y="75.17" width="3.53" height="191.17"/>
		<rect x="210.03" y="75.17" width="3.53" height="191.17"/>
		
			<rect x="107.33" y="-27.53" transform="matrix(-1.836970e-16 1 -1 -1.836970e-16 179.0502 -39.1502)" width="3.53" height="194.97"/>
		<rect x="107.33" y="167.17" transform="matrix(-1.836970e-16 1 -1 -1.836970e-16 377.2 158.9996)" width="3.53" height="201.87"/>
		<rect x="107.53" y="82.07" transform="matrix(-1.836970e-16 1 -1 -1.836970e-16 239.4502 20.8498)" width="3.53" height="96.17"/>
		
			<rect x="107.33" y="82.27" transform="matrix(-1.836970e-16 1 -1 -1.836970e-16 260.6502 42.4498)" width="3.53" height="138.57"/>
		<rect x="32.83" y="156.57" width="3.53" height="111.53"/>
		<rect x="181.83" y="156.57" width="3.53" height="111.53"/>
		<rect x="54.23" y="69.95" width="3.53" height="55"/>
		<rect x="160.83" y="69.95" width="3.53" height="55"/>
		<rect x="128.4" y="82.35" width="3.53" height="35.45"/>
		<rect x="146.5" y="82.35" width="3.53" height="35.45"/>
		<rect x="137.45" y="73.3" transform="matrix(-1.836970e-16 1 -1 -1.836970e-16 223.3326 -55.0996)" width="3.53" height="21.64"/>
		
			<rect x="137.45" y="105.22" transform="matrix(-1.836970e-16 1 -1 -1.836970e-16 255.2528 -23.1795)" width="3.53" height="21.64"/>
		
			<rect x="178.34" y="-80.61" transform="matrix(-1.836970e-16 1 -1 -1.836970e-16 196.7914 -163.4254)" width="3.53" height="194.58"/>
		<rect x="74.89" y="22.15" width="53.51" height="47.8"/>
		<rect x="79.29" y="18.45" width="49.11" height="38.55"/>
		<rect x="231.44" y="18.45" width="49.96" height="38.55"/>
		<rect x="231.44" y="22.15" width="53.51" height="77.93"/>
		<rect x="199.22" y="29.08" width="3.53" height="35.45"/>
		<rect x="217.32" y="29.08" width="3.53" height="35.45"/>
		
			<rect x="208.27" y="20.03" transform="matrix(-1.836970e-16 1 -1 -1.836970e-16 240.8817 -179.1857)" width="3.53" height="21.64"/>
		
			<rect x="208.27" y="51.95" transform="matrix(-1.836970e-16 1 -1 -1.836970e-16 272.8018 -147.2655)" width="3.53" height="21.64"/>
		<rect x="210.03" y="75.17" width="74.91" height="24.91"/>
		<rect x="227.63" y="69.95" width="57.31" height="26.62"/>
		
			<rect x="206.58" y="135.17" transform="matrix(-1.836970e-16 1 -1 -1.836970e-16 419.9799 -117.4331)" width="124.25" height="32.21"/>
		<rect x="249.2" y="79.2" width="35.2" height="24"/>
		
			<rect x="243.95" y="179.48" transform="matrix(-1.836970e-16 1 -1 -1.836970e-16 460.8826 -30.5496)" width="3.53" height="71.36"/>
		<rect x="8.17" y="71.72" width="3.45" height="3.45"/>
		<rect x="206.58" y="71.72" width="3.45" height="3.45"/>
		<rect x="157.38" y="124.93" width="3.45" height="3.45"/>
		<rect x="57.77" y="124.95" width="3.45" height="3.45"/>
		<rect x="36.37" y="153.32" width="3.45" height="3.25"/>
		<rect x="178.38" y="153.32" width="3.45" height="3.25"/>
		<rect x="64.83" y="192.08" width="3.53" height="38.93"/>
		<rect x="149.83" y="192.08" width="3.53" height="38.93"/>
		
			<rect x="106.97" y="149.47" transform="matrix(-1.836970e-16 1 -1 -1.836970e-16 277.6712 60.2013)" width="3.53" height="38.93"/>
		
			<rect x="107.31" y="231.21" transform="matrix(-1.836970e-16 1 -1 -1.836970e-16 359.4104 141.262)" width="3.53" height="38.25"/>
		
			<rect x="130.08" y="239.8" transform="matrix(-1.836970e-16 1 -1 -1.836970e-16 378.6471 114.9594)" width="3.53" height="14.01"/>
		
			<rect x="84.04" y="239.21" transform="matrix(-1.836970e-16 1 -1 -1.836970e-16 332.6142 160.9923)" width="3.53" height="15.18"/>
		<rect x="121.33" y="192.08" width="6.87" height="6.87"/>
		<rect x="89.58" y="192.08" width="6.87" height="6.87"/>
		<rect x="124.62" y="167.17" width="3.45" height="6.94"/>
		<rect x="89.27" y="167.23" width="3.45" height="6.94"/>
		
			<rect x="129.97" y="165.35" transform="matrix(-1.836970e-16 1 -1 -1.836970e-16 304.2033 40.7352)" width="3.53" height="14.23"/>
		<rect x="135.45" y="170.7" width="3.45" height="6.94"/>
		<rect x="137.24" y="172.32" transform="matrix(-1.836970e-16 1 -1 -1.836970e-16 314.8899 36.8676)" width="3.53" height="7.12"/>
		<rect x="139.12" y="174.17" width="3.45" height="6.94"/>
		<rect x="142.79" y="178.43" width="3.45" height="9.9"/>
		<rect x="140.91" y="175.85" transform="matrix(-1.836970e-16 1 -1 -1.836970e-16 322.0899 36.7335)" width="3.53" height="7.12"/>
		<rect x="144.58" y="183.01" transform="matrix(-1.836970e-16 1 -1 -1.836970e-16 332.9097 40.2193)" width="3.53" height="7.12"/>
		<rect x="146.45" y="184.8" width="3.45" height="10.44"/>
		<rect x="148.16" y="190.25" transform="matrix(-1.836970e-16 1 -1 -1.836970e-16 343.6403 43.7943)" width="3.53" height="6.94"/>
		<rect x="83.81" y="165.26" transform="matrix(-1.836970e-16 1 -1 -1.836970e-16 257.981 86.7723)" width="3.59" height="14.23"/>
		<rect x="78.49" y="170.64" width="3.45" height="6.94"/>
		<rect x="76.99" y="172.32" transform="matrix(-1.836970e-16 1 -1 -1.836970e-16 254.6399 97.1176)" width="3.53" height="7.12"/>
		<rect x="75.2" y="174.17" width="3.45" height="6.94"/>
		<rect x="73.44" y="175.85" transform="matrix(-1.836970e-16 1 -1 -1.836970e-16 254.6143 104.2092)" width="3.53" height="7.12"/>
		<rect x="71.64" y="177.65" width="3.45" height="10.69"/>
		<rect x="69.82" y="183.13" transform="matrix(-1.836970e-16 1 -1 -1.836970e-16 258.2208 115.0414)" width="3.53" height="7.01"/>
		<rect x="68.09" y="184.86" width="3.45" height="10.38"/>
		<rect x="66.41" y="190.49" transform="matrix(-1.836970e-16 1 -1 -1.836970e-16 262.0222 125.6787)" width="3.53" height="6.73"/>
		<rect x="66.41" y="225.88" transform="matrix(-1.836970e-16 1 -1 -1.836970e-16 297.4164 161.0729)" width="3.53" height="6.73"/>
		<rect x="148.07" y="225.88" transform="matrix(-1.836970e-16 1 -1 -1.836970e-16 379.0783 79.411)" width="3.53" height="6.73"/>
		<rect x="146.45" y="227.48" width="3.45" height="10.44"/>
		<rect x="144.58" y="232.6" transform="matrix(-1.836970e-16 1 -1 -1.836970e-16 382.5005 89.8101)" width="3.53" height="7.12"/>
		<rect x="142.79" y="234.39" width="3.45" height="7.18"/>
		<rect x="140.8" y="236.19" transform="matrix(-1.836970e-16 1 -1 -1.836970e-16 382.3164 97.1769)" width="3.53" height="7.12"/>
		<rect x="138.9" y="237.98" width="3.45" height="7.06"/>
		<rect x="124.84" y="245.04" width="3.45" height="7.06"/>
		<rect x="89.95" y="245.04" width="3.45" height="7.06"/>
		<rect x="76.99" y="239.72" transform="matrix(-1.836970e-16 1 -1 -1.836970e-16 322.0384 164.5161)" width="3.53" height="7.12"/>
		<rect x="135.45" y="241.51" width="3.45" height="7.06"/>
		
			<rect x="137.35" y="239.72" transform="matrix(-1.836970e-16 1 -1 -1.836970e-16 382.3969 104.1577)" width="3.53" height="7.12"/>
		<rect x="75.2" y="237.98" width="3.45" height="7.06"/>
		<rect x="73.44" y="236.13" transform="matrix(-1.836970e-16 1 -1 -1.836970e-16 314.8908 164.4857)" width="3.53" height="7.12"/>
		<rect x="71.64" y="234.45" width="3.45" height="7.06"/>
		<rect x="69.96" y="232.6" transform="matrix(-1.836970e-16 1 -1 -1.836970e-16 307.8857 164.4249)" width="3.53" height="7.12"/>
		<rect x="68.09" y="227.48" width="3.45" height="10.39"/>
		<rect x="82.72" y="213.4" width="3.19" height="3.19"/>
		<rect x="132.28" y="213.4" width="3.19" height="3.19"/>
		<rect x="85.9" y="216.58" width="3.19" height="7.2"/>
		<rect x="129.09" y="216.58" width="3.19" height="7.2"/>
		<rect x="89.09" y="223.79" width="3.19" height="3.19"/>
		<rect x="92.27" y="226.97" width="3.19" height="3.19"/>
		<rect x="125.91" y="223.79" width="3.19" height="3.19"/>
		<rect x="122.72" y="226.97" width="3.19" height="3.19"/>
		<rect x="95.46" y="230.16" width="3.19" height="3.19"/>
		<rect x="119.53" y="230.16" width="3.19" height="3.19"/>
		<rect x="98.65" y="233.34" width="20.89" height="3.19"/>
	</g>
</g>
</svg>
