<svg id="schedule" xmlns="http://www.w3.org/2000/svg" viewBox="0 0 289 285"><defs><style>.cls-1{fill:#fff;}</style></defs><title>Artboard 1</title><g id="time"><g id="full_background" data-name="full background"><path class="cls-1" d="M251.33,245.55a4.4,4.4,0,0,0-1.64,1.25c-1.07,1.34-.63,2.57-1.69,3.2a7.81,7.81,0,0,1-1.78.77.9.9,0,0,0-.52.21c-.1.1-.13.18-.29.36a2.12,2.12,0,0,1-.29.27,22,22,0,0,0-2.29,1.56,2.41,2.41,0,0,0-.79,1.07,2.15,2.15,0,0,1-.24.7c-.16.26-.26.28-.41.5s-.19.64-.3,1a2.23,2.23,0,0,1-.92,1.07c-1,.8-1.77.53-2.37,1.33a2.84,2.84,0,0,1-.39.5,2.11,2.11,0,0,1-1.24.5,3.4,3.4,0,0,1,.1.5,2.9,2.9,0,0,1-.1,1c-.31,1-2.33,1.63-3.25,1.92-1.28.4-1.84.41-2.09.92s.26.87,0,1.5-.63.69-2.32,1.69a12.09,12.09,0,0,0-1.51,1c-.86,1-.38,2-1.22,2.64-.62.49-1.22.24-1.45.7s.73,1.2.5,1.83-1,.45-2.21,1a8.16,8.16,0,0,0-2.34,1.65c-1.5,1.32-1.58,2-2.4,2.76-1.47,1.33-3.58,1.23-5.34,1.13-6.41-.38-9.62-.57-11.21-1-7-1.88-15.76.11-26.16.17-61.76.34-92.8.51-100.84,0-11-.7-18.86-1.62-30.16-.84-5.76.4-16.73,1.54-22.17,1-2.5-.24-4.46-.9-7.17,0-1.2.41-2.5,1.11-3.33.5s-.37-2-1.5-2.83c-.7-.54-1.34-.35-1.5-.83-.24-.74,1-2,1-2-.66-12.82-.17-15.67-.17-15.67a34.94,34.94,0,0,1,4-6.75c1.29-1.7,4.08-5,5.42-5.67a3,3,0,0,0,1.17-.91,3.17,3.17,0,0,0,.41-.84c.7-1.62,2.82-1.69,2.93-2.89,0-.36-.15-.5,0-.77.24-.48.9-.33,1.67-.67,1.12-.49.85-1.32,1.91-1.83s2.22-.06,2.34-.42-.36-.4-.5-.75c-.45-1.08,2-3.05,2.58-3.5,2.92-2.36,5.21-5.4,7.92-8,1-1,2.54-2.45,4.43-4.32a7.41,7.41,0,0,1,1.48-1.39c.05,0-.12.34-.12.33a3.24,3.24,0,0,1,.12-.33c.34-.87,2.69-1.57,2.71-1.5s-1.38.72-1.58.46.09-.55.38-.76a1.07,1.07,0,0,1,.36-.16c.65-.14,1.87-1.57,2.09-1.91,1.48-2.23.62-18.3.46-23.59-.08-2.67-.17-8.83-.17-8.83l3-4.57,2.67.4c5.32.8,8,1.2,10.22.14,2.7-1.28,4.75-4.48,4-6.09s-3.58-.75-5.43-3.26c-.8-1.08-.8-2-1.61-2.24-1.1-.4-2.51.7-3.6,1.78V26.75A13.05,13.05,0,0,0,64,25c2.21-1.33,2.86-2.69,5.48-5.75A69,69,0,0,1,76,12.66,41,41,0,0,1,83.17,7c4.58-2.56,9.19-2.4,14.46-2.08C108.74,5.6,115.27,6.55,120,7c10.43,1,7.78-.87,30.83-1,5.6,0,11.72,0,22.84-.17L181,5.67a124,124,0,0,1,19.83-.17c7.24.53,8.93,1.31,16.5,1.67a120,120,0,0,0,17.84-.34c10.17-1,15.06-2.89,21.5-.5,3.83,1.43,5.13,3.23,5.66,4.5.76,1.8.32,3.29,0,6a44.66,44.66,0,0,0,0,9.84c-.36,3.14-.81,7.88-.92,13.67a163.4,163.4,0,0,0,.78,18.32c.51,6.57.68,14.33,1,29.86s.51,23.4.12,29.81c-.33,5.44.31,11-.66,16.34a25.68,25.68,0,0,0,.16,12c.84,2.94,1.77,3.76,2.18,4.07,2.26,1.7,6.67,1.7,10,.43,1.07-.41,2.12-1,3-.5,1.18.65,1.67,3,1.67,3s1.11,3.76,1.5,6c.58,3.37-.17,5.24-.67,8.83-.15,1.11-.27,2.32,0,11.67.38,13,.57,19.46.78,21.16.83,6.89,2.07,11.44-.45,14.34-.57.66-1.81,1.78-3.81,4.18a36.75,36.75,0,0,1-2.85,3.48c-2.25,2.12-3.14,1.6-5,3.5s-1.06,2.38-3,4.36c-1.53,1.58-2.3,1.54-4.34,3.47a23.38,23.38,0,0,0-2.63,3A53.11,53.11,0,0,1,251.33,245.55Z"/></g><g id="keyboard"><rect x="196.71" y="247.03" width="12.54" height="3.95"/><rect x="204.08" y="243.08" width="7.68" height="3.95"/><rect x="209.25" y="239.67" width="8.65" height="4.24"/><rect x="214.83" y="235.87" width="9.63" height="3.95"/><rect x="220.46" y="230.61" width="7.95" height="3.95"/><rect x="217.94" y="233.15" width="9.06" height="3.99" transform="translate(457.61 12.67) rotate(90)"/><rect x="175.17" y="247.03" width="11.92" height="3.95"/><rect x="182.08" y="243.08" width="7.68" height="3.95"/><rect x="182.53" y="239.79" width="10.49" height="3.99" transform="translate(429.56 54.01) rotate(90)"/><rect x="185.78" y="236.54" width="11.52" height="3.95"/><rect x="191.76" y="234.95" width="7.1" height="3.99" transform="translate(432.25 41.63) rotate(90)"/><rect x="195.15" y="230.6" width="7.1" height="3.99" transform="translate(431.29 33.89) rotate(90)"/><rect x="193.32" y="232.45" width="7.38" height="4.24"/><rect x="205.94" y="241.5" width="7.65" height="3.99" transform="translate(453.26 33.73) rotate(90)"/><rect x="211.85" y="237.89" width="8.05" height="3.99" transform="translate(455.76 24.01) rotate(90)"/><rect x="146.49" y="247.03" width="11.92" height="3.95"/><rect x="153.9" y="243.08" width="7.68" height="3.95"/><rect x="154.41" y="239.87" width="10.36" height="3.99" transform="translate(401.46 82.28) rotate(90)"/><rect x="157.59" y="236.54" width="17.58" height="3.95"/><rect x="168.97" y="234.29" width="8.42" height="3.99" transform="translate(409.46 63.11) rotate(90)"/><rect x="171.33" y="232.07" width="8" height="3.95"/><rect x="128.17" y="247.03" width="10.48" height="3.95"/><rect x="133.38" y="245.71" width="6.56" height="3.99" transform="translate(384.36 111.05) rotate(90)"/><rect x="134.66" y="243.5" width="7.68" height="3.95"/><rect x="134.79" y="240" width="11.42" height="3.99" transform="translate(382.5 101.5) rotate(90)"/><rect x="138.51" y="235.86" width="10.68" height="3.95"/><rect x="145.82" y="227.96" width="11.92" height="3.95"/><rect x="141.78" y="231.37" width="10.82" height="3.99" transform="translate(380.56 86.17) rotate(90)"/><rect x="105.85" y="247.03" width="10.81" height="3.95"/><rect x="111.13" y="245.46" width="7.07" height="3.99" transform="translate(362.12 132.78) rotate(90)"/><rect x="112.67" y="243.91" width="7.57" height="3.95"/><rect x="112.54" y="240.16" width="11.42" height="3.99" transform="translate(360.4 123.91) rotate(90)"/><rect x="116.26" y="236.29" width="11.18" height="3.95"/><rect x="119.73" y="232.57" width="11.42" height="3.99" transform="translate(360.01 109.12) rotate(90)"/><rect x="123.45" y="228.64" width="7.68" height="3.95"/><rect x="79.48" y="247.03" width="14.75" height="3.95"/><rect x="87.05" y="243.81" width="10.36" height="3.99" transform="translate(338.04 153.57) rotate(90)"/><rect x="90.24" y="240.63" width="10.99" height="3.95"/><rect x="95.45" y="238.8" width="7.56" height="3.99" transform="translate(340.03 141.56) rotate(90)"/><rect x="97.24" y="233.24" width="11.8" height="3.95"/><rect x="103.26" y="231.37" width="7.56" height="3.99" transform="translate(340.41 126.32) rotate(90)"/><rect x="57.54" y="247.03" width="11.28" height="3.95"/><rect x="61.65" y="243.81" width="10.36" height="3.99" transform="translate(312.64 178.97) rotate(90)"/><rect x="64.84" y="239.89" width="15.1" height="3.95"/><rect x="72.31" y="236.22" width="11.25" height="3.99" transform="translate(316.16 160.28) rotate(90)"/><rect x="75.95" y="232.59" width="7.57" height="3.95"/><rect x="77.94" y="230.94" width="7.56" height="3.99" transform="translate(314.66 151.21) rotate(90)"/><rect x="35.38" y="247.03" width="11.28" height="3.95"/><rect x="39.23" y="243.48" width="10.83" height="3.99" transform="translate(290.11 200.83) rotate(90)"/><rect x="42.65" y="240.02" width="7.57" height="3.95"/><rect x="45.15" y="238.22" width="7.52" height="3.99" transform="translate(289.13 191.3) rotate(90)"/><rect x="50.89" y="232.59" width="10.42" height="3.95"/><rect x="55.84" y="230.85" width="7.39" height="3.99" transform="translate(292.38 173.31) rotate(90)"/></g><g id="_3" data-name="? 3"><rect x="184.63" y="106.25" width="7.28" height="7.28"/><rect x="184.63" y="91.5" width="7.28" height="10.97"/><rect x="188.27" y="87.86" width="7.28" height="7.28"/><rect x="195.55" y="84.22" width="7.28" height="7.28"/><rect x="199.19" y="73.25" width="7.28" height="14.61"/><rect x="184.63" y="69.47" width="18.2" height="7.28"/><rect x="180.98" y="73.11" width="7.28" height="10.83"/></g><g id="_2" data-name="? 2"><rect x="151.5" y="106.25" width="7.28" height="7.28"/><rect x="151.5" y="91.5" width="7.28" height="10.97"/><rect x="155.14" y="87.86" width="7.28" height="7.28"/><rect x="162.42" y="84.22" width="7.28" height="7.28"/><rect x="166.06" y="73.25" width="7.28" height="14.61"/><rect x="151.5" y="69.47" width="18.2" height="7.28"/><rect x="147.86" y="73.11" width="7.28" height="10.83"/></g><g id=":"><rect x="133.13" y="91.5" width="7.28" height="7.28"/><rect x="133.13" y="106.25" width="7.28" height="7.28"/></g><g id="_1" data-name="? 1"><rect x="105.06" y="106.25" width="7.28" height="7.28"/><rect x="105.06" y="91.5" width="7.28" height="10.97"/><rect x="108.7" y="87.86" width="7.28" height="7.28"/><rect x="115.98" y="84.22" width="7.28" height="7.28"/><rect x="119.62" y="73.25" width="7.28" height="14.61"/><rect x="105.06" y="69.47" width="18.2" height="7.28"/><rect x="101.42" y="73.11" width="7.28" height="10.83"/></g></g><g id="computer_screen" data-name="computer screen"><rect x="57.88" y="26.75" width="4.5" height="143.38"/><rect x="238.25" y="22.64" width="4.5" height="144.19"/><rect x="149.95" y="-65.66" width="4.5" height="181.1" transform="translate(177.09 -127.31) rotate(90)"/><rect x="147.86" y="83.18" width="4.48" height="176.92" transform="translate(321.74 21.54) rotate(90)"/><rect x="59.45" y="24.18" width="4.5" height="7.66" transform="translate(89.72 -33.69) rotate(90)"/><rect x="236.31" y="163.69" width="4.5" height="8.38" transform="translate(406.44 -70.69) rotate(90)"/><rect x="59.97" y="163.53" width="4.5" height="8.69" transform="translate(230.09 105.66) rotate(90)"/><rect x="162.85" y="90.44" width="114.21" height="7.83" transform="translate(314.31 -125.6) rotate(90)"/><rect x="80.25" y="143.63" width="143.63" height="7.83"/><rect x="80.25" y="37.25" width="143.08" height="7.83"/><rect x="27.06" y="90.44" width="114.21" height="7.83" transform="translate(178.52 10.19) rotate(90)"/><rect x="168" y="-83.87" width="4.5" height="180.01" transform="translate(176.39 -164.12) rotate(90)"/><rect x="260.26" y="8.39" width="4.5" height="143.69"/><rect x="65.53" y="19.25" width="3.95" height="3.95"/><rect x="69.48" y="15.25" width="3.95" height="3.95"/><rect x="73.44" y="11.3" width="3.95" height="3.95"/><rect x="77.39" y="7.34" width="3.95" height="3.95"/><rect x="246.7" y="14.73" width="3.95" height="3.95"/><rect x="242.75" y="18.68" width="3.95" height="3.95"/><rect x="250.66" y="10.89" width="3.95" height="3.95"/><rect x="254.61" y="7.07" width="3.95" height="3.95"/><rect x="65.22" y="169.39" width="177.53" height="10.08"/><rect x="246.7" y="162.22" width="3.95" height="3.95"/><polyline points="242.75 170.13 242.75 166.17 246.7 166.17 246.7 170.13"/><rect x="250.66" y="158.37" width="3.95" height="3.95"/><rect x="254.61" y="154.42" width="3.95" height="3.95"/><rect x="258.61" y="150.47" width="3.95" height="3.95"/><rect x="260.26" y="148" width="18.74" height="4.08"/><rect x="248.92" y="173.61" width="3.95" height="3.95"/><rect x="252.87" y="169.66" width="3.95" height="3.95"/><rect x="256.83" y="165.71" width="3.95" height="3.95"/><rect x="260.78" y="161.76" width="3.95" height="3.95"/><rect x="264.73" y="157.8" width="3.95" height="3.95"/><rect x="268.69" y="153.85" width="3.95" height="3.95"/><rect x="272.64" y="149.9" width="3.95" height="3.95"/><rect x="279" y="152.08" width="3.37" height="65.8"/><rect x="275.05" y="217.88" width="3.95" height="3.95"/><rect x="149.52" y="77.83" width="4.5" height="201.73" transform="translate(330.47 26.93) rotate(90)"/><rect x="248.92" y="173.89" width="3.95" height="73.36"/><rect x="271.09" y="221.83" width="3.95" height="3.95"/><rect x="267.14" y="225.78" width="3.95" height="3.95"/><rect x="263.19" y="229.73" width="3.95" height="3.95"/><rect x="259.23" y="233.69" width="3.95" height="3.95"/><rect x="255.28" y="237.64" width="3.95" height="3.95"/><rect x="251.33" y="241.59" width="3.95" height="3.95"/><rect x="245.55" y="247.25" width="3.95" height="3.95"/><rect x="241.6" y="251.2" width="3.95" height="3.95"/><rect x="237.64" y="255.16" width="3.95" height="3.95"/><rect x="233.69" y="259.11" width="3.95" height="3.95"/><rect x="229.74" y="263.06" width="3.95" height="3.95"/><rect x="225.78" y="267.02" width="3.95" height="3.95"/><rect x="221.83" y="270.97" width="3.95" height="3.95"/><rect x="217.88" y="274.92" width="3.95" height="3.95"/><rect x="245.55" y="228.44" width="3.95" height="3.95"/><rect x="241.6" y="232.39" width="3.95" height="3.95"/><rect x="237.64" y="236.34" width="3.95" height="3.95"/><rect x="234.03" y="240.27" width="3.95" height="3.95"/><rect x="230.07" y="244.23" width="3.95" height="3.95"/><rect x="226.12" y="248.18" width="3.95" height="3.95"/><rect x="222.17" y="252.13" width="3.95" height="3.95"/><rect x="218.21" y="256.09" width="3.95" height="3.95"/><rect x="216.19" y="258.4" width="3.37" height="21.97"/><rect x="6.63" y="254.78" width="3.37" height="22.22"/><rect x="109.72" y="151.68" width="3.37" height="209.56" transform="translate(367.87 145.05) rotate(90)"/><path d="M10,280.37V277H219.56v3.37H10Z"/><rect x="10" y="250.82" width="3.95" height="3.95"/><rect x="13.95" y="246.87" width="3.95" height="3.95"/><rect x="17.91" y="242.92" width="3.95" height="3.95"/><rect x="21.86" y="238.97" width="3.95" height="3.95"/><rect x="25.81" y="235.01" width="3.95" height="3.95"/><rect x="29.77" y="231.06" width="3.95" height="3.95"/><rect x="33.72" y="227.11" width="3.95" height="3.95"/><rect x="37.67" y="223.15" width="3.95" height="3.95"/><rect x="41.62" y="219.2" width="3.95" height="3.95"/><rect x="45.58" y="215.25" width="5.33" height="3.95"/><path d="M50.9,219.2H47V180.89H50.9V219.2Z"/><rect x="62.22" y="199.5" width="18.03" height="11.07"/><rect x="172.09" y="205.03" width="58.66" height="6.47"/></g></svg>