<?xml version="1.0" encoding="utf-8"?>
<!-- Generator: Adobe Illustrator 26.5.0, SVG Export Plug-In . SVG Version: 6.00 Build 0)  -->
<svg version="1.1" id="imcaraydeeoh_x5F_2" xmlns="http://www.w3.org/2000/svg" xmlns:xlink="http://www.w3.org/1999/xlink" x="0px"
	 y="0px" viewBox="0 0 1145.2 697" style="enable-background:new 0 0 1145.2 697;" xml:space="preserve">
<style type="text/css">
	.st0{stroke:#000000;stroke-miterlimit:10;}
	.st1{fill:#FFFFFF;}
</style>
<path id="_x33__x5F_fill" class="st0" d="M302.9,321c-48.9-9.6-84.9-19.2-102.3-29c-24.4-13.9-53.5-28.5-64.4-40
	c-19.9-20.9-44.9-47-53.5-71.2c-11.4-32-9.1-28.1-9.1-28.1l-52.2-2.1c-2.7,31.8,18.8,80.2,25.5,92.2c12.7,22.6,51.6,67.9,93.9,85.5
	c3,1.2,19.7,13,43.3,20.7c32.1,10.5,78.7,24.4,118.6,25L302.9,321z"/>
<path id="_x32__x5F_fill" class="st0" d="M733,389.6c-21.2-14.2-11-53.6-3.5-62.3c6.2-7.1,70.9,9.6,86.3,7.2
	c54.9-8.6,94.2-18.1,121.4-30.6c21.9-10,50.9-27.6,61.8-39c19.9-20.9,46.9-45.9,55.5-70c11.4-32,13.7-53.3,13.7-53.3l56.4,0.4
	c2.7,31.8-26.3,104.8-34.3,114.8c-16.1,20.3-51.6,67.9-93.9,85.5c-3,1.2-20,10-43.3,18.4c-37.5,13.5-91.6,28.5-131.6,29.1
	C804.5,390.3,741,395,733,389.6z"/>
<path id="_x31__x5F_fill" class="st0" d="M397.9,220c28.7-4.8,66.4-13.5,112.1-5c59,11,107,28,139.3,57.5
	c36.1,33,22.5,97.6-26.4,123.3c-68.9,36.1-173.3,9.2-205.7-0.4c-35.3-10.5-91.3-32.4-91.2-83.2C326.2,268.7,368.3,225,397.9,220z"/>
<path id="_x32__x5F_outline" class="st1" d="M0,128.9V123h2v-9h1V80h1v-4h1V62h2v-6h1v-9h1v-8h2v-7h2v-6h1v-4h2v-3h2v-4h4v-4h2V8h7
	V7h12v1h4v3h6v3h2V9h2V8h5V6h14v2h8v5h5v14h16v2h9v4h4v22h-4v10h-4v8h-4v4h17v3h9v4h4v19h-4v7h-7v4h-5v3h-11v2h-9v2h-5v47H83v3h3v7
	l4,0.1V189h3v7h3v4h3v7h5v4h4v5h4v4h3v4h4v3h4v4h2v4h2v3h4v5h7v6h4v5h7v3h5v4h8v4h3v3h4v4h8v4h4v3h7v4h7v4h7v3h7v4h12v4h9v3h12v4h18
	l-0.1,4H271v3h18v4h11V199.9l1-50.9c0-0.8,0.2-1.2,0.6-1.9l3.7-6l35.1-20l9.1-2.2l12.2,0.5l33.5,1.2l21.3,0.7l33.3,1.2l21.5,0.7
	l33.5,1.2l21.6,0.7l33.3,1.2l22.8,0.7l35.4,1.3l32.8,1.1l28,0.9l26.8,0.9l26.6,1l6,2.7l2.8,2.8c0.8,0.8,1.3,1.8,1.4,2.9l0.6,6.5
	c0.2,1.8,1,3.5,2.2,4.7l1.5,1.5c0.4,0.4,0.8,0.7,1.3,0.9l29.5,14.9c1.8,0.7,5.8,3.7,5.8,3.7c1,2,1.9,4.8,2,6v149h7v2h5v1h5v1h17v-1
	h4v-1h10v-2h16v-4h19v-3h11v-4h17v-4h11v-3h12v-4h11v-4h7v-3h7v-4h7v-4h7v-3h4v-4h8v-5h3v-2h4v-4h6v-4h6v-3h7v-5h5v-6h7v-6h6v-5h2
	v-4h4v-3h4v-3h3v-9h4v-3h4v-3h4v-8h3v-3h4v-7h3v-11h4v-7h4v-11h4v-9h-12v-16h-1v-31h-5v-2h-8v-2h-10v-3h-5v-4h-7v-9h-4V78h4v-4h8v-3
	h18v-3h-4v-8h-4V50h-4V26h4v-3h9v-3h14V7h6V2h9V0h13v2h7v2h2v4h2V5h4V3h3V1h15v2h5v2h2v4h4v4h3v3h1v11h4v11h2v2h1v13h1v19h2v30h1v12
	h3v8h1v41h-18v11h-4v13h-3v11h-3v12h-4v12h-3v9h-4v7h-5v8h-3v7h-4v8h-4v3h-3v3h-4v8h-3v3h-3v4h-4v6h-4v6h-3v3h-4v4h-4v4h-8v4h-2v3
	h-5v3h-3v4h-3v3h-4v4h-5v4h-7v3h-4v4h-7v3h-7v4h-7v3h-7v4h-8v4h-6v4h-9v4h-12v3h-9v3h-13v4H921l0.1,3h-13v4h-19v4h-20v3h-14v4h-31v5
	h-40v48.1c0,0.4,0.1-0.5,0-0.1l-0.6,2.8c-0.1,0.2-0.2,0.4-0.3,0.6L778,453l-44.2,43.2l-2.6,3.1l-4.6,13.7l30,4.4
	c2.9,0.4,5.5,2.3,6.6,5.1c0.4,1,0.6,1.7,0.6,2.2l0.1,1.1v42c0,2.4-0.9,4.7-2.4,6.5l-2.3,2.6c-0.9,1-2,1.9-3.3,2.4L720.2,595
	l-1.8,0.9l3,2.6c1.2,1.1,4.7,6.5,3.7,11.5l-1.4,3.5l8.2-2.8c0,0,17.2-6.5,23.2-8.1c6.6-1.8,18-4.6,27.2-3.7
	c5.7,0.6,14.5,3.6,17.9,6.8c4.4,4.2,9.9,11.2,10.9,17.2c0.3,2,0.6,5.2,0.6,5.2s19.1,4.2,24.2,6.9c1.2,0.6,3.2,0.9,3.4,5.2
	c0.1,2.8-4.6,13-4.6,13s-8.1,16.3-11.6,21.3c-2.5,3.4-8.7,9.4-12.3,11.7c-5.7,3.6-20.7,7.8-25.7,8.8c-3.1,0.6-15.8,2-20,2
	c-7,0-20-1-24.6-3.3c-2.5-1.2-7.8-3.7-9.6-5.8c-6.8-8-6.8-23-1.8-33c1.6-3.2,6.2-8.2,9.3-10.1c5-3.1,20.4-11.7,20.4-11.7
	s17.2-8.9,21.7-9.9C786,622,797,625,797,625l6,1c0,0,0-3.3-0.5-4.4c-1.5-3.6-7.8-10.1-11.5-12.1s-11-2.5-16.5-2.2
	c-5.8,0.4-22.8,5.3-22.8,5.3L716.4,625l-1.8,1.3l-8.5,11.4l-35.6,49.5l-7.5,3.5l-4-0.4l-40.1-2.5l-26.1-1.6l-36.6-2.3l-26.1-1.6
	l-36.4-2.2l-34-2.1l-36.6-2.3l-26.1-1.6l-36.4-2.3l-26.3-1.6l-35.4-2.2l-34.7-2.1l-35.4-2.2l-35-2.1l-10.5-0.8l-5.5-5.9l4-10.2
	l1.6-1.5l86-76l9.6-3.3l29.9,1.5l9.3,0.4v-2.7l0.3-15.4l5-8.2l3.7-1.6l64-23.3l2.4-0.9l-1.1-0.5l-16-0.8l-40.7-2l-23.7-1.1L303,503
	v-32.7l-0.5-2.5l-1.5-7.5V379h-18v-4h-22v-3h-13v-4h-18v-4h-12v-3h-12v-4h-12v-4h-10v-3h-11v-4h-9v-4h-7v-3h-8v-4h-7v-3h-7v-4h-7v-3
	h-7v-4h-4v-4h-8v-4h-3v-3h-4v-4h-4v-3h-3v-3h-6v-4h-2v-4h-7v-4h-3v-4h-4v-3h-3v-6h-4v-3h-4v-5h-3v-5h-4v-5h-4v-5h-3v-3h-4v-7h-4v-8
	h-3v-7h-4v-8h-4v-10h-3v-12h-4v-11h-4v-10h-3v-8H0V128.9L0,128.9L0,128.9z M1024,85h4v-4h10v2h4v2h6v1h5v3h11v-8h-4v-5h-3v-6h-3v-7
	h-3v-5h-4V46h-2V35h6v2h4v3h5v4h6v3h2v5h3v4h2v3h1v4h2v3h2v-7h-1v-6h-3v-7h-2v-4h-2V24h2v-4h2v-3h8v3h3v4h4v6h2v7h2v4h2v6h4v12h2v-2
	h1V41h1V27h1v-4h1v-7h10v4h2v5h2v13h2v6h3v22h2v34h3v5h2v43h-3v6h7.1l-0.1-30h-1v-22h-2V77h-2V58h-3V31h-4V19h-4v-6h-4v-3h-11v3h-5
	v6h-3v6h-5v-8h-5v-6h-4V9h-13v5h-4v21h-5v-3h-6v-4h-11v3h-4v3h-3v12h3v6h4v10h3v5h3v3h3v5h3v7h-7v-2h-4v-2h-5v-1h-11v2h-4v4h-6v8h3
	v4h4v4h5v4h10v3h4v1h8v3h6v7h1v37h5v-46h-3v-2h-8v-2h-4v-3h-7v-3h-10v-2h-3v-3h-5C1024,93,1024,85,1024,85z M423,425v-1h-12v-2h-22
	v-1h-14v-1h-13v-1h-10v-1h-8v-54h-4v-4h-3v-2h-4v-2h-7v-17h-4v-46h4v-12h3v-11h4v-4h4v-7h3v-8h3v-65h22v1h12v1h15v1h40v1h19v1h13v1
	h41v1h10v1h11v1h25v1h38v1h19v1h17v1h13v57h5v7h13v3h3v4h3v4h4v4h4v7h4V173.4l-30.5-1.6l-29.2-1.4l-31.1-1.5l-28.2-1.4l-30.4-1.4
	l-29.2-1.4l-30.2-1.4l-29.2-1.4l-30.4-1.5l-29-1.4l-40.7-2l-18.9-0.9l-3,0.1v296l21.4,0.8l29.2,1.4l30.4,1.5l29,1.4l30.2,1.5
	l29.4,1.4l29.9,1.4l29.4,1.4l30.9,1.5l28.5,1.4l40.7,2l30,1.2V348h-1v6h-6v8h-4v7h-3v8h-4v4h-8v7h-4v7h-4v39h-19v-1h-21v-1h-21v-1
	h-19v-1h-31v-1h-22v-1h-24v-1h-19v-1h-25v-1 M558,231h-13v-1h-12v-4h-8v-4h-8v-3h-15v-4h-69v3h-20v4h-14v2h-3v2h-3v3h-5v2h-12v4h-4
	v4h-5v3h-4v8h-5v6h-3v8h-4v4h-4v7h-4v9h-4v6h-5v16h-3v23h3v5h4v11h4v4h10v6h5v6h5v3h9v3h9v4h9v5h6v3h7v4h8v4h11v3h8v4h18v4h19v4h19
	v3h41v1h13v4h27v-4h27v-4h8v-4h11v-4h7v-4h4v-3h8v-4h4v-7h7v-8h7v-8h4v-7h4v-8h4v-11h4v-17h-4v-23h-4v-4h-3v-7h-4v-4h-4v-4h-4v-3h-7
	v-8h-12v-4h-4v-4h-9v-9h-8v-2h-13v-4h-13v-6h-18C558,235,558.1,232.5,558,231z M838,333v3h-14v1h-30v-2h-9v-1h-7v-1h-7v-2h-12v-2h-5
	v-1h-22v3h-2v4h-2v6h-1v4h-1v29h1v7h3v5h5v2h6v1h71v-3h31v-4h23v-3h19v-4h17v-3h13v-5h11v-3h11v-3h11v-4h12v-4h10v-3h7v-4h7v-4h8v-3
	h7v-4h7v-3h7v-4h4v-4h5v-3h5v-4h4v-4h4v-3h4v-4h7v-7h7v-4h4v-3h3v-4h4v-4h3v-4h4v-6h4v-4h4v-7h3v-4h4v-7h3v-4h4v-7h4v-8h3v-7h4v-10
	h3v-15h4v-12h3v-13h4v-13h-50v7h-3v15h-3v7h-4v6h-4v11h-4v5h-3v7.9l-3,0.1v4h-5v7h-3v3h-4v5h-3v2h-4v4h-3v4h-4v4h-3v3h-4v3h-4v3h-4
	v6h-6v5h-8v3h-3v4h-7v4h-4v3h-7v5h-4v4h-7v4h-8v2h-8v3h-7v5h-7v4h-11v3h-12v4h-13v3h-14v4h-24v3H838z M704,602.2l-24.5,10.9
	l-55.9,24.7l-6.5,1l-9.5-1.3l-29.9-4.1l-26.4-3.6l-30.2-4.1l-26.6-3.6l-29.7-4l-30.2-4.1l-29.9-4.1l-29.7-4l-33.7-4.6l-14.2-1.9
	c-1.6-0.2-3.1-1-4.2-2.1l-3-3c-1.2-1.2-1.9-2.8-1.9-4.5l0,0v-9.7l-2.3-0.3l-34-1.7l-4.3,1.5l-73.5,65l-1.6,1.6l8.9,0.6l26.8,1.6
	l36.1,2.2l26.3,1.6l36.1,2.2l26.6,1.6l28,1.8l27.8,1.7l30.4,1.8l35.9,2.2l35.4,2.2l30.2,1.8l35.9,2.2l34.5,2.1l38.8,2.4l2.9-1.5
	l46.1-64.1l0.3-0.5c0.4-0.7,0.2-1.5-0.3-2L704,602.2L704,602.2L704,602.2z M720,382v-7h-1v-32h1v-4h1v-5h1v-4h2v-3h2v-3h4v-1h25v1h4
	v1h7v1h5V183.2l-2.6-1.2l-32.9-16.3L732,163c-0.4-0.6-3-4-4-8l-1-6l-40,23.8V472c2,2.6,1,2,1,2l25,22.1l2,0.9l4.4-7.6
	c0.5-1,4.7-4.8,5.5-5.7L769,444l1-1c0.7-0.7,1-1.6,1-2.5V396h-30v-1h-6v-1h-6v-3h-4v-5h-3v-4L720,382L720,382z M120,243v-5h-4v-3h-3
	v-3h-4v-4h-4v-5h-3v-4h-3v-7h-4v-4h-4v-7h-3v-4h-4v-11h-4v-7h-4v-7h-3v-4H25v8h3v13h4v15h3v10h4v7h4v8h3v7h4v4h3v7h4v4h3v7h4v4h3v6
	h4v3h3v5h4v4h3v3h4v4h7v7h7v4h4v3h4v4h4v4h4v3h6v4h5v4h7v3h7v4h6v3h9v4h6v4h8v3h9v4h12v4h12v3h11v3h11v5h13v3h16v4h19v2h11v1h13v3h4
	v-48h-5v-4h-18v-4h-15v-4h-15v-3h-12v-4h-13v-3h-11v-3h-7v-4h-7v-3h-8v-3h-7v-4h-7v-5h-3v-4h-8v-3h-4v-4h-7v-4h-4v-3h-8v-4h-6v-7h-4
	v-4h-4v-3h-4v-2H120z M698.4,506.1l-1-1.1L675,486l-24-1l-31.8-1.6l-40.2-1.9l-29.2-1.4l-30.2-1.5l-29.2-1.4l-31.1-1.5l-28.2-1.4
	l-30.4-1.5l-29.2-1.4l-30.2-1.5l-23.3-1v18.6l3.4,0.3l19.9,1l29.7,1.4l29.7,1.4l29.7,1.4l29.9,1.5l29.4,1.4l29.9,1.4l30.6,1.5
	l28.5,1.4l30.4,1.5l29,1.4l30.2,1.5l19.4,1L698.4,506.1L698.4,506.1L698.4,506.1z M670.5,597.7l-0.1-0.5l-1.1-0.2l-10.3-0.5
	l-29.2-1.4l-50.2-2.4l-39-1.9l-43.5-2l-45.7-2.3l-39.5-1.9l-44.5-2.1L336,581v2l1.5,0.5l29.9,4.1l29.9,4.1l29.7,4l30.6,4.2l29.9,4.1
	l33,4.5L554,613l30.4,4.2l29.9,4.1l4.4-0.6l43.4-19.2L670.5,597.7L670.5,597.7L670.5,597.7z M342,139.8l1.8,0.2l15.8,0.8l29.9,1.4
	l29.4,1.4l30.2,1.4l29.2,1.4l40.7,2l28.5,1.4l40.2,1.9l29.2,1.4l30.4,1.4l25.9,1.2l3.7-0.8L700,143l-9.5-0.5l-27.3-1l-27.5-1
	l-27.3-1l-27.5-1l-27.5-1l-27.3-1l-27.5-1l-27.3-1l-27.8-1l-27.1-1l-27.5-1l-29.9-1.1l-3.2,0.8l-12,7L342,139.8L342,139.8L342,139.8
	z M372.5,543.9l0.1,0.5l16.2,1.9l23.1,2.6l27.9,3.2l26.9,3l27.6,3.2l31.4,3.5L554,565l26.7,3l28.8,3.3l4-0.6l15.8-6.2l86.6-33.9
	l1.9-0.9l-0.1-0.4L671,527l-0.1,2.6v5.5l-4,6.4c-0.4,0.7-1,1.2-1.7,1.5l-7.5,3.2l-21.8,6.5l-34.1,3.5l-17.3,0.4l-12.2,0.3l-15.6,0.1
	l-26.3-1.7l-24.1-2.6l-26.8-3.6l-22.5-5.7l-11.9-7l-1.8-2.7c-0.3-0.5-0.5-1.1-0.5-1.7v-13.4L372.5,543.9L372.5,543.9L372.5,543.9z
	 M626,211h-9v-1h-21v-1h-26v-1h-22v-1h-14v-1h-23v-2h-28v-1h-41v-1h-18v-1h-30v-1h-23v-1h-14v38h2v-1h3v-4h4v-4h4v-3h4v-2h6v-4h10
	v-4h13v-6h34v-3h31v2h42v2h20v3h6v6h20v4h8v3h17v4h5v4h15v2h5v2h4v3h7v2h6v4h3V211z M460,517v7.1c0,1.4,0.5,2.8,1.4,3.8l3,3.4
	l7.7,2.5l19.3,3.5l25.2,3.2l21.5,2.1l24.2,1.2l29.2-0.8l33.7-1.6l16.1-2.4l11.2-3.7l1.6-1.4l0.1-7.6l-2.2-0.2l-28.2-1.4l-29.7-1.4
	l-30.6-1.5l-28.5-1.4l-40.2-1.9l-29.2-1.4L460,517L460,517L460,517z M766,688c8,0,19.9-2,26.2-3.9c3.5-1.1,10.7-3.3,13.7-5.4
	c2.9-2,12.8-12.1,13.2-17.6c0.1-1.4-1.5-4.4-2.8-5.2C808.2,650.2,766,642,766,642s-21,8-28,18c-2.9,4.1-4,16,0,21
	C743.4,687.7,759.3,688,766,688L766,688L766,688z M81,115v45h7v-44h5v-3h9v-3h12v-4h6v-4h4v-4h2V86h-4v-1h-4v-2h-13v2h-4v2h-7v1h-5
	v-7h4v-5h2v-4h3v-5h3v-8h4v-9h3v-9h-2v-4h-5v-3h-9v4h-9v3h-4V20h-4v-5H62v2h-4v6h-5v8h-4v-5h-3v-6h-6v-3H30v3h-5v5h-3v13h-4v27h-3
	v19h-3v25h-1v11h-1v9H8v31h7v-7h-1v-42h1v-6h3V72h3V50h2v-5h2V30h2v-5h2v-3h11v3h1v7h1v13h1v20h2v-7h1v-5h4v-6h2v-4h2v-9h3v-3h2v-5
	h3v-3h9v3h2v3h2v17h-2v5h-2v7h-3v7h-2v6h2v-2h2v-5h2v-4h2v-3h3v-4h3v-3h4v-4h4v-3h3v-2h8v3h2v10h-3v10h-4v6h-4v7h-3v5h-3v7h-3v6h10
	v-3h4v-1h4v-2h5v-2h13v2h4v10h-5v3h-4v3h-10v2h-5v3h-5v2h-9v3H81z M641.7,581l0.1,0.5l58.8,2.1c1,0,2-0.2,2.8-0.5l42.3-18.7
	c1.1-0.5,2-1.3,2.6-2.4l0.9-1.7c0.5-0.9,0.8-2,0.8-3V539L641.7,581L641.7,581L641.7,581z M354,407h11v1h12v1h14v1h19v1h18v1h14v1h17
	v-4h-13v-3h-27v-2h-8v-4h-10v-4h-6v-2h-7v-5h-7v-3h-5v-3h-6v-3h-11v-3h-4v-3h-1V407z M567,420v1h26v1h14v1h20v-24h-2v4h-6v4h-5v4
	h-12v4h-14v2h-6v3H567z M429.5,571.3l0.2-0.3L334,560.1l0.2,6.6L429.5,571.3L429.5,571.3L429.5,571.3z M1122,148h-52v6h52V148z
	 M23,155v5h50v-5 M809.1,636.2l-4.6,7.1l20.3,5l3.6-8L809.1,636.2L809.1,636.2z M774,635.9l19.3,4.8l4.4-6.8l-14.1-3.1l-1.1,0.2
	l-8.5,4.4L774,635.9L774,635.9L774,635.9z M480,415v2h35v1h18v1h14v1h20v-1h-12v-1h-15v-1h-19v-1h-25v-1H480z M478,413h-15v2h15V413
	z"/>
<path id="_x31__x5F_outline" class="st1" d="M591,356h-3v8h-8v4h-3v3h-8v8h-8v4h-7v3h-7v4h-7v4h-12v5h-12v2h-24v-2h-10v-2h-10v-1
	h-14v-2h-8v-4h-11v-3h-7v-4h-4v-4h-4v-4h-5v-4h-7v-3h-3v-4h-4v-4h-3v-3h-4v-4h-4v-3h-4v-9h-3v-20h4v-7h4v-4h8v-4h14v-2h-4v-4h-3v-9
	h3v-3h-6v4h-8v4h-3v3h-5v4h-6v4h-8v4h-10v-5h7v-4h8v-4h8v-4h4v-6h-4v-7h-7v-4h-4v-20h4v-16h22v4h40v4h23v4h14v3h4v25h-4v3h-4v4h-2v4
	h-4v4h-4v3h-8v4h-4v3h4v4h3v3h4v4h4v4h4v5h-5v-4h-4v-4h-4v-3h-4v-4h-3v-4h-4v-8h-8v-3h-4v-7h-6v2h3v8h-3v5h-4v2h7v3h5v5h7v4h7v4h5v4
	h6v3h8v4h12v3h25v-4h15v-3h7v-4h12v-4h12v-3h-4v-8h3v-5h5v4h4v5h3v-4h3v-4h4v-2h-22v3h-7v4h-4v4h-4v3h-3v4h-4v4h-5v-5h3v-4h4v-4h3
	v-2h-6v-4h-4v-8h-7v-3h-3v-24h3v-14h22v3h39v3h23v4h8v2h8v2h6v7h4v24h-4v4h-7v8h-4v4h-8v2h4v4h4v3h4v4h4v5h-5v-4h-4v-3h-4v-4h-4v-3
	h-4v-4h-3v-4h-8v-4h-7v-4h-7v3h4v8h-4v3h4v4h4v4h4v3h3V356z M521,273v21h8v4h3v8h8v4h2v-4h4v-4h7v-4h23v4h11v4h4v4h7v3h15v-7h4v-4h7
	v-22h-24v4h-9v4h-7v4h-16v-3h-8v-5h-7v-11h-8v-4h-11l0.1-4H524v8H521z M437,279v4h4v4h3v7h8v4h7v-3h7v-4h4v-4h3v-4h4v-4h4v-17h-14
	v-4h-15v7h-8v4h-7v4h-16v-4h-4v-4h-3v-4h-4v-7h-11v-4h-10v8h-4v18h7v3h5v8h9v-4h8v-4H437z M444,367h8v3h6v-3h4v-4h4v-4h-11v-3h-5
	v-19h-10v4h-16v-15h-9v4h-5v6h4v4h4v5h4v3h5v4h3v-4h6v-4h12v16h-4V367L444,367z M568,348v-7h-4v-4h-14v4h-8v15h-3v8h-17v-4h-3v-4
	h-15v7h12v4h4v3h13v-4h8v-3h4v-12h4v-4h12v4h4v-3H568z M466,356v4h13v4h4v14h17v-8h4v-7h-4v4h-11v-4h-4v-7h-4v-4h-4v-3h-6v7H466z
	 M470,364v3h-4v4h-3v3h10v4h5v-10h-3v-4H470z M534,359v-8h3v-6h-6v4h-7v6h3v4H534z M426,295v-4h3v-3h4v-4h-14v7h3v4H426z M458,345
	v-4h-2v10h3v4h4v-4h3v-6H458z M434,352v6h7v-3h3v-7h-4v4H434z M435,333h5v-4h-7v-3h-4v10h6V333z M509,367v8h-4v3h6v-4h4v-3h-4v-4
	H509z M489,359h4v4h3v-4h4v-3h-11V359z M551,358h6v-6h-3v3h-3V358z"/>
</svg>
