<?xml version="1.0" encoding="utf-8"?>
<!-- Generator: Adobe Illustrator 26.5.0, SVG Export Plug-In . SVG Version: 6.00 Build 0)  -->
<svg version="1.1" id="Layer_1" xmlns="http://www.w3.org/2000/svg" xmlns:xlink="http://www.w3.org/1999/xlink" x="0px" y="0px"
	 viewBox="0 0 859.4 583.8" style="enable-background:new 0 0 859.4 583.8;" xml:space="preserve">
<path d="M0,157.5V153h1.5v-6.8h0.8v-25.5H3v-3h0.8v-10.5h1.5v-4.5H6V96h0.8v-6h1.5v-5.3h1.5v-4.5h0.8v-3H12V75h1.5v-3h3v-3H18v-2.3
	h5.3V66h9v0.8h3V69h4.5v2.3h1.5v-3.8h1.5v-0.8h3.8v-1.5H57v1.5h6v3.8h3.8V81h12v1.5h6.8v3h3V102h-3v7.5h-3v6h-3v3h12.8v2.3h6.8v3h3
	V138h-3v5.3h-5.3v3h-3.8v2.3h-8.3v1.5H75v1.5h-3.8v35.3h-9v2.3h2.3v5.3l3,0.1v8.2h2.3v5.3H72v3h2.3v5.3H78v3h3v3.8h3v3h2.3v3h3v2.3
	h3v3h1.5v3h1.5v2.3h3v3.8h5.3v4.5h3v3.8h5.3v2.3h3.8v3h6v3h2.3v2.3h3v3h6v3h3v2.3h5.3v3h5.3v3h5.3v2.3h5.3v3h9v3h6.8v2.3h9v3h13.5
	l-0.1,3h8.3v2.3h13.5v3h8.3v-87.1l0.8-38.2c0-0.6,0.2-0.9,0.5-1.4l2.8-4.5l26.3-15l6.8-1.7l9.2,0.4l25.1,0.9l16,0.5l25,0.9l16.1,0.5
	l25.1,0.9l16.2,0.5l25,0.9l17.1,0.5l26.6,1l24.6,0.8l21,0.7l20.1,0.7l20,0.8l4.5,2l2.1,2.1c0.6,0.6,1,1.4,1.1,2.2l0.5,4.9
	c0.2,1.4,0.8,2.6,1.7,3.5l1.1,1.1c0.3,0.3,0.6,0.5,1,0.7l22.1,11.2c1.4,0.5,4.4,2.8,4.4,2.8c0.8,1.5,1.4,3.6,1.5,4.5v111.8h5.3v1.5
	h3.8v0.8h3.8v0.8h12.8V309h3v-0.8h7.5v-1.5h12v-3h14.3v-2.3h8.3v-3h12.8v-3h8.3v-2.3h9v-3h8.3v-3h5.3V285h5.3v-3h5.3v-3h5.3v-2.3h3
	v-3h6v-3.8h2.3v-1.5h3v-3h4.5v-3h4.5v-2.3h5.3v-3.8h3.8v-4.5h5.3v-4.5h4.5v-3.8h1.5v-3h3v-2.3h3v-2.3h2.3v-6.8h3v-2.3h3v-2.3h3v-6
	h2.3v-2.3h3v-5.3h2.3v-8.3h3v-5.3h3v-8.3h3v-6.8h-9v-12h-0.8v-23.3h-3.8v-1.5h-6v-1.5h-7.5v-2.3h-3.8v-3h-5.3v-6.8h-3v-13.4h3v-3h6
	V114h13.5v-2.3h-3v-6h-3v-7.5h-3v-18h3V78h6.8v-2.3h10.5V66h4.5v-3.8h6.8v-1.5h9.8v1.5h5.3v1.5h1.5v3h1.5v-2.3h3V63h2.3v-1.5h11.3
	V63h3.8v1.5h1.5v3h3v3h2.3v2.3h0.8V81h3v8.3h1.5v1.5h0.8v9.8h0.8v14.3h1.5v22.5h0.8v9h2.3v6h0.8V183h-13.5v8.3h-3v9.8h-2.3v8.3h-2.3
	v9h-3v9h-2.3v6.8h-3v5.3h-3.8v6h-2.3v5.3h-3v6h-3v2.3h-2.3v2.3h-3v6h-2.3v2.3h-2.3v3h-3v4.5h-3v4.5h-2.3v2.3h-3v3h-3v3h-6v3h-1.5
	v2.3h-3.8v2.3h-2.3v3h-2.3v2.3h-3v3h-3.8v3h-5.3v2.3h-3v3h-5.3v2.3h-5.3v3h-5.3v2.3h-5.3v3h-6v3h-4.5v3h-6.8v3h-9v2.3h-6.8v2.3h-9.8
	v3h-8.4l0.1,2.3h-9.8v3h-14.3v3h-15v2.3h-10.5v3h-23.3v3.8h-30V394c0,0.3,0.1-0.4,0-0.1L588,396c-0.1,0.2-0.2,0.3-0.2,0.5l-3.9,4.2
	l-33.2,32.4l-2,2.3l-3.5,10.3l22.5,3.3c2.2,0.3,4.1,1.7,5,3.8c0.3,0.8,0.5,1.3,0.5,1.7l0.1,0.8v31.5c0,1.8-0.7,3.5-1.8,4.9l-1.7,2
	c-0.7,0.8-1.5,1.4-2.5,1.8l-26.8,11.8l-1.4,0.7l2.3,2c0.9,0.8,3.5,4.9,2.8,8.6l-1.1,2.6l6.2-2.1c0,0,12.9-4.9,17.4-6.1
	c5-1.4,13.5-3.5,20.4-2.8c4.3,0.5,10.9,2.7,13.4,5.1c3.3,3.2,7.4,8.4,8.2,12.9c0.2,1.5,0.5,3.9,0.5,3.9s14.3,3.2,18.2,5.2
	c0.9,0.5,2.4,0.7,2.6,3.9c0.1,2.1-3.5,9.8-3.5,9.8s-6.1,12.2-8.7,16c-1.9,2.6-6.5,7.1-9.2,8.8c-4.3,2.7-15.5,5.9-19.3,6.6
	c-2.3,0.5-11.9,1.5-15,1.5c-5.3,0-15-0.8-18.5-2.5c-1.9-0.9-5.9-2.8-7.2-4.4c-5.1-6-5.1-17.3-1.4-24.8c1.2-2.4,4.7-6.2,7-7.6
	c3.8-2.3,15.3-8.8,15.3-8.8s12.9-6.7,16.3-7.4c4.1-0.9,12.4,1.4,12.4,1.4l4.5,0.8c0,0,0-2.5-0.4-3.3c-1.1-2.7-5.9-7.6-8.6-9.1
	s-8.3-1.9-12.4-1.7c-4.4,0.3-17.1,4-17.1,4l-26.5,9.3l-1.4,1l-6.4,8.6l-26.7,37.1l-5.6,2.6l-3-0.3l-30.1-1.9l-19.6-1.2l-27.5-1.7
	l-19.6-1.2l-27.3-1.7l-25.5-1.6l-27.5-1.7l-19.6-1.2l-27.3-1.7l-19.7-1.2l-26.6-1.7l-26-1.6l-26.6-1.7l-26.3-1.6l-7.9-0.6l-4.1-4.4
	l3-7.7l1.2-1.1l64.5-57l7.2-2.5l22.4,1.1l7,0.3v-2l0.2-11.6l3.8-6.2l2.8-1.2l48-17.5l1.8-0.7l-0.8-0.4l-12-0.6l-30.5-1.5l-17.8-0.8
	l-6.8-4.7v-2.7v-21.8l-0.4-1.9l-1.1-5.6v-61h-13.5v-3h-16.5v-2.3h-9.8v-3h-13.5v-3h-9v-2.3h-9v-3h-9v-3h-7.5v-2.3h-8.3v-3h-6.8v-3
	h-5.3v-2.3h-6v-3h-5.3v-2.3h-5.3v-3h-5.3v-2.3h-5.3v-3h-3v-3h-6v-3h-2.3v-2.3h-3v-3h-3v-2.3h-2.3v-2.3h-4.5v-3h-1.5v-3H60v-3h-2.3
	v-3h-3v-2.3h-2.3v-4.5h-3v-2.3h-3v-3.8h-2.3v-3.8h-3v-3.8h-3v-3.8H36v-2.3h-3v-5.3h-3v-6h-2.3v-5.3h-3v-6h-3v-7.5h-2.3v-9h-3v-8.3
	h-3v-7.5h-2.3v-6H0V157.5L0,157.5z M768.5,124.5h3v-3h7.5v1.5h3v1.5h4.5v0.8h3.8v2.3h8.3v-6h-3v-3.8h-2.3v-4.5H791V108h-2.3v-3.8h-3
	v-9h-1.5V87h4.5v1.5h3v2.3h3.8v3h4.5V96h1.5v3.8h2.3v3h1.5v2.3h0.8v3h1.5v2.3h1.5V105h-0.8v-4.5H806v-5.3h-1.5v-3H803V78.7h1.5v-3
	h1.5v-2.3h6v2.3h2.3v3h3v4.5h1.5v5.3h1.5v3h1.5V96h3v9h1.5v-1.5h0.8v-12h0.8V81h0.8v-3h0.8v-5.3h7.5v3h1.5v3.8h1.5v9.8h1.5v4.5h2.3
	v16.5h1.5v25.5h2.3v3.8h1.5v32.3h-2.3v4.5h5.3l-0.1-22.5H851v-16.5h-1.5v-18.8H848v-14.3h-2.3V84h-3v-9h-3v-4.5h-3v-2.3h-8.3v2.3
	h-3.8V75h-2.3v4.5h-3.8v-6H815V69h-3v-1.5h-9.8v3.8h-3V87h-3.8v-2.3H791v-3h-8.3V84h-3v2.3h-2.3v9h2.3v4.5h3v7.5h2.3v3.8h2.3v2.3
	h2.3v3.8h2.3v5.3h-5.3v-1.5h-3v-1.5h-3.8v-0.8h-8.3v1.5h-3v3H764v6h2.3v3h3v3h3.8v3h7.5v2.3h3v0.8h6v2.3h4.5v5.3h0.8v27.8h3.8v-34.5
	h-2.3v-1.5h-6v-1.5h-3v-2.3H782v-2.3h-7.5v-1.5h-2.3v-2.3h-3.8V124.5z M317.4,379.7v-0.8h-9v-1.5h-16.5v-0.8h-10.5v-0.8h-9.8v-0.8
	h-7.5v-0.8h-6v-40.5h-3v-3h-2.3v-1.5h-3v-1.5h-5.3v-12.8h-3v-34.5h3v-9h2.3v-8.3h3v-3h3v-5.3h2.3v-6h2.3v-48.8h16.5v0.8h9v0.8h11.3
	v0.8h30v0.8h14.3v0.8h9.8v0.8H379v0.8h7.5v0.8h8.3v0.8h18.8v0.8H442v0.8h14.3v0.8H469v0.8h9.8v42.8h3.8v5.3h9.8v2.3h2.3v3h2.3v3h3v3
	h3v5.3h3v-83.8l-22.9-1.2l-21.9-1.1l-23.3-1.1l-21.2-1.1l-22.8-1.1l-21.9-1.1l-22.7-1.1l-21.9-1.1l-22.8-1.1l-21.8-1.1l-30.5-1.5
	l-14.2-0.7l-2.3,0.1v222.1l16.1,0.6l21.9,1.1l22.8,1.1l21.8,1.1l22.7,1.1l22.1,1.1l22.4,1.1l22.1,1.1l23.2,1.1l21.4,1.1l30.5,1.5
	l22.5,0.9v-90.9h-0.8v4.5h-4.5v6h-3v5.3h-2.3v6h-3v3h-6v5.3h-3v5.3h-3v29.3h-14.3v-0.8h-15.8v-0.8h-15.8v-0.8h-14.3v-0.8h-23.3v-0.8
	h-16.5v-0.8h-18v-0.8h-14.3v-0.8h-18.8v-0.8 M418.8,234.1H409v-0.8h-9v-3h-6v-3h-6v-2.3h-11.3v-3h-51.8v2.3h-15v3h-10.5v1.5h-2.3
	v1.5h-2.3v2.3h-3.8v1.5h-9v3h-3v3h-3.8v2.3h-3v6h-3.8v4.5h-2.3v6h-3v3h-3v5.3h-3v6.8h-3v4.5h-3.8v12h-2.3v17.3h2.3v3.8h3v8.3h3v3
	h7.5v4.5h3.8v4.5h3.8v2.3h6.8v2.3h6.8v3h6.8v3.8h4.5v2.3h5.3v3h6v3h8.3v2.3h6v3h13.5v3h14.3v3H364v2.3h30.8v0.8h9.8v3h20.3v-3H445
	v-3h6v-3h8.3v-3h5.3v-3h3v-2.3h6v-3h3v-5.3h5.3v-6h5.3v-6h3v-5.3h3v-6h3v-8.3h3v-12.8h-3v-17.3h-3v-3h-2.3v-5.3h-3v-3h-3v-3h-3v-2.3
	h-5.3v-6h-9v-3h-3v-3h-6.8v-6.8h-6v-1.5H442v-3h-9.8v-4.5h-13.5C418.8,237.1,418.8,235.2,418.8,234.1z M628.9,310.6v2.3h-10.5v0.8
	h-22.5v-1.5h-6.8v-0.8h-5.3v-0.8h-5.3v-1.5h-9v-1.5h-3.8v-0.8h-16.5v2.3h-1.5v3h-1.5v4.5h-0.8v3h-0.8v21.8h0.8v5.3h2.3v3.8h3.8v1.5
	h4.5v0.8h53.3v-2.3h23.3v-3h17.3v-2.3h14.3v-3h12.8v-2.3h9.8v-3.8h8.3v-2.3h8.3v-2.3h8.3v-3h9v-3h7.5v-2.3h5.3v-3h5.3v-3h6v-2.3h5.3
	v-3h5.3v-2.3h5.3v-3h3v-3h3.8v-2.3h3.8v-3h3v-3h3v-2.3h3v-3h5.3v-5.3h5.3v-3h3v-2.3h2.3v-3h3v-3h2.3v-3h3v-4.5h3v-3h3v-5.3h2.3v-3h3
	v-5.3h2.3v-3h3v-5.3h3v-6h2.3v-5.3h3v-7.5h2.3v-11.3h3v-9h2.3v-9.8h3V183h-37.5v5.3h-2.3v11.3H797v5.3h-3v4.5h-3v8.3h-3v3.8h-2.3
	v5.9l-2.3,0.1v3h-3.8v5.3h-2.3v2.3h-3v3.8h-2.3v1.5h-3v3H767v3h-3v3h-2.3v2.3h-3v2.3h-3v2.3h-3v4.5h-4.5v3.8h-6v2.3h-2.3v3h-5.3v3
	h-3v2.3h-5.3v3.8h-3v3h-5.3v3h-6v1.5h-6v2.3h-5.3v3.8h-5.3v3h-8.3v2.3h-9v3h-9.8v2.3h-10.5v3h-18v2.3H628.9L628.9,310.6z
	 M528.3,512.6l-18.4,8.2l-42,18.5l-4.9,0.8l-7.1-1l-22.4-3.1l-19.8-2.7l-22.7-3.1l-20-2.7l-22.3-3l-22.7-3.1l-22.4-3.1l-22.3-3
	l-25.3-3.5l-10.7-1.4c-1.2-0.2-2.3-0.8-3.2-1.6l-2.3-2.3c-0.9-0.9-1.4-2.1-1.4-3.4l0,0v-7.3l-1.7-0.2l-25.5-1.3l-3.2,1.1L153,544.5
	l-1.2,1.2l6.7,0.5l20.1,1.2l27.1,1.7l19.7,1.2l27.1,1.7l20,1.2l21,1.4l20.9,1.3l22.8,1.4l26.9,1.7l26.6,1.7l22.7,1.4l26.9,1.7
	l25.9,1.6l29.1,1.8l2.2-1.1l34.6-48.1l0.2-0.4c0.3-0.5,0.2-1.1-0.2-1.5L528.3,512.6L528.3,512.6z M540.3,347.4v-5.3h-0.8v-24h0.8v-3
	h0.8v-3.8h0.8v-3h1.5v-2.3h1.5v-2.3h3v-0.8h18.8v0.8h3v0.8h5.3v0.8h3.8V198.2l-2-0.9L552,185.1l-2.6-2c-0.3-0.5-2.3-3-3-6l-0.8-4.5
	l-30,17.9v224.5c1.5,2,0.8,1.5,0.8,1.5l18.8,16.6l1.5,0.7l3.3-5.7c0.4-0.8,3.5-3.6,4.1-4.3l33.1-29.8l0.8-0.8
	c0.5-0.5,0.8-1.2,0.8-1.9v-33.4h-22.5v-0.8h-4.5v-0.8h-4.5v-2.3h-3v-3.8h-2.3v-3H540.3L540.3,347.4z M90.1,243.1v-3.8h-3v-2.3h-2.3
	v-2.3h-3v-3h-3v-3.8h-2.3v-3h-2.3v-5.3h-3v-3h-3v-5.3H66v-3h-3v-8.3h-3V195h-3v-5.3h-2.3v-3h-36v6H21v9.8h3v11.3h2.3v7.5h3v5.3h3v6
	h2.3v5.3h3v3h2.3v5.3h3v3H45v5.3h3v3h2.3v4.5h3v2.3h2.3v3.8h3v3h2.3v2.3h3v3H69v5.3h5.3v3h3v2.3h3v3h3v3h3v2.3h4.5v3h3.8v3h5.3v2.3
	h5.3v3h4.5v2.3h6.8v3h4.5v3h6v2.3h6.8v3h9v3h9v2.3h8.3v2.3h8.3v3.8h9.8v2.3h12v3h14.3v1.5h8.3v0.8h9.8v2.3h3v-36h-3.8v-3h-13.5v-3
	h-11.3v-3h-11.3v-2.3h-9v-3h-9.8v-2.3h-8.3v-2.3h-5.3v-3h-5.3v-2.3h-6v-2.3h-5.3v-3h-5.3v-3.8h-2.3v-3h-6v-2.3h-3v-3h-5.3v-3h-3
	v-2.3h-6v-3h-4.5v-5.3h-3v-3h-3v-2.3h-3v-1.5H90.1z M524.1,440.5l-0.8-0.8l-16.8-14.3l-18-0.8l-23.9-1.2l-30.2-1.4l-21.9-1.1
	l-22.7-1.1l-21.9-1.1l-23.3-1.1l-21.2-1.1l-22.8-1.1l-21.9-1.1l-22.7-1.1l-17.5-0.8v14l2.6,0.2l14.9,0.8l22.3,1.1l22.3,1.1l22.3,1.1
	l22.4,1.1l22.1,1.1l22.4,1.1l23,1.1l21.4,1.1l22.8,1.1l21.8,1.1l22.7,1.1l14.6,0.8L524.1,440.5L524.1,440.5z M503.2,509.3l-0.1-0.4
	l-0.8-0.2l-7.7-0.4l-21.9-1.1l-37.7-1.8l-29.3-1.4l-32.6-1.5l-34.3-1.7l-29.6-1.4l-33.4-1.6l-23.6-1.1v1.5l1.1,0.4l22.4,3.1
	l22.4,3.1l22.3,3l23,3.2l22.4,3.1l24.8,3.4l25.1,3.4l22.8,3.2L461,527l3.3-0.5l32.6-14.4L503.2,509.3L503.2,509.3z M256.7,165.6
	l1.4,0.2l11.9,0.6l22.4,1.1l22.1,1.1l22.7,1.1l21.9,1.1l30.5,1.5l21.4,1.1l30.2,1.4l21.9,1.1l22.8,1.1l19.4,0.9l2.8-0.6l17.3-8.9
	l-7.1-0.4l-20.5-0.8l-20.6-0.8l-20.5-0.8l-20.6-0.8l-20.6-0.8l-20.5-0.8l-20.6-0.8l-20.5-0.8l-20.9-0.8l-20.3-0.8l-20.6-0.8
	l-22.4-0.8l-2.4,0.6l-9,5.3L256.7,165.6L256.7,165.6z M279.5,468.9l0.1,0.4l12.2,1.4l17.3,2L330,475l20.2,2.3l20.7,2.4l23.6,2.6
	l21.2,2.4l20,2.3l21.6,2.5l3-0.5l11.9-4.7l65-25.4l1.4-0.7l-0.1-0.3l-35-1.7l-0.1,2v4.1l-3,4.8c-0.3,0.5-0.8,0.9-1.3,1.1l-5.6,2.4
	l-16.4,4.9l-25.6,2.6l-13,0.3l-9.2,0.2l-11.7,0.1l-19.7-1.3l-18.1-2l-20.1-2.7l-16.9-4.3l-8.9-5.3l-1.4-2c-0.2-0.4-0.4-0.8-0.4-1.3
	v-10.1L279.5,468.9L279.5,468.9z M469.8,219.1H463v-0.8h-15.8v-0.8h-19.5v-0.8h-16.5v-0.8h-10.5v-0.8h-17.3v-1.5h-21v-0.8h-30.8
	v-0.8h-13.5v-0.8h-22.5v-0.8h-17.3v-0.8h-10.5v28.5h1.5v-0.8h2.3v-3h3v-3h3v-2.3h3v-1.5h4.5v-3h7.5v-3h9.8v-4.5h25.5v-2.3h23.3v1.5
	h31.5v1.5h15v2.3h4.5v4.5h15v3h6v2.3H436v3h3.8v3H451v1.5h3.8v1.5h3v2.3h5.3v1.5h4.5v3h2.3V219.1z M345.2,448.7v5.3
	c0,1.1,0.4,2.1,1.1,2.9l2.3,2.6l5.8,1.9l14.5,2.6l18.9,2.4l16.1,1.6l18.2,0.9l21.9-0.6l25.3-1.2l12.1-1.8l8.4-2.8l1.2-1.1l0.1-5.7
	l-1.7-0.2l-21.2-1.1l-22.3-1.1l-23-1.1l-21.4-1.1l-30.2-1.4l-21.9-1.1L345.2,448.7L345.2,448.7z M574.8,577c6,0,14.9-1.5,19.7-2.9
	c2.6-0.8,8-2.5,10.3-4.1c2.2-1.5,9.6-9.1,9.9-13.2c0.1-1.1-1.1-3.3-2.1-3.9c-6.1-4.3-37.7-10.4-37.7-10.4s-15.8,6-21,13.5
	c-2.2,3.1-3,12,0,15.8C557.9,576.8,569.8,577,574.8,577L574.8,577z M60.8,147v33.8H66v-33h3.8v-2.3h6.8v-2.3h9v-3h4.5v-3h3v-3h1.5
	v-9h-3v-0.8h-3V123h-9.8v1.5h-3v1.5h-5.3v0.8h-3.8v-5.3h3v-3.8h1.5v-3h2.3V111h2.3v-6h3v-6.8H81v-6.8h-1.5v-3h-3.8v-2.3H69v3h-6.8
	v2.3h-3V75.7h-3V72h-9.8v1.5h-3V78h-3.8v6h-3v-3.8h-2.3v-4.5H30v-2.3h-7.5v2.3h-3.8v3.8h-2.3v9.8h-3v20.3h-2.3v14.3H9v18.8H8.3v8.3
	H7.5v6.8H6v23.3h5.3v-5.3h-0.8V144h0.8v-4.5h2.3v-24.8h2.3V98.2h1.5v-3.8h1.5V83.2h1.5v-3.8h1.5v-2.3H30v2.3h0.8v5.3h0.8v9.8h0.8v15
	h1.5v-5.3h0.8v-3.8h3V96H39v-3h1.5v-6.8h2.3V84h1.5v-3.8h2.3V78h6.8v2.3h1.5v2.3h1.5v12.8h-1.5V99h-1.5v5.3H51v5.3h-1.5v4.5H51v-1.5
	h1.5v-3.8H54v-3h1.5v-2.3h2.3v-3H60v-2.3h3v-3h3V93h2.3v-1.5h6v2.3h1.5v7.5h-2.3v7.5h-3v4.5h-3v5.3h-2.3v3.8H63v5.3h-2.3v4.5h7.5
	v-2.3h3V129h3v-1.5H78V126h9.8v1.5h3v7.5h-3.8v2.3h-3v2.3h-7.5v1.5h-3.8v2.3H69v1.5h-6.8v2.3H60.8z M481.6,496.7l0.1,0.4l44.1,1.6
	c0.8,0,1.5-0.2,2.1-0.4l31.7-14c0.8-0.4,1.5-1,2-1.8l0.7-1.3c0.4-0.7,0.6-1.5,0.6-2.3v-13.7L481.6,496.7L481.6,496.7z M265.7,366.2
	h8.3v0.8h9v0.8h10.5v0.8h14.3v0.8h13.5v0.8h10.5v0.8h12.8v-3h-9.8v-2.3h-20.3v-1.5h-6v-3h-7.5v-3h-4.5v-1.5h-5.3v-3.8h-5.3v-2.3
	h-3.8v-2.3h-4.5v-2.3h-8.3v-2.3h-3v-2.3h-0.8V366.2z M425.5,375.9v0.8H445v0.8h10.5v0.8h15v-18H469v3h-4.5v3h-3.8v3h-9v3h-10.5v1.5
	h-4.5v2.3H425.5z M322.3,489.5l0.2-0.2l-71.8-8.2l0.2,5L322.3,489.5L322.3,489.5z M842,171.8h-39v4.5h39V171.8z M17.3,177v3.8h37.5
	V177 M607.2,538.2l-3.5,5.3l15.2,3.8l2.7-6L607.2,538.2L607.2,538.2z M580.9,537.9l14.5,3.6l3.3-5.1l-10.6-2.3l-0.8,0.2l-6.4,3.3
	L580.9,537.9L580.9,537.9z M360.2,372.2v1.5h26.3v0.8H400v0.8h10.5v0.8h15v-0.8h-9v-0.8h-11.3v-0.8H391v-0.8h-18.8v-0.8H360.2z
	 M358.7,370.7h-11.3v1.5h11.3V370.7z"/>
<path d="M443.5,327.9h-2.3v6h-6v3H433v2.3h-6v6h-6v3h-5.3v2.3h-5.3v3h-5.3v3h-9v3.8h-9v1.5h-18v-1.5h-7.5v-1.5h-7.5v-0.8h-10.5v-1.5
	h-6v-3h-8.3v-2.3h-5.3v-3h-3v-3h-3v-3h-3.8v-3h-5.3v-2.3h-2.3v-3h-3v-3h-2.3v-2.3h-3v-3h-3v-2.3h-3v-6.8h-2.3v-15h3v-5.3h3v-3h6v-3
	h10.5v-1.5h-3v-3h-2.3v-6.8h2.3v-2.3h-4.5v3h-6v3h-2.3v2.3h-3.8v3h-4.5v3h-6v3h-7.5v-3.8h5.3v-3h6v-3h6v-3h3v-4.5h-3v-5.3h-5.3v-3
	h-3v-15h3v-12h16.5v3h30v3h17.3v3h10.5v2.3h3v18.8h-3v2.3h-3v3h-1.5v3h-3v3h-3v2.3h-6v3h-3v2.3h3v3h2.3v2.3h3v3h3v3h3v3.8h-3.8v-3
	h-3v-3h-3v-2.3h-3v-3h-2.3v-3h-3v-6h-6v-2.3h-3v-5.3h-4.5v1.5h2.3v6h-2.3v3.8h-3v1.5h5.3v2.3h3.8v3.8h5.3v3h5.3v3h3.8v3h4.5v2.3h6v3
	h9v2.3h18.8v-3h11.3v-2.3h5.3v-3h9v-3h9v-2.3h-3v-6h2.3v-3.8h3.8v3h3v3.8h2.3v-3h2.3v-3h3v-1.5H415v2.3h-5.3v3h-3v3h-3v2.3h-2.3v3
	h-3v3h-3.8v-3.8h2.3v-3h3v-3h2.3v-1.5h-4.5v-3h-3v-6h-5.3v-2.3h-2.3v-18h2.3v-10.5H406v2.3h29.3v2.3h17.3v3h6v1.5h6v1.5h4.5v5.3h3
	v18h-3v3h-5.3v6h-3v3h-6v1.5h3v3h3v2.3h3v3h3v3.8H463v-3h-3v-2.3h-3v-3h-3v-2.3h-3v-3h-2.3v-3h-6v-3h-5.3v-3h-5.3v2.3h3v6h-3v2.3h3
	v3h3v3h3v2.3h2.3V327.9z M391,265.6v15.8h6v3h2.3v6h6v3h1.5v-3h3v-3h5.3v-3h17.3v3h8.3v3h3v3h5.3v2.3H460v-5.3h3v-3h5.3v-16.5h-18v3
	h-6.8v3h-5.3v3h-12v-2.3h-6v-3.8H415v-8.3h-6v-3h-8.3l0.1-3h-7.6v6H391z M327.9,270.1v3h3v3h2.3v5.3h6v3h5.3v-2.3h5.3v-3h3v-3h2.3
	v-3h3v-3h3v-12.8h-10.5v-3h-11.3v5.3h-6v3h-5.3v3h-12v-3h-3v-3h-2.3v-3h-3v-5.3h-8.3v-3h-7.5v6h-3v13.5h5.3v2.3h3.8v6h6.8v-3h6v-3
	H327.9z M333.2,336.1h6v2.3h4.5v-2.3h3v-3h3v-3h-8.3v-2.3h-3.8v-14.3h-7.5v3h-12v-11.3h-6.8v3h-3.8v4.5h3v3h3v3.8h3v2.3h3.8v3h2.3
	v-3h4.5v-3h9v12h-3V336.1L333.2,336.1z M426.3,321.9v-5.3h-3v-3h-10.5v3h-6v11.3h-2.3v6h-12.8v-3h-2.3v-3h-11.3v5.3h9v3h3v2.3h9.8
	v-3h6v-2.3h3v-9h3v-3h9v3h3v-2.3H426.3z M349.7,327.9v3h9.8v3h3v10.5h12.8v-6h3v-5.3h-3v3H367v-3h-3v-5.3h-3v-3h-3v-2.3h-4.5v5.3
	H349.7z M352.7,333.9v2.3h-3v3h-2.3v2.3h7.5v3h3.8v-7.5h-2.3v-3H352.7z M400.7,330.1v-6h2.3v-4.5h-4.5v3h-5.3v4.5h2.3v3H400.7z
	 M319.7,282.1v-3h2.3v-2.3h3v-3h-10.5v5.3h2.3v3H319.7z M343.7,319.6v-3h-1.5v7.5h2.3v3h3v-3h2.3v-4.5H343.7z M325.7,324.9v4.5h5.3
	v-2.3h2.3v-5.3h-3v3H325.7z M326.4,310.6h3.8v-3h-5.3v-2.3h-3v7.5h4.5V310.6z M382,336.1v6h-3v2.3h4.5v-3h3v-2.3h-3v-3H382z
	 M367,330.1h3v3h2.3v-3h3v-2.3H367V330.1z M413.5,329.4h4.5v-4.5h-2.3v2.3h-2.3V329.4z"/>
<g>
	<path d="M700.3,16.6l10.4-0.9l-0.9-10.4l-5,0.5l-0.4-4.9L694,1.7l0.4,4.9l-9.6,0.9l-0.4-4.9L679,3.1l4.1,45.3l10.4-0.9l-3.2-34.9
		l4.9-0.4l-0.4-4.9l4.5-0.4L700.3,16.6z M659.5,10.3l1.3,14.5l-9.5,0.9L650,11.1L659.5,10.3z M668,44.6l5-0.5l-0.9-10.4l-10.4,0.9
		l0.9,10l-9.5,0.9l-1.3-14.5l14.9-1.3l-0.5-5l5-0.5l-1.4-15.4l-5,0.5l-0.4-4.9l-20.3,1.8l0.4,4.9l-5,0.5l3.2,35.3l5-0.5l0.5,5
		l20.3-1.8L668,44.6z M624.5,63.7l10-0.9l-5-55.2l-10.4,0.9l3.1,34.8l-4.9,0.4l0.5,5l-4.5,0.4l-3.6-39.8l-10.4,0.9l3.6,40.2l5-0.5
		l0.5,5l10.4-0.9l-0.5-5l4.5-0.4l1.3,14.5l-9.5,0.9l-0.4-4.9l-10.4,0.9l0.5,5.4l5-0.5l0.4,4.9l15.4-1.4L624.5,63.7z M581.4,37.4
		l1.3,14.5l-9.5,0.9L572,38.3L581.4,37.4z M588.3,56.9l5.4-0.5L590,16.1l-5,0.5l-0.4-4.9l-20.3,1.8l0.4,4.9l-5,0.5l0.9,10.4
		l10.4-0.9l-0.9-10l9.5-0.9l1.3,14.5L566,33.4l0.4,4.9l-5,0.5l1.4,15.4l5-0.5l0.5,5l15.4-1.4l-0.5-5l4.5-0.4L588.3,56.9z
		 M545.8,60.7l10.4-0.9l-0.5-5.4l-4.9,0.4l-5-54.8l-10.4,0.9l5,55.2l5-0.5L545.8,60.7z M517.2,23.1l3.1,34.4l-4.5,0.4l-0.5-5
		l-4.9,0.4l-2.2-24.5l4.9-0.4l-0.4-4.9L517.2,23.1z M525.7,57.5l5-0.5l-3.2-35.3l-5,0.5l-0.4-4.9l-10.4,0.9l0.4,4.9l-9.6,0.9
		l-0.4-4.9l-5.4,0.5l5.4,60.2l10.4-0.9l-1.8-19.9l4.5-0.4l0.5,5l10.4-0.9L525.7,57.5z M460.9,68.4l10.4-0.9l-4.1-45.3l-10.4,0.9
		L460.9,68.4z M456.4,18.6l10.4-0.9l-0.9-10.4l-10.4,0.9L456.4,18.6z M440.9,70.2l10.4-0.9l-3.6-40.3l-5,0.5l-0.4-4.9l-10.4,0.9
		l0.4,4.9l-9.6,0.9l-0.4-4.9l-5.4,0.5L421,72l10.4-0.9l-3.2-34.9l4.9-0.4l-0.4-4.9l4.5-0.4L440.9,70.2z M401,73.8l10.4-0.9
		l-4.1-45.3l-10.4,0.9L401,73.8z M396.5,24l10.4-0.9L406,12.6l-10.4,0.9L396.5,24z M381,75.6l10.4-0.9l-3.6-40.3l-5,0.5l-0.4-4.9
		L372,30.8l0.4,4.9l-9.6,0.9l-0.4-4.9l-10.4,0.9l0.4,4.9l-9.6,0.9l-0.4-4.9l-5.4,0.5l4.1,45.3l10.4-0.9l-3.2-34.9l4.9-0.4L353,38
		l4.5-0.4l3.6,39.8l10.4-0.9l-3.2-34.9l4.9-0.4l-0.4-4.9l4.5-0.4L381,75.6z M296.9,33l1.8,19.4l-14.5,1.3l-1.8-19.4L296.9,33z
		 M301.4,82.8l10.4-0.9l-4.5-50.3l-4.9,0.4l-0.4-4.9l-25.3,2.3l0.4,4.9l-5,0.5l4.5,50.3l10.4-0.9l-2.3-24.9l14.5-1.3L301.4,82.8z
		 M261.5,81.4l4.9-0.4l-0.9-10.4l-10.4,0.9l0.9,10l-14.5,1.3l-4-44.4l14.5-1.3l0.9,10l10.4-0.9l-0.9-10.4l-4.9,0.4l-0.4-4.9
		l-25.3,2.3l0.4,4.9l-5,0.5l4.1,45.3l5-0.5l0.5,5l25.3-2.3L261.5,81.4z M211.6,90.9L222,90l-5-55.2l-10.4,0.9l0.4,4.9l-5,0.5l0.5,5
		l-4.9,0.4l0.4,4.9l-5,0.5l0.5,5l-4.5,0.4l-0.5-5l-4.9,0.4l-0.4-4.9l-5,0.5l-0.5-5l-4.9,0.4l-0.4-4.9l-10.4,0.9l5,55.2l10.4-0.9
		l-3.6-39.8l4.5-0.4l0.4,4.9l4.9-0.4l0.5,5l5-0.5l0.4,4.9l5.4-0.5l-0.4-4.9l4.9-0.4l-0.5-5l5-0.5l-0.4-4.9l4.5-0.4L211.6,90.9z
		 M146.8,96.8l10.4-0.9l-5-55.2l-10.4,0.9L146.8,96.8z"/>
</g>
</svg>
