<?xml version="1.0" encoding="utf-8"?>
<!-- Generator: Adobe Illustrator 23.0.2, SVG Export Plug-In . SVG Version: 6.00 Build 0)  -->
<svg version="1.1" xmlns="http://www.w3.org/2000/svg" xmlns:xlink="http://www.w3.org/1999/xlink" x="0px" y="0px"
	 viewBox="0 0 229.96 472.09" style="enable-background:new 0 0 229.96 472.09;" xml:space="preserve">
<g id="Layer_2">
	<rect y="80.37" width="25.55" height="20.09"/>
	<rect x="12.78" y="70.33" width="25.55" height="20.09"/>
	<rect x="25.55" y="60.29" width="25.55" height="20.09"/>
	<rect x="38.33" y="50.24" width="25.55" height="20.09"/>
	<rect x="51.1" y="40.2" width="25.55" height="20.09"/>
	<rect x="63.88" y="30.13" width="25.55" height="20.09"/>
	<rect x="76.65" y="20.09" width="25.55" height="20.09"/>
	<rect x="89.43" y="10.04" width="25.55" height="20.09"/>
	<rect x="102.2" width="25.55" height="30.13"/>
	<rect x="114.98" y="10.04" width="25.55" height="20.09"/>
	<rect x="127.75" y="20.09" width="25.55" height="20.09"/>
	<rect x="140.53" y="30.13" width="25.55" height="20.09"/>
	<rect x="153.3" y="40.18" width="25.55" height="20.09"/>
	<rect x="166.08" y="50.22" width="25.55" height="20.09"/>
	<rect x="178.85" y="60.26" width="25.55" height="20.09"/>
	<rect x="191.63" y="70.35" width="25.55" height="20.09"/>
	<rect x="204.4" y="80.4" width="25.55" height="20.09"/>
	<rect y="81.37" width="25.55" height="20.09"/>
	<rect x="12.78" y="71.33" width="25.55" height="20.09"/>
	<rect x="25.55" y="61.29" width="25.55" height="20.09"/>
	<rect x="38.33" y="51.24" width="25.55" height="20.09"/>
	<rect x="51.1" y="41.2" width="25.55" height="20.09"/>
	<rect x="63.88" y="31.13" width="25.55" height="20.09"/>
	<rect x="76.65" y="21.09" width="25.55" height="20.09"/>
	<rect x="89.43" y="11.04" width="25.55" height="20.09"/>
	<rect x="102.2" y="1" width="25.55" height="30.13"/>
	<rect x="114.98" y="11.04" width="25.55" height="20.09"/>
	<rect x="127.75" y="21.09" width="25.55" height="20.09"/>
	<rect x="140.53" y="31.13" width="25.55" height="20.09"/>
	<rect x="153.3" y="41.18" width="25.55" height="20.09"/>
	<rect x="166.08" y="51.22" width="25.55" height="20.09"/>
	<rect x="178.85" y="61.26" width="25.55" height="20.09"/>
	<rect x="191.63" y="71.35" width="25.55" height="20.09"/>
	<rect x="204.4" y="81.4" width="25.55" height="20.09"/>
</g>
<g id="Layer_3">
	<rect x="0" y="371.62" width="25.55" height="20.09"/>
	<rect x="12.78" y="381.67" width="25.55" height="20.09"/>
	<rect x="25.55" y="391.71" width="25.55" height="20.09"/>
	<rect x="38.33" y="401.76" width="25.55" height="20.09"/>
	<rect x="51.1" y="411.8" width="25.55" height="20.09"/>
	<rect x="63.88" y="421.87" width="25.55" height="20.09"/>
	<rect x="76.65" y="431.91" width="25.55" height="20.09"/>
	<rect x="89.43" y="441.95" width="25.55" height="20.09"/>
	<rect x="102.2" y="441.95" width="25.55" height="30.13"/>
	<rect x="114.98" y="441.95" width="25.55" height="20.09"/>
	<rect x="127.75" y="431.91" width="25.55" height="20.09"/>
	<rect x="140.53" y="421.87" width="25.55" height="20.09"/>
	<rect x="153.3" y="411.82" width="25.55" height="20.09"/>
	<rect x="166.08" y="401.78" width="25.55" height="20.09"/>
	<rect x="178.85" y="391.73" width="25.55" height="20.09"/>
	<rect x="191.63" y="381.65" width="25.55" height="20.09"/>
	<rect x="204.4" y="371.6" width="25.55" height="20.09"/>
	<rect x="0" y="370.62" width="25.55" height="20.09"/>
	<rect x="12.78" y="380.67" width="25.55" height="20.09"/>
	<rect x="25.55" y="390.71" width="25.55" height="20.09"/>
	<rect x="38.33" y="400.76" width="25.55" height="20.09"/>
	<rect x="51.1" y="410.8" width="25.55" height="20.09"/>
	<rect x="63.88" y="420.87" width="25.55" height="20.09"/>
	<rect x="76.65" y="430.91" width="25.55" height="20.09"/>
	<rect x="89.43" y="440.95" width="25.55" height="20.09"/>
	<rect x="102.2" y="440.95" width="25.55" height="30.13"/>
	<rect x="114.98" y="440.95" width="25.55" height="20.09"/>
	<rect x="127.75" y="430.91" width="25.55" height="20.09"/>
	<rect x="140.53" y="420.87" width="25.55" height="20.09"/>
	<rect x="153.3" y="410.82" width="25.55" height="20.09"/>
	<rect x="166.08" y="400.78" width="25.55" height="20.09"/>
	<rect x="178.85" y="390.73" width="25.55" height="20.09"/>
	<rect x="191.63" y="380.65" width="25.55" height="20.09"/>
	<rect x="204.4" y="370.6" width="25.55" height="20.09"/>
</g>
</svg>
