<?xml version="1.0" encoding="utf-8"?>
<!-- Generator: Adobe Illustrator 23.0.2, SVG Export Plug-In . SVG Version: 6.00 Build 0)  -->
<svg version="1.1" xmlns="http://www.w3.org/2000/svg" xmlns:xlink="http://www.w3.org/1999/xlink" x="0px" y="0px"
	 viewBox="0 0 229.96 102.48" style="enable-background:new 0 0 229.96 102.48;" xml:space="preserve">
<g id="Layer_2">
	<rect y="-289.23" width="25.55" height="20.09"/>
	<rect x="12.78" y="-299.27" width="25.55" height="20.09"/>
	<rect x="25.55" y="-309.32" width="25.55" height="20.09"/>
	<rect x="38.33" y="-319.36" width="25.55" height="20.09"/>
	<rect x="51.1" y="-329.4" width="25.55" height="20.09"/>
	<rect x="63.88" y="-339.47" width="25.55" height="20.09"/>
	<rect x="76.65" y="-349.51" width="25.55" height="20.09"/>
	<rect x="89.43" y="-359.56" width="25.55" height="20.09"/>
	<rect x="102.2" y="-369.6" width="25.55" height="30.13"/>
	<rect x="114.98" y="-359.56" width="25.55" height="20.09"/>
	<rect x="127.75" y="-349.51" width="25.55" height="20.09"/>
	<rect x="140.53" y="-339.47" width="25.55" height="20.09"/>
	<rect x="153.3" y="-329.43" width="25.55" height="20.09"/>
	<rect x="166.08" y="-319.38" width="25.55" height="20.09"/>
	<rect x="178.85" y="-309.34" width="25.55" height="20.09"/>
	<rect x="191.63" y="-299.25" width="25.55" height="20.09"/>
	<rect x="204.4" y="-289.21" width="25.55" height="20.09"/>
	<rect y="-288.23" width="25.55" height="20.09"/>
	<rect x="12.78" y="-298.27" width="25.55" height="20.09"/>
	<rect x="25.55" y="-308.32" width="25.55" height="20.09"/>
	<rect x="38.33" y="-318.36" width="25.55" height="20.09"/>
	<rect x="51.1" y="-328.4" width="25.55" height="20.09"/>
	<rect x="63.88" y="-338.47" width="25.55" height="20.09"/>
	<rect x="76.65" y="-348.51" width="25.55" height="20.09"/>
	<rect x="89.43" y="-358.56" width="25.55" height="20.09"/>
	<rect x="102.2" y="-368.6" width="25.55" height="30.13"/>
	<rect x="114.98" y="-358.56" width="25.55" height="20.09"/>
	<rect x="127.75" y="-348.51" width="25.55" height="20.09"/>
	<rect x="140.53" y="-338.47" width="25.55" height="20.09"/>
	<rect x="153.3" y="-328.43" width="25.55" height="20.09"/>
	<rect x="166.08" y="-318.38" width="25.55" height="20.09"/>
	<rect x="178.85" y="-308.34" width="25.55" height="20.09"/>
	<rect x="191.63" y="-298.25" width="25.55" height="20.09"/>
	<rect x="204.4" y="-288.21" width="25.55" height="20.09"/>
</g>
<g id="Layer_3">
	<rect x="0" y="2.02" width="25.55" height="20.09"/>
	<rect x="12.78" y="12.07" width="25.55" height="20.09"/>
	<rect x="25.55" y="22.11" width="25.55" height="20.09"/>
	<rect x="38.33" y="32.15" width="25.55" height="20.09"/>
	<rect x="51.1" y="42.2" width="25.55" height="20.09"/>
	<rect x="63.88" y="52.26" width="25.55" height="20.09"/>
	<rect x="76.65" y="62.31" width="25.55" height="20.09"/>
	<rect x="89.43" y="72.35" width="25.55" height="20.09"/>
	<rect x="102.2" y="72.35" width="25.55" height="30.13"/>
	<rect x="114.98" y="72.35" width="25.55" height="20.09"/>
	<rect x="127.75" y="62.31" width="25.55" height="20.09"/>
	<rect x="140.53" y="52.26" width="25.55" height="20.09"/>
	<rect x="153.3" y="42.22" width="25.55" height="20.09"/>
	<rect x="166.08" y="32.18" width="25.55" height="20.09"/>
	<rect x="178.85" y="22.13" width="25.55" height="20.09"/>
	<rect x="191.63" y="12.04" width="25.55" height="20.09"/>
	<rect x="204.4" y="2" width="25.55" height="20.09"/>
	<rect x="0" y="1.02" width="25.55" height="20.09"/>
	<rect x="12.78" y="11.07" width="25.55" height="20.09"/>
	<rect x="25.55" y="21.11" width="25.55" height="20.09"/>
	<rect x="38.33" y="31.15" width="25.55" height="20.09"/>
	<rect x="51.1" y="41.2" width="25.55" height="20.09"/>
	<rect x="63.88" y="51.26" width="25.55" height="20.09"/>
	<rect x="76.65" y="61.31" width="25.55" height="20.09"/>
	<rect x="89.43" y="71.35" width="25.55" height="20.09"/>
	<rect x="102.2" y="71.35" width="25.55" height="30.13"/>
	<rect x="114.98" y="71.35" width="25.55" height="20.09"/>
	<rect x="127.75" y="61.31" width="25.55" height="20.09"/>
	<rect x="140.53" y="51.26" width="25.55" height="20.09"/>
	<rect x="153.3" y="41.22" width="25.55" height="20.09"/>
	<rect x="166.08" y="31.18" width="25.55" height="20.09"/>
	<rect x="178.85" y="21.13" width="25.55" height="20.09"/>
	<rect x="191.63" y="11.04" width="25.55" height="20.09"/>
	<rect x="204.4" y="1" width="25.55" height="20.09"/>
</g>
</svg>
