<?xml version="1.0" encoding="UTF-8"?>
<svg id="Layer_2" data-name="Layer 2" xmlns="http://www.w3.org/2000/svg" viewBox="0 0 32 27">
  <defs>
    <style>
      .cls-1 {
        fill: #fff;
      }
    </style>
  </defs>
  <g id="play">
    <polyline class="cls-1" points="27 11 27 10 25 10 25 9 23 9 23 8 20 8 20 7 18 7 18 6 15 6 15 5 13 5 13 4 10 4 10 3 8 3 8 2 5 2 5 1 3 1 3 0 0 0 0 27 3 27 3 26 5 26 5 25 8 25 8 24 10 24 10 23 13 23 13 22 15 22 15 21 18 21 18 20 20 20 20 19 23 19 23 18 25 18 25 17 27 17 27 16 29 16 29 15 31 15 31 14 32 14 32 13 31 13 31 12 29 12 29 11"/>
  </g>
</svg>