<?xml version="1.0" encoding="utf-8"?>
<!-- Generator: Adobe Illustrator 23.0.2, SVG Export Plug-In . SVG Version: 6.00 Build 0)  -->
<svg version="1.1" xmlns="http://www.w3.org/2000/svg" xmlns:xlink="http://www.w3.org/1999/xlink" x="0px" y="0px"
	 viewBox="0 0 958 443" style="enable-background:new 0 0 958 443;" xml:space="preserve">
<style type="text/css">
	.st0{fill:#CDCDFF;}
	.st1{fill:none;stroke:#CDCDFF;stroke-width:0.1;stroke-miterlimit:10;}
	.st2{fill:none;stroke:#CDCDFF;stroke-width:0.3;stroke-miterlimit:10;}
	.st3{fill:none;stroke:#CDCDFF;stroke-miterlimit:10;}
	.st4{fill:none;stroke:#CDCDFF;stroke-width:1.3;stroke-miterlimit:10;}
	.st5{fill:none;stroke:#CDCDFF;stroke-width:1.45;stroke-miterlimit:10;}
	.st6{fill:none;stroke:#CDCDFF;stroke-width:1.26;stroke-miterlimit:10;}
	.st7{fill:none;stroke:#CDCDFF;stroke-width:2;stroke-miterlimit:10;}
	.st8{fill:none;}
	.st9{fill:none;stroke:#CDCDFF;stroke-width:1.95;stroke-miterlimit:10;}
	.st10{fill:none;stroke:#CDCDFF;stroke-width:0.4;stroke-miterlimit:10;}
	.st11{fill:none;stroke:#CDCDFF;stroke-width:0.2;stroke-miterlimit:10;}
	.st12{fill:none;stroke:#CDCDFF;stroke-width:0.03;stroke-miterlimit:10;}
	.st13{fill:none;stroke:#CDCDFF;stroke-width:0.05;stroke-miterlimit:10;}
	.st14{fill:none;stroke:#CDCDFF;stroke-width:0.5;stroke-miterlimit:10;}
	.st15{fill:none;stroke:#CDCDFF;stroke-width:4;stroke-miterlimit:10;}
	.st16{fill:none;stroke:#CDCDFF;stroke-width:5;stroke-miterlimit:10;}
	.st17{fill:none;stroke:#CECEFF;stroke-miterlimit:10;}
	.st18{fill:none;stroke:#CECEFF;stroke-width:0.02;stroke-miterlimit:10;}
	.st19{fill:#CECEFF;}
	.st20{fill:none;stroke:#CECEFF;stroke-width:0.025;stroke-miterlimit:10;}
	.st21{fill:none;stroke:#CECEFF;stroke-width:0.036;stroke-miterlimit:10;}
	.st22{fill:none;stroke:#CECEFF;stroke-width:9.000000e-03;stroke-miterlimit:10;}
	.st23{fill:#CCCCFF;}
	.st24{fill:#FF00C9;stroke:#CCCCFF;stroke-width:2.26;stroke-miterlimit:10;}
	.st25{fill:#FFFFFF;}
	.st26{fill:none;stroke:#CCCCFF;stroke-width:2;stroke-miterlimit:10;}
	.st27{fill:none;stroke:#CECEFF;stroke-width:0.15;stroke-miterlimit:10;}
</style>
<g id="Layer_1">
	<path class="st0" d="M762.36,312.79c-0.74-0.04-1.48-0.07-2.22-0.11"/>
	<path class="st0" d="M771.24,326.91"/>
	<path class="st0" d="M778.86,324.28"/>
	<path class="st0" d="M769.47,325.51"/>
	<path class="st1" d="M769.55,330.82c0.22-3.25,0.07-5.9-0.34-5.93"/>
	<path class="st0" d="M777.7,318.03c-0.1,0-0.21,0.02-0.31,0.05c-0.09-0.09-0.17-0.19-0.27-0.28c-0.36-0.94-1-1.76-1.9-2.3
		c-0.35-0.44-0.8-0.81-1.32-1.1c-0.65-0.24-1.68-0.6-2.98-0.95c-2.5-0.68-5.44-1.48-8.84-1.1c-0.77,0.09-0.69,0.14-3.11,0.49
		c-1.92,0.28-2.4,0.32-3.13,0.61c-0.25,0.1-0.38,0.19-2.58,1.87c-1.46,1.12-1.55,1.19-1.71,1.37c-0.73,0.82-1.03,1.63-1.46,2.86
		c-0.25,0.72-1.13,3.2-0.68,3.44c0.27,0.14,0.93-0.59,1.77-1.51c1-1.1,0.94-1.34,1.56-1.77c0.39-0.27,0.67-0.37,2.22-0.9
		c1.43-0.49,2.15-0.74,2.17-0.74c1.57-0.29,1.98,0.36,4.26,0.46c1.74,0.07,1.61-0.3,2.61-0.09c2.01,0.43,3.25,2.08,3.59,2.54
		c0.56,0.75,0.88,1.46,1.06,1.95c0.05,0.04,0.11,0.08,0.17,0.13c0.06,0.04,0.12,0.08,0.18,0.12c0.04,0.05,0.07,0.1,0.12,0.15
		c0.08,0.2,0.15,0.4,0.25,0.59c0.12,0.23,0.24,0.47,0.36,0.7c0.02,0.16,0.06,0.32,0.09,0.48c-0.17,0.48-0.25,0.99-0.22,1.5
		c0.01,0.15,0.02,0.3,0.03,0.45c0.01,0.15,0.04,0.29,0.06,0.43c-0.02,0.16-0.05,0.32-0.05,0.48v0.01c0,0.2,0.04,0.4,0.06,0.6
		c-0.49,6.67-0.97,13.34-1.46,20.01l4.24,0.33l0,0.03l5.29,0.38l1.23,0.09c0,0,0,0,0-0.01l0.39,0.03
		c0.59-8.11,1.17-16.21,1.76-24.32C781.02,320.87,779.13,318.03,777.7,318.03z"/>
	<line class="st1" x1="769.65" y1="328.55" x2="768.49" y2="348.61"/>
	<path class="st0" d="M740.71,294.55l-3.85,49.87l10.75,0.83c0.59-7.65,1.18-15.3,1.77-22.95c0.69-8.97,1.39-17.94,2.08-26.92
		C747.88,295.1,744.29,294.83,740.71,294.55z"/>
	<path class="st2" d="M748.71,329.32c0.15-3.99,1.18-7.18,2.29-7.14"/>
	<path class="st3" d="M749.4,322.46c0-5.72,5.7-10.36,12.74-10.36"/>
	<path class="st3" d="M748.88,325.13c1.75-5.45,8.59-8.12,15.3-5.97"/>
	<path class="st4" d="M762.92,318.62c3.63,0.81,6.3,3.72,7.27,7.39c0.16,0.6,0.27,1.21,0.34,1.84c0.13,1.3,0.06,2.67-0.25,4.04"/>
	<path class="st5" d="M772.17,316.96c5.45,1.16,8.8,7.07,7.49,13.2"/>
	<path class="st5" d="M780.24,323.99c-0.07-6.54-8.2-11.75-18.16-11.64"/>
	<path class="st6" d="M780.04,328.2c0.63-4.01,0.19-7.4-0.98-7.58"/>
	<ellipse id="o_interior" class="st7" cx="688.73" cy="324.33" rx="14.7" ry="11.18"/>
	<path id="o_1" class="st0" d="M688.73,306.3c-13.08,0-23.68,8.07-23.68,18.03s10.6,18.03,23.68,18.03
		c13.08,0,23.68-8.07,23.68-18.03S701.81,306.3,688.73,306.3z M702.78,326.21c-0.03,0.26-0.09,0.52-0.17,0.79
		c-0.82,2.61-2.34,4.02-4.29,5.23c-0.58,0.72-1.41,1.32-2.53,1.67c-0.33,0.1-0.67,0.17-1,0.23c-0.21,0.1-0.42,0.18-0.65,0.25
		c-0.05,0.02-0.1,0.03-0.15,0.05c-3.66,1.99-8.11,1.98-11.7-0.21c-1.05-0.31-2.02-0.96-2.7-1.77c-0.17-0.07-0.35-0.15-0.51-0.24
		c-0.05-0.03-0.09-0.06-0.14-0.09c-1.1-0.3-2.32-1.26-2.85-2.26c-0.21-0.4-0.35-0.82-0.47-1.25c-0.43-0.5-0.78-1.09-0.99-1.77
		c-0.09-0.28-0.14-0.56-0.19-0.84c-0.32-0.86-0.38-1.88-0.05-3.01c0.03-0.1,0.07-0.19,0.1-0.29c0.5-3.89,5-7.12,8.3-8.28
		c0.6-0.21,1.22-0.38,1.85-0.53c0.61-0.22,1.2-0.31,1.77-0.3c0.83-0.1,1.66-0.15,2.49-0.14c0.15-0.03,0.3-0.07,0.45-0.08
		c2.4-0.26,4.62,0.69,6.71,1.86c0.97,0.35,1.9,0.86,2.75,1.5c1.64,0.76,2.92,2.11,3.24,3.81
		C702.99,322.3,703.34,324.28,702.78,326.21z"/>
	<path class="st0" d="M644.55,322h0.14c-0.04-0.18-0.1-0.35-0.14-0.52v-0.02h-0.01c-2.1-8.11-11.28-14.46-22.55-14.86
		c-13.07-0.47-23.96,7.21-24.32,17.16c-0.36,9.95,9.94,18.4,23.01,18.87c8.82,0.32,16.65-3.08,20.91-8.38l-7.23-4.86
		c-0.92,1.59-2.2,2.59-3.74,3.46c-0.6,0.7-1.45,1.27-2.59,1.58c-0.33,0.09-0.67,0.15-1.01,0.19c-0.21,0.09-0.43,0.16-0.66,0.22
		c-0.05,0.02-0.1,0.03-0.15,0.05c-3.73,1.86-8.18,1.69-11.68-0.63c-1.04-0.35-1.98-1.03-2.63-1.87c-0.17-0.08-0.34-0.16-0.5-0.26
		c-0.05-0.03-0.09-0.07-0.13-0.1c-1.09-0.34-2.28-1.35-2.76-2.36c-0.2-0.41-0.32-0.83-0.42-1.26c-0.41-0.52-0.73-1.12-0.93-1.8
		c-0.06-0.2-0.08-0.4-0.11-0.6h37.48V322z M615.79,314.5c0.6-0.19,1.23-0.34,1.87-0.46c0.62-0.19,1.21-0.27,1.78-0.24
		c0.83-0.07,1.67-0.09,2.5-0.04c0.15-0.02,0.3-0.06,0.46-0.07c2.41-0.18,4.6,0.86,6.64,2.1c0.96,0.39,1.87,0.93,2.7,1.59
		c0.96,0.49,1.78,1.19,2.35,2.03c-0.13,0.67-0.15,1.37-0.04,2.05h-26.57C608.66,318.07,612.75,315.44,615.79,314.5z"/>
	
		<rect x="642.75" y="322.2" transform="matrix(0.9749 -0.2224 0.2224 0.9749 -55.793 151.3131)" class="st0" width="2.09" height="2.25"/>
	<path class="st8" d="M644.87,322.46c-0.28-1.41-0.71-2.5-0.94-2.46"/>
	<path id="e_2_interior_2_" class="st7" d="M634.8,329.59c-2.33,4.01-7.71,6.7-13.86,6.47c-8.11-0.29-14.51-5.53-14.28-11.7
		c0.22-6.17,6.98-10.94,15.09-10.64c6.08,0.22,11.2,3.22,13.29,7.31"/>
	<line class="st9" x1="642.2" y1="325.03" x2="645.21" y2="325.03"/>
	<path class="st2" d="M645.21,326.01c0-4.8-2.2-8.69-4.91-8.69"/>
	
		<rect x="633.99" y="328.9" transform="matrix(0.8245 0.5658 -0.5658 0.8245 297.4141 -301.0133)" class="st0" width="0.11" height="0.24"/>
	<line class="st10" x1="633.99" y1="329.09" x2="641.41" y2="334.4"/>
	<path class="st0" d="M579.14,326.58l0.14-0.01c-0.05-0.17-0.12-0.34-0.18-0.51l0-0.02l-0.01,0c-2.59-7.97-12.14-13.74-23.41-13.46
		c-13.08,0.32-23.48,8.65-23.23,18.61c0.25,9.95,11.05,17.76,24.12,17.44c8.83-0.22,16.43-4.09,20.37-9.64l-7.51-4.41
		c-0.83,1.64-2.04,2.72-3.52,3.68c-0.56,0.74-1.38,1.35-2.49,1.74c-0.33,0.11-0.66,0.19-1,0.25c-0.21,0.1-0.42,0.19-0.64,0.26
		c-0.05,0.02-0.1,0.04-0.14,0.06c-3.61,2.08-8.06,2.18-11.7,0.08c-1.06-0.28-2.04-0.91-2.74-1.71c-0.17-0.07-0.35-0.14-0.51-0.23
		c-0.05-0.03-0.09-0.06-0.14-0.09c-1.11-0.28-2.35-1.21-2.9-2.18c-0.22-0.39-0.37-0.81-0.5-1.24c-0.44-0.49-0.8-1.07-1.03-1.74
		c-0.07-0.2-0.11-0.39-0.15-0.59l37.42-2.28L579.14,326.58z M549.98,320.84c0.59-0.22,1.21-0.41,1.84-0.57
		c0.6-0.23,1.19-0.34,1.76-0.35c0.83-0.12,1.66-0.19,2.49-0.2c0.15-0.03,0.3-0.07,0.45-0.1c2.4-0.32,4.64,0.58,6.76,1.69
		c0.98,0.33,1.92,0.81,2.79,1.43c0.99,0.43,1.85,1.08,2.46,1.88c-0.09,0.68-0.06,1.38,0.09,2.05l-26.52,1.62
		C543.07,324.84,546.99,321.97,549.98,320.84z"/>
	<path class="st2" d="M580.15,330.53c-0.29-4.79-2.72-8.54-5.43-8.37"/>
	<line class="st9" x1="577.07" y1="329.74" x2="580.07" y2="329.56"/>
	
		<rect x="577.55" y="326.77" transform="matrix(0.9596 -0.2814 0.2814 0.9596 -68.8867 176.0552)" class="st0" width="2.09" height="2.25"/>
	<path id="e_2_interior_1_" class="st7" d="M569.79,334.75c-2.08,4.14-7.28,7.15-13.44,7.31c-8.11,0.2-14.82-4.64-14.97-10.81
		c-0.15-6.17,6.3-11.34,14.41-11.54c6.09-0.15,11.38,2.53,13.71,6.49"/>
	<line class="st10" x1="568.93" y1="334.28" x2="576.72" y2="339.17"/>
	
		<rect x="568.95" y="334.11" transform="matrix(0.8575 0.5146 -0.5146 0.8575 253.0967 -245.1453)" class="st0" width="0.11" height="0.24"/>
	<line class="st5" x1="779.95" y1="320.35" x2="779.95" y2="320.35"/>
	<path class="st0" d="M512.4,357.33l-10.64,1.75c-0.79-4.83-2.66-16.22-4.43-26.99c-1.6-9.71-3.11-18.93-3.67-22.37
		c3.55-0.58,7.09-1.17,10.64-1.75L512.4,357.33z"/>
	<path class="st0" d="M487.89,332.09"/>
	<path class="st0" d="M489.4,332.72c0.79-0.19,1.72-0.37,4.04-0.56c1.18-0.09,2.74-0.19,4.6-0.24c-0.56-2.8-1.11-5.6-1.67-8.41
		c-1.73,0-3.71,0.1-5.87,0.4c-1.91,0.26-3.64,0.63-5.15,1.03c-2.38,1.11-4.76,2.22-7.14,3.33c-2.11,1.75-4.23,3.49-6.34,5.24
		l-2.54,4.43c-0.39,0.85-0.89,2.22-1.03,3.96c-0.14,1.77,0.14,3.22,0.4,4.12c0.11,1.38,0.26,2.54,0.4,3.41
		c0.16,1,0.28,1.57,0.58,2.24c0.3,0.67,0.66,1.17,0.93,1.49c0.14,0.41,0.39,1,0.85,1.61c0.69,0.92,1.49,1.37,2.08,1.72
		c1.11,0.65,2.44,1.45,4.2,2.56c1.14,0.55,2.69,1.16,4.6,1.56c1.98,0.41,3.7,0.46,5,0.4c0.92-0.04,2.11-0.12,3.49-0.24
		c0.97-0.08,2.68-0.24,4.84-0.56c1.63-0.24,3.7-0.6,6.09-1.16l-1.29-7.83c-3.43,0.57-6.85,1.13-10.28,1.7
		c-2.17-0.08-4.33-0.16-6.5-0.24c-0.49-0.06-2.12-0.34-3.41-1.74c-0.82-0.9-1.14-1.86-1.27-2.38c-0.16-1.59-0.32-3.17-0.48-4.76
		l0.79-3.49l1.59-3.01l2.38-2.22l3.65-1.58C487.5,333.29,488.35,332.98,489.4,332.72z"/>
	<path class="st0" d="M468.31,341.92c0-10.17,12.55-18.4,28.07-18.4"/>
	<path class="st0" d="M490.23,360.4c0.23,0.13,0.56,0.27,0.95,0.24c0.19-0.02,0.32-0.07,0.36-0.08c0.37-0.13,3.06-0.7,10.47-2.14
		c-6.69-1.89-11.44-3.21-14.14-3.92c-1.55-0.41-3.06-0.95-4.61-1.36c-1.17-0.31-2.04-0.51-3.15-1.12c-0.99-0.54-2.03-1.11-2.42-2.16
		c-0.47-1.26,0.4-2.16,0.4-3.12c0.01-1.45-1.97-3.37-9.75-5.68c-0.26,1.37-1.61,9.26,3.42,14.68c4.26,4.6,10.6,4.88,13.36,5
		C487.25,360.83,489.03,360.61,490.23,360.4z"/>
	<path class="st3" d="M478.3,344.42c0.72-7.84,9.56-13.43,19.74-12.49"/>
	<path class="st3" d="M479.53,339.38c-0.14,0.35-2.99,7.8,0.8,11.58c2.4,2.39,6.15,2.2,10.25,1.98c4.6-0.25,8.18-1.56,10.31-2.52"/>
	<path class="st3" d="M483.6,334.7c-0.26,0.27-0.52,0.53-0.79,0.8c0.21-0.11,0.43-0.29,0.63-0.4c0,0.26,0,0.52,0,0.78
		c0.02-0.25,0.05-0.51,0.07-0.76c-0.1,0.13-0.18,0.28-0.23,0.43c0.08-0.17,0.17-0.34,0.25-0.5c-0.01,0.17-0.15,0.33-0.32,0.35
		c0.06-0.37,0.35-0.69,0.71-0.8c-0.04,0.23-0.2,0.43-0.41,0.51C483.39,334.93,483.51,334.9,483.6,334.7z"/>
	<path class="st3" d="M500.03,351.55c0.28-0.09,0.54-0.23,0.76-0.43c-0.2,0.17-0.44,0.3-0.69,0.36c0.17-0.2,0.41-0.34,0.67-0.4
		c0.12,0.21-0.23,0.47-0.41,0.31c-0.18-0.16,0.01-0.52,0.25-0.48c0.03,0.38-0.22,0.77-0.57,0.91c-0.06-0.24,0.04-0.51,0.25-0.64
		c0.1,0.18-0.04,0.43-0.23,0.45c0.32-0.1,0.66-0.14,1-0.12"/>
	<path class="st0" d="M512.59,357.73c-7.07,0.94-14.15,1.88-21.22,2.83c-0.33-1.39-0.66-2.77-0.99-4.16
		c7.01-1.21,14.02-2.42,21.03-3.64C511.81,354.42,512.2,356.07,512.59,357.73z"/>
	<path class="st0" d="M513.15,352.94"/>
	<path class="st0" d="M468.67,350.12c1.1,3.31,2.69,5.55,4.18,7.1c7.77,8.05,23.51,8.12,39.54,0.63"/>
	<path class="st0" d="M412.46,363.14l0.47-0.15l-5.3-16.82l-10.29,3.24l5.3,16.82l0.05-0.02c0.01,0.02,0.01,0.03,0.02,0.05
		c0.17,0.55,0.43,1.07,0.79,1.52c0.03,0.05,0.06,0.11,0.1,0.16c0.01,0.02,0.02,0.03,0.04,0.05c0.13,0.17,0.26,0.32,0.41,0.47l0,0
		c0.78,1.17,2.07,2,3.92,2c3.46,0,5.06-2.9,4.8-5.58C412.76,364.3,412.67,363.71,412.46,363.14z"/>
	
		<rect x="433.26" y="337.24" transform="matrix(0.9538 -0.3005 0.3005 0.9538 -86.2251 148.1793)" class="st0" width="10.78" height="34.38"/>
	<path class="st0" d="M431.54,362.96"/>
	<path class="st2" d="M412.74,363c0.12,0.61,0.37,1.45,0.99,2.24c1.89,2.41,5.56,2.26,7.23,2.19c0.41-0.02,10.01-0.54,12.22-7.03
		c0.13-0.38,0.22-0.78,0.22-0.78c0.39-1.67,0.18-3.12-0.03-4.04"/>
	<path class="st0" d="M402.85,366.25c0.34,1.04,0.94,2.54,2.07,4.09c2.83,3.89,6.82,5.2,8.25,5.65c5.3,1.66,12.43,0.94,17.53-3.82
		c4.41-4.11,5.27-9.34,5.47-11.06c-0.78,0.1-1.94,0.36-3.09,1.11c-1.6,1.04-1.79,2.13-3.33,3.38c-1.34,1.1-2.68,1.48-3.96,1.85
		c-1.6,0.46-3.26,0.4-6.5,0.32c-0.75-0.02-1.94,0.13-3.49-0.16c-0.49-0.09-1.09-0.03-1.64-0.42c-0.56-0.4-0.8-1.01-0.9-1.37"/>
	<path class="st1" d="M418.55,367.41c-2.46,0.03-4.71-1.48-5.5-3.84"/>
	
		<rect x="412.63" y="362.79" transform="matrix(0.9516 -0.3072 0.3072 0.9516 -91.688 144.4115)" class="st0" width="0.43" height="1.28"/>
	<line class="st1" x1="432.57" y1="352.81" x2="433.36" y2="356.09"/>
	<path class="st11" d="M433.3,355.58c0.01-0.07,0.02-0.14,0.02-0.21c-0.01,0.08,0,0.15,0.03,0.22c-0.02-0.07-0.04-0.13-0.06-0.19
		c0,0.04,0,0.07,0,0.09"/>
	<path class="st11" d="M433.24,355.17c-0.03-0.19-0.08-0.39-0.15-0.58"/>
	<path class="st8" d="M413.34,366.11c-0.52-0.3-1.02-0.64-1.49-1.01c0.38,0.3,0.76,0.61,1.14,0.91c-0.04-0.31-0.22-0.59-0.49-0.75
		c0.11,0.21,0.29,0.39,0.5,0.51c0.12-0.13,0.03-0.33-0.06-0.48c-0.24-0.37-0.51-0.73-0.8-1.06"/>
	<path class="st3" d="M415.15,368.14c0.11,0.04,0.22,0.08,0.33,0.12c-0.54-0.42-1.07-0.84-1.61-1.26c-0.37-0.29-1.11-0.66-1.19-1.17
		c0.21,0.3,0.9,1.51,1.3,1.51c0.41,0,0.32-0.74,0.74,0.04c-0.66-0.74-1.39-1.44-2.18-2.05c0.99,0.84,2.13,1.61,3.04,2.54
		c-0.23-0.23-0.47-0.44-0.73-0.63c0.91,0.19,1.8,0.42,2.69,0.68c-0.86-0.25-1.7-0.53-2.54-0.85"/>
	<path class="st3" d="M415.47,367.03c-0.63-0.35-1.32-0.7-1.71-1.3c-0.52-0.8-0.96-1.67-1.3-2.58"/>
	<path class="st3" d="M433.49,362.01c0.54-1.57,0.7-3.27,0.45-4.91c0.21,0.4,0.08,0.38,0.3,0.79"/>
	<path class="st3" d="M434.45,359.1c0.09,1.09,0.13,2.19,0.1,3.28c0.03-0.83,0.12-1.66,0.29-2.48c-0.11,0.64-0.26,1.27-0.45,1.9
		c0.13-0.67,0.25-1.34,0.38-2.01c-0.39,0.9-0.78,1.8-1.16,2.7c0.45-0.98,0.9-1.96,1.35-2.94c-0.02,0.31-0.05,0.61-0.07,0.92"/>
	<path class="st3" d="M433.02,362.33c0.27-0.59,0.47-1.21,0.6-1.85c-0.13,0.24-0.01,0.14-0.02,0.42"/>
	<path class="st3" d="M428.42,365.98c-0.28,0.16-0.5,0.45-0.79,0.58c-3.02,1.27-6.91,1.82-10.15,1.39c1.92,0.41,3.91,0.33,5.87,0.25
		c0.76-0.03,1.52-0.06,2.25-0.29c0.66-0.21,1.27-0.58,1.85-0.97c0.98-0.66,1.91-1.39,2.81-2.16c1.12-0.94,2.06-1.4,2.77-2.71"/>
	<path class="st3" d="M409.97,383.12c12.06,5.11,23.09,2.87,27.02-4.24c0.8-1.45,1.86-4.1,1.63-8.4"/>
	<path class="st3" d="M412.85,392.46c17.38,2.21,31.55-3.66,35.12-13.35c0.73-1.99,1.43-5.25,0.36-9.91"/>
	<line class="st11" x1="409.78" y1="383.87" x2="409.27" y2="382.36"/>
	<line class="st11" x1="410.7" y1="382.97" x2="409.25" y2="382.32"/>
	<line class="st12" x1="409.13" y1="382.18" x2="409.21" y2="382.44"/>
	<line class="st12" x1="409.37" y1="382.29" x2="409.13" y2="382.18"/>
	<rect x="409.2" y="382.25" class="st0" width="0.12" height="0.14"/>
	<rect x="409.2" y="382.25" class="st0" width="0.12" height="0.14"/>
	
		<rect x="409.19" y="382.17" transform="matrix(0.5386 -0.8426 0.8426 0.5386 -133.2512 521.1509)" class="st0" width="0.04" height="0.13"/>
	
		<rect x="409.17" y="382.21" transform="matrix(0.9387 -0.3447 0.3447 0.9387 -106.6998 164.4918)" class="st0" width="0.04" height="0.13"/>
	
		<rect x="409.41" y="382.47" transform="matrix(0.9487 -0.3162 0.3162 0.9487 -100.0465 149.1758)" class="st0" width="0.4" height="0.75"/>
	
		<rect x="409.67" y="382.62" transform="matrix(0.9487 -0.3162 0.3162 0.9487 -100.0816 149.2788)" class="st0" width="0.47" height="0.77"/>
	
		<rect x="412.49" y="392.37" transform="matrix(0.9947 0.1031 -0.1031 0.9947 42.7009 -40.4995)" class="st0" width="0.99" height="0.61"/>
	
		<rect x="412.38" y="392.35" transform="matrix(0.9557 -0.2942 0.2942 0.9557 -97.2497 138.7182)" class="st0" width="0.21" height="0.56"/>
	<path class="st13" d="M448.93,369.2c0,0,0.03,0.25,0.03,0.25c0.01,0.07,0.3,2.4,0.31,2.47"/>
	
		<rect x="448.77" y="369.17" transform="matrix(0.9909 -0.1345 0.1345 0.9909 -45.634 63.7136)" class="st0" width="0.23" height="1.07"/>
	<path class="st0" d="M448.78,368.61c0.16,0.4,0.3,0.82,0.42,1.26c1.02,3.69,0.14,7.1-0.71,9.28"/>
	<path class="st14" d="M437.55,368.03c0.35,0.92,0.72,2.23,0.81,3.83c0.06,1.13-0.03,2.11-0.16,2.89"/>
	<path class="st0" d="M444.75,369.36c0.19-0.03,0.82-0.12,1.67-0.16c0.79-0.03,1.45-0.02,1.91,0c0.41,1.59,0.61,2.92,0.71,3.88
		c0.17,1.61,0.06,2.12-0.04,2.46c-0.12,0.4-0.29,0.73-0.48,1.51c-0.13,0.52-0.11,0.61-0.24,1.1c-0.16,0.59-0.33,1.02-0.5,1.43
		c-0.24,0.57-0.38,0.94-0.66,1.39c-0.22,0.36-0.36,0.51-0.9,1.19c-0.93,1.15-0.86,1.13-1.19,1.51c-0.68,0.78-1.3,1.26-1.82,1.67
		c-3.2,2.49-3.07,2.58-4.17,3.31c-2.76,1.83-5.39,2.43-8.77,3.2c-2.36,0.54-4.18,0.73-4.81,0.79c-1.2,0.11-3.18,0.29-5.68,0.11
		c-2.64-0.19-3.06-0.58-4.76-0.32c-0.59,0.09-1.02,0.21-1.51-0.01c-0.99-0.46-1.06-1.82-1.47-3.56c-0.87-3.68-2.33-5.08-1.79-5.57
		c0.47-0.44,1.59,0.67,3.93,1.61c3.91,1.56,7.64,1.19,10.46,0.92c1.2-0.12,2.25-0.23,3.62-0.61c1.33-0.37,3.96-1.14,6.46-3.44
		c2.41-2.21,3.6-4.5,3.68-5.35c0.01-0.06,0.06-0.66,0.16-1.47c0.05-0.39,0.09-0.7,0.12-0.87c-0.2-1.29-0.34-2.22-0.33-2.22
		c0,0,0,0,0,0c0.07-0.45,2.75-1.31,2.75-1.31c0.29-0.17,0.69-0.41,1.27-0.63C443.23,369.58,443.97,369.47,444.75,369.36z"/>
	
		<rect x="366.83" y="359.81" transform="matrix(0.931 -0.3651 0.3651 0.931 -112.3258 162.0088)" class="st0" width="10.78" height="36.41"/>
	
		<ellipse transform="matrix(0.9538 -0.3005 0.3005 0.9538 -99.2656 124.391)" class="st15" cx="354.79" cy="384.93" rx="14.26" ry="12.13"/>
	
		<ellipse transform="matrix(0.9538 -0.3005 0.3005 0.9538 -99.408 124.1019)" class="st16" cx="353.78" cy="385.25" rx="18.7" ry="15.56"/>
	<path class="st17" d="M338.5,381.36c-0.4,1.3-1.02,3.92-0.32,7.08c1.1,4.95,4.63,7.65,5.6,8.35"/>
	
		<rect x="291.74" y="392.17" transform="matrix(0.8847 -0.4661 0.4661 0.8847 -157.0389 185.8165)" class="st0" width="10.78" height="36.41"/>
	<path class="st16" d="M298.54,404.24c0-9.58,6.12-17.34,13.69-17.34"/>
	<path class="st3" d="M300.46,407.07c0-9.17,5.77-16.6,12.9-16.6"/>
	<line class="st3" x1="312.02" y1="384.63" x2="313.19" y2="390.82"/>
	<path class="st3" d="M300.12,403.63c0.01,0.3-0.06,0.59-0.18,0.86"/>
	<path class="st0" d="M303.98,392.21c0.28-0.16,0.35-0.1,0.71-0.29c0.64-0.34,0.98-0.82,1.14-1c0.57-0.69,1.22-0.61,2.85-1.24
		c2.39-0.92,2.91-1.81,3.65-1.45c0.58,0.28,0.91,1.14,0.68,1.6c-0.19,0.36-0.69,0.39-1.31,0.49c0,0-2.5,0.41-4.76,1.96
		c-0.52,0.36-0.83,0.66-1.43,1.24c-0.92,0.9-2.08,2.22-3.17,4.07c0-0.06,0.03-0.95,0.03-1.01c0.01-0.49,0.02-0.73,0.02-0.76
		c0.01-0.26,0.04-1.01,0.34-1.82C302.94,393.42,303.24,392.62,303.98,392.21z"/>
	<rect x="312" y="384.4" class="st0" width="0.5" height="0.36"/>
	<line class="st18" x1="312.51" y1="384.4" x2="312.56" y2="384.85"/>
	<line class="st18" x1="312.48" y1="384.42" x2="312.53" y2="384.87"/>
	<rect x="313.25" y="390.67" class="st19" width="0.42" height="0.3"/>
	<line class="st20" x1="313.67" y1="390.71" x2="313.71" y2="390.96"/>
	<line class="st20" x1="313.65" y1="390.72" x2="313.7" y2="390.96"/>
	<line class="st21" x1="313.72" y1="390.95" x2="313.46" y2="390.95"/>
	<rect x="313.64" y="390.88" class="st19" width="0.05" height="0.05"/>
	<rect x="313.69" y="390.95" class="st19" width="0.03" height="0.02"/>
	<line class="st22" x1="313.71" y1="390.91" x2="313.72" y2="390.97"/>
	<path class="st23" d="M439.45,273.76l-5.79,2.55c-22.31,9.84-48.38-0.27-58.22-22.58l-66.24-150.16
		c-9.84-22.31,0.27-48.38,22.58-58.22l5.79-2.55c22.31-9.84,48.38,0.27,58.22,22.58l66.24,150.16
		C471.87,237.85,461.76,263.92,439.45,273.76z"/>
	<path class="st23" d="M304.88,330.71l-13.2,5.82c-20.26,8.94-43.94-0.24-52.88-20.5l-69.51-157.58
		c-8.94-20.26,0.24-43.94,20.5-52.88l13.2-5.82c20.26-8.94,43.94,0.24,52.88,20.5l69.51,157.58
		C334.32,298.1,325.14,321.77,304.88,330.71z"/>
	<path class="st23" d="M304.41,227.13l-5.6-1.79c-21.3-6.79-33.06-29.57-26.27-50.87l31.85-99.86c6.79-21.3,29.57-33.06,50.87-26.27
		l5.6,1.79c21.3,6.79,33.06,29.57,26.27,50.87l-31.85,99.86C348.48,222.16,325.71,233.92,304.41,227.13z"/>
	<path class="st23" d="M355.27,204.8L355.27,204.8c-10.74,21.44-36.83,30.11-58.27,19.37l-88.46-44.31
		c-21.44-10.74-30.11-36.83-19.37-58.27l0,0c10.74-21.44,36.83-30.11,58.27-19.37l88.46,44.31
		C357.33,157.27,366.01,183.36,355.27,204.8z"/>
	
		<ellipse transform="matrix(0.977 -0.2132 0.2132 0.977 -24.2982 49.4441)" class="st23" cx="217.08" cy="137.37" rx="52.17" ry="40.65"/>
	<path class="st23" d="M195.08,407.64L195.08,407.64c-18.87,18.08-48.82,17.45-66.9-1.41L18.99,292.32
		C0.9,273.45,1.54,243.5,20.4,225.42l0,0c18.87-18.08,48.82-17.45,66.9,1.41L196.5,340.74
		C214.58,359.61,213.95,389.56,195.08,407.64z"/>
	<path class="st23" d="M921.95,76.14l-3.7-3.83c-17.13-17.74-45.4-18.23-63.14-1.09L730.11,191.95
		c-17.74,17.13-18.23,45.4-1.09,63.14l3.7,3.83c17.13,17.74,45.4,18.23,63.14,1.09l39.83-38.48c0.13-0.14,0.27-0.27,0.42-0.4
		l43.77-42.28c-3.48-0.03-6.87-0.92-9.85-2.96c-2.82-1.39-5.18-3.48-6.77-6.81c-0.65-1.35-0.94-2.67-0.96-3.92
		c-2.72-1.76-4.74-4.8-4.15-8c2.14-11.73,12.43-16.38,23.06-18.7c2.24-0.49,4.18-0.18,5.77,0.62c3.9-0.31,7.05,1.98,8.78,5.32
		c2.99,3.85,5.78,7.49,7.3,12.07l17.79-17.18C938.59,122.15,939.08,93.88,921.95,76.14z"/>
	<path class="st23" d="M905.84,65.87l-5.32,0.19c-24.65,0.86-43.93,21.54-43.07,46.19l1.47,42c3.21-9.59,12.59-13.67,22.29-15.78
		c2.24-0.49,4.18-0.18,5.77,0.62c3.9-0.31,7.05,1.98,8.78,5.32c3.67,4.74,7.09,9.13,8.15,15.38c1.14,6.73-0.34,15.08-7.4,17.83
		c-3.91,1.52-9.2,1.52-13.88,1.1c-4.41,0.5-8.84-0.24-12.6-2.82c-2.82-1.39-5.18-3.48-6.77-6.81c-0.65-1.35-0.94-2.67-0.96-3.92
		c-1.24-0.81-2.34-1.87-3.11-3.11l4.56,130.59c0.86,24.65,21.54,43.93,46.19,43.07l5.32-0.19c24.65-0.86,43.93-21.54,43.07-46.19
		l-6.31-180.41C951.17,84.29,930.49,65.01,905.84,65.87z"/>
	<path class="st23" d="M917.05,61.01c-28.15-11.8-59.73-0.48-70.53,25.29c-8.85,21.11-0.94,45.3,17.66,59.86
		c4.44-4.08,10.67-6.31,17.03-7.7c2.24-0.49,4.18-0.18,5.77,0.62c3.9-0.31,7.05,1.98,8.78,5.32c3.45,4.45,6.65,8.62,7.9,14.29
		c19.56-0.91,37.24-11.66,44.78-29.65C959.26,103.27,945.2,72.81,917.05,61.01z"/>
	<path class="st23" d="M852.04,199.83c-10.17,2.22-16.83,11.34-14.97,20.44c0.08-0.09,0.16-0.18,0.25-0.27
		c0.84-0.84,1.99-1.48,3.22-1.88c0.29-0.16,0.56-0.34,0.86-0.47c1.96-0.87,3.72-1.27,5.73-1.39c3-0.43,6.04,0.18,8.56,1.92
		c2.76,1.91,4.25,4.73,5.05,7.92c0.31,1.23,0.41,2.5,0.65,3.74c0.14,0.68,0.18,1.35,0.17,2c0.01,0.17,0.03,0.34,0.04,0.51
		c8.91-3.03,14.46-11.53,12.61-19.98C872.22,203.21,862.29,197.6,852.04,199.83z"/>
	
		<rect x="856.09" y="144.79" transform="matrix(0.9996 -0.0284 0.0284 0.9996 -4.1329 24.4917)" class="st23" width="5.85" height="25.52"/>
	
		<rect x="858.93" y="135.29" transform="matrix(0.857 0.5153 -0.5153 0.857 199.5513 -422.9716)" class="st23" width="5.85" height="25.52"/>
	
		<rect x="894.58" y="160.52" transform="matrix(0.857 0.5153 -0.5153 0.857 217.8259 -438.3693)" class="st23" width="8.32" height="25.52"/>
	
		<rect x="884.28" y="166.77" transform="matrix(0.3253 0.9456 -0.9456 0.3253 770.2446 -718.1117)" class="st23" width="8.19" height="27.92"/>
	
		<rect x="899.75" y="145.99" transform="matrix(0.9996 -0.0284 0.0284 0.9996 -4.1829 25.7676)" class="st23" width="8.19" height="27.92"/>
	
		<rect x="897.55" y="135.88" transform="matrix(0.9032 -0.4292 0.4292 0.9032 22.9681 401.5164)" class="st23" width="8.19" height="27.92"/>
	
		<rect x="890.32" y="124" transform="matrix(0.4012 -0.916 0.916 0.4012 408.1208 902.5691)" class="st23" width="8.19" height="30.25"/>
	
		<rect x="841.72" y="167.63" transform="matrix(0.7395 -0.6732 0.6732 0.7395 100.1066 624.1929)" class="st23" width="29.65" height="30.25"/>
	<path class="st23" d="M697,49.4c-7.01-10-16.59-17.44-26.68-24.13c-0.43-0.45-0.89-0.88-1.45-1.28
		c-19.8-14.11-49.57-26.64-75.51-23.67c-2.5,0.07-4.99,0.42-7.47,0.93c-0.41,0.02-0.81,0.02-1.22,0.04
		c-1.42,0.08-2.85,0.28-4.16,0.79c-0.25,0.03-0.5,0.05-0.74,0.08c-4.72,0.68-9.36,1.95-13.96,3.18c-6.61,1.78-13,3.99-19.13,6.93
		c-0.07,0.03-0.13,0.04-0.2,0.06c-18.5,7.3-31.86,19.45-44.29,34.5c-1.3,1.47-2.53,2.98-3.72,4.51
		c-5.92,6.38-10.48,13.85-13.42,22.06c-3.26,5.8-5.33,12.65-6.74,18.92c-1.63,4.52-2.5,9.43-3.3,13.86
		c-1.03,5.65-1.45,11.27-1.18,16.89c-0.45,15.04,1.93,31.53,7.03,46.08c0.22,0.72,0.48,1.43,0.77,2.13
		c0.12,0.32,0.26,0.61,0.38,0.93c0.28,1.66,0.75,3.24,1.53,4.74c0.21,1.27,0.69,2.46,1.31,3.58c0.7,3.04,2.27,5.79,4.1,8.39
		c0.14,0.27,0.27,0.57,0.41,0.84c0.05,0.09,0.1,0.17,0.15,0.26c0.17,0.63,0.41,1.23,0.75,1.79c0.63,1.02,1.26,2.04,1.89,3.05
		c0.13,0.21,0.29,0.4,0.43,0.6c3.41,7.46,10.34,14.15,15.99,19.84c1.91,1.93,3.91,3.77,5.94,5.56c0.31,0.44,0.67,0.87,1.09,1.3
		c10.73,10.7,25.15,19.95,40.44,24.62c0.73,0.46,1.58,0.85,2.57,1.12c21.75,5.98,42.35,6.17,64.54,2.28
		c0.59-0.1,1.12-0.26,1.63-0.44c0.11-0.02,0.21-0.01,0.32-0.03c7.28-1.51,14.35-3.75,21.16-6.65c2.84-1.16,5.62-2.45,8.37-3.79
		c1.07-0.49,2.12-1,3.17-1.51c4.43-2.01,8.72-4.28,12.84-6.88c0.09-0.05,0.18-0.1,0.28-0.16c0.16-0.1,0.31-0.2,0.46-0.31
		c3.12-2.01,6.14-4.22,9.02-6.69c12.98-9.14,19.88-25.93,16.16-42.99c-4.9-22.43-26.3-36.82-47.81-32.12
		c-4.08,0.89-7.85,2.42-11.28,4.44c-0.87,0.4-1.73,0.82-2.57,1.3c-4.98,2.83-9.08,6.96-14.15,9.64c-6.45,3.39-13.83,4.51-21.03,4.63
		c-2.24,0.04-6.06,0.05-9.45-0.11c-0.12-0.02-0.24-0.04-0.35-0.06c-18.44-4.62-31.14-17.97-34.72-36.51
		c-0.23-5.18,0.72-10.27,2.31-15.21c0.94-2.91,2.37-5.61,3.81-8.31c0.66-0.69,1.2-1.51,1.64-2.42c0.59-1.01,1.35-1.92,2.02-2.87
		c4.39-3.57,8.08-6.95,13.73-8.99c3.43-1.24,7.01-2.29,10.62-3.1c6.16-0.63,12.34,0.61,18.52,1.29c0.37,0.12,0.75,0.22,1.15,0.3
		c-0.03-0.01,0.01,0,0.09,0.01c0.3,0.07,0.8,0.18,0.94,0.21c0.32,0.07,0.64,0.13,0.96,0.2c2.04,0.77,4.15,1.42,6.19,2.09
		c0.04,0.01,0.07,0.04,0.11,0.05c2.99,1.13,5.56,3.39,8.09,5.3c0.08,0.06,0.15,0.12,0.23,0.18c2.21,2.14,4.43,4.31,6.73,6.37
		c0.25,0.33,0.52,0.65,0.84,0.97c0.65,0.66,1.31,1.31,1.98,1.97c3.87,4.18,7.94,7.9,13.04,10.2c3.96,2.17,8.22,3.58,12.87,3.67
		c4.51,0.68,9.18,0.58,13.86-0.44c19.65-4.29,32.63-23.11,31.59-43.93c0.18-1.12,0.24-2.16,0.14-3.46c-0.07-0.8-0.18-1.45-0.32-2.09
		C706.38,65.22,701.68,56.07,697,49.4z"/>
	<line class="st24" x1="685.61" y1="42.43" x2="697.75" y2="57.93"/>
	<path class="st25" d="M632.57,36.51c-0.07-0.3-0.15-0.59-0.24-0.88c-0.01-0.03-0.02-0.06-0.03-0.09
		c-1.79-5.83-6.92-9.99-11.49-13.77c-2.52-2.08-4.99-3.73-7.62-4.87c-0.01,0-0.01-0.01-0.02-0.01c-0.66-0.41-1.67-0.9-2.42-1.13
		c-0.63-0.19-1.41-0.37-2.14-0.44c-0.36-0.06-0.71-0.13-1.07-0.17c-0.66-0.18-1.28-0.29-1.9-0.31c-0.4-0.05-0.8-0.06-1.21-0.05
		c-1.4-0.12-2.8-0.08-4.2,0.09c-0.97,0.04-1.94,0.15-2.9,0.28c-8.13,0.86-15.5,5.67-21.11,11.62c-0.22,0.24-0.43,0.48-0.63,0.73
		c-0.02,0.02-0.03,0.03-0.05,0.05c-0.85,0.92-1.54,2-2.03,3.16c-0.09,0.18-0.19,0.33-0.27,0.51c-2.72,6.28-0.3,13.37,5.42,15.85
		c4.77,2.07,10.31,0.25,13.6-4.05c0.43-0.36,0.83-0.74,1.2-1.17c5.72-3.78,12.4-3.1,17.47,1.89c0.21,0.36,0.48,0.67,0.76,0.97
		c0.61,1.23,1.39,2.34,2.3,3.29c2.25,2.44,5.61,3.85,8.94,3.49c0.17-0.01,0.33-0.04,0.5-0.06c0.16-0.03,0.32-0.02,0.49-0.06
		c0.05-0.01,0.09-0.03,0.13-0.04c0.07-0.01,0.13-0.02,0.2-0.03c5.85-1.28,9.53-7.34,8.5-13.75c-0.01-0.06-0.01-0.12-0.02-0.18
		c-0.02-0.09-0.04-0.17-0.06-0.26c-0.02-0.1-0.03-0.21-0.05-0.31C632.63,36.7,632.6,36.61,632.57,36.51z"/>
	<path class="st25" d="M287.4,199.35c0.2,0.23,0.4,0.46,0.61,0.68c0.02,0.02,0.05,0.05,0.07,0.07c4.25,4.38,10.71,5.75,16.5,7.03
		c3.19,0.71,6.14,1.05,9,0.87c0.01,0,0.01,0,0.02,0c0.77,0.06,1.9,0.04,2.67-0.1c0.65-0.12,1.43-0.31,2.1-0.58
		c0.34-0.11,0.69-0.21,1.03-0.33c0.67-0.14,1.28-0.33,1.83-0.58c0.38-0.13,0.74-0.31,1.1-0.5c1.3-0.53,2.53-1.2,3.7-1.99
		c0.85-0.48,1.66-1.01,2.45-1.57c6.84-4.47,11.22-12.11,13.5-19.96c0.09-0.31,0.16-0.62,0.23-0.94c0.01-0.02,0.02-0.05,0.02-0.07
		c0.34-1.21,0.46-2.49,0.37-3.74c0-0.19,0.02-0.38,0-0.58c-0.44-6.83-5.83-12.04-12.04-11.64c-5.19,0.33-9.3,4.47-10.26,9.8
		c-0.22,0.52-0.4,1.04-0.54,1.59c-3.37,5.97-9.63,8.41-16.41,6.27c-0.35-0.22-0.73-0.38-1.12-0.52c-1.11-0.82-2.3-1.46-3.55-1.88
		c-3.12-1.15-6.75-0.88-9.55,0.96c-0.14,0.09-0.28,0.19-0.42,0.28c-0.13,0.1-0.28,0.17-0.41,0.27c-0.04,0.03-0.06,0.07-0.1,0.09
		c-0.05,0.04-0.11,0.08-0.16,0.12c-4.63,3.8-5.14,10.87-1.31,16.11c0.04,0.05,0.06,0.11,0.1,0.16c0.05,0.07,0.11,0.14,0.17,0.21
		c0.07,0.08,0.12,0.17,0.19,0.25C287.27,199.21,287.34,199.28,287.4,199.35z"/>
	<path class="st25" d="M237.59,124.12c-0.19-0.24-0.39-0.47-0.59-0.7c-0.02-0.02-0.04-0.05-0.07-0.07
		c-4.1-4.51-10.52-6.09-16.26-7.56c-3.16-0.81-6.1-1.25-8.97-1.16c-0.01,0-0.01,0-0.02,0c-0.77-0.09-1.9-0.1-2.67,0.01
		c-0.65,0.09-1.44,0.27-2.12,0.52c-0.35,0.1-0.7,0.18-1.04,0.3c-0.67,0.12-1.28,0.29-1.85,0.53c-0.38,0.12-0.75,0.29-1.12,0.47
		c-1.32,0.48-2.57,1.12-3.76,1.87c-0.86,0.46-1.69,0.96-2.5,1.49c-6.99,4.24-11.61,11.74-14.14,19.51c-0.1,0.31-0.18,0.62-0.26,0.93
		c-0.01,0.02-0.02,0.04-0.02,0.07c-0.38,1.2-0.54,2.47-0.49,3.72c0,0.19-0.03,0.38-0.02,0.58c0.21,6.84,5.43,12.22,11.66,12.03
		c5.2-0.16,9.44-4.17,10.58-9.46c0.23-0.51,0.44-1.03,0.59-1.57c3.56-5.86,9.89-8.09,16.61-5.73c0.34,0.24,0.72,0.41,1.1,0.56
		c1.08,0.86,2.25,1.53,3.48,1.99c3.08,1.25,6.72,1.1,9.58-0.65c0.14-0.08,0.28-0.18,0.43-0.27c0.13-0.09,0.28-0.16,0.41-0.26
		c0.04-0.03,0.06-0.06,0.1-0.09c0.05-0.04,0.11-0.07,0.16-0.11c4.75-3.65,5.49-10.7,1.83-16.06c-0.03-0.05-0.06-0.11-0.1-0.16
		c-0.05-0.07-0.11-0.14-0.16-0.21c-0.06-0.09-0.12-0.17-0.18-0.26C237.72,124.27,237.65,124.2,237.59,124.12z"/>
	<path class="st25" d="M375.11,67.49c-0.19-0.24-0.39-0.47-0.59-0.7c-0.02-0.02-0.04-0.05-0.07-0.07
		c-4.1-4.51-10.52-6.09-16.26-7.56c-3.16-0.81-6.1-1.25-8.97-1.16c-0.01,0-0.01,0-0.02,0c-0.77-0.09-1.9-0.1-2.67,0.01
		c-0.65,0.09-1.44,0.27-2.12,0.52c-0.35,0.1-0.7,0.18-1.04,0.3c-0.67,0.12-1.28,0.29-1.85,0.53c-0.38,0.12-0.75,0.29-1.12,0.47
		c-1.32,0.48-2.57,1.12-3.76,1.87c-0.86,0.46-1.69,0.96-2.5,1.49c-6.99,4.24-11.61,11.74-14.14,19.51c-0.1,0.31-0.18,0.62-0.26,0.93
		c-0.01,0.02-0.02,0.04-0.02,0.07c-0.38,1.2-0.54,2.47-0.49,3.72c0,0.19-0.03,0.38-0.02,0.58c0.21,6.84,5.43,12.22,11.66,12.03
		c5.2-0.16,9.44-4.17,10.58-9.46c0.23-0.51,0.44-1.03,0.59-1.57c3.56-5.86,9.89-8.09,16.61-5.73c0.34,0.24,0.72,0.41,1.1,0.56
		c1.08,0.86,2.25,1.53,3.48,1.99c3.08,1.25,6.72,1.1,9.58-0.65c0.14-0.08,0.28-0.18,0.43-0.27c0.13-0.09,0.28-0.16,0.41-0.26
		c0.04-0.03,0.06-0.06,0.1-0.09c0.05-0.04,0.11-0.07,0.16-0.11c4.75-3.65,5.49-10.7,1.83-16.06c-0.03-0.05-0.06-0.11-0.1-0.16
		c-0.05-0.07-0.11-0.14-0.16-0.21c-0.06-0.09-0.12-0.17-0.18-0.26C375.24,67.64,375.17,67.57,375.11,67.49z"/>
	<path class="st25" d="M68.38,233.47c-0.26-0.17-0.51-0.33-0.78-0.48c-0.03-0.02-0.06-0.03-0.09-0.05
		c-5.3-3.02-11.89-2.53-17.8-2.15c-3.26,0.21-6.19,0.71-8.89,1.68c-0.01,0-0.01,0-0.02,0c-0.76,0.15-1.84,0.49-2.53,0.84
		c-0.59,0.29-1.28,0.7-1.85,1.15c-0.3,0.2-0.61,0.39-0.9,0.6c-0.6,0.32-1.13,0.67-1.6,1.07c-0.33,0.23-0.62,0.51-0.92,0.79
		c-1.1,0.87-2.1,1.86-3,2.95c-0.68,0.7-1.31,1.44-1.92,2.19c-5.33,6.2-7.4,14.76-7.39,22.93c0,0.32,0.02,0.64,0.05,0.96
		c0,0.02,0,0.05,0,0.07c0.01,1.26,0.25,2.51,0.69,3.69c0.06,0.19,0.09,0.37,0.16,0.56c2.32,6.43,8.95,9.93,14.81,7.82
		c4.89-1.77,7.68-6.89,7.12-12.28c0.06-0.56,0.1-1.11,0.07-1.68c1.57-6.67,6.9-10.76,14.01-10.6c0.4,0.12,0.81,0.16,1.22,0.19
		c1.29,0.48,2.62,0.76,3.93,0.81c3.31,0.24,6.72-1.04,8.9-3.59c0.11-0.12,0.22-0.26,0.32-0.39c0.1-0.13,0.22-0.24,0.31-0.38
		c0.03-0.04,0.04-0.08,0.07-0.12c0.04-0.05,0.08-0.1,0.12-0.16c3.38-4.94,1.9-11.88-3.24-15.84c-0.05-0.04-0.09-0.08-0.14-0.12
		c-0.07-0.05-0.15-0.1-0.22-0.15c-0.09-0.06-0.16-0.13-0.25-0.19C68.55,233.56,68.46,233.52,68.38,233.47z"/>
	<path class="st25" d="M933.28,105.78c0-0.31,0-0.61-0.02-0.91c0-0.03,0-0.07-0.01-0.1c-0.34-6.09-4.33-11.36-7.86-16.12
		c-1.95-2.62-3.95-4.81-6.23-6.55c-0.01-0.01-0.01-0.01-0.01-0.02c-0.54-0.56-1.41-1.28-2.08-1.68c-0.56-0.34-1.28-0.7-1.97-0.94
		c-0.33-0.14-0.66-0.3-0.99-0.42c-0.6-0.33-1.18-0.59-1.77-0.76c-0.37-0.15-0.76-0.25-1.16-0.34c-1.33-0.45-2.7-0.75-4.1-0.92
		c-0.95-0.19-1.92-0.32-2.88-0.42c-8.1-1.11-16.41,1.79-23.27,6.24c-0.27,0.18-0.53,0.36-0.78,0.56c-0.02,0.01-0.04,0.02-0.06,0.04
		c-1.05,0.69-1.97,1.58-2.73,2.58c-0.12,0.15-0.26,0.28-0.38,0.43c-4.14,5.44-3.49,12.91,1.47,16.68c4.14,3.15,9.95,2.71,14.18-0.68
		c0.5-0.25,0.99-0.52,1.45-0.85c6.46-2.3,12.78-0.04,16.51,6.02c0.12,0.4,0.3,0.77,0.5,1.13c0.3,1.34,0.79,2.61,1.45,3.74
		c1.6,2.91,4.52,5.08,7.85,5.53c0.16,0.03,0.33,0.04,0.5,0.06c0.16,0.01,0.32,0.05,0.49,0.06c0.05,0,0.09-0.01,0.14-0.01
		c0.07,0,0.13,0.01,0.2,0.02c5.99,0.16,11.01-4.85,11.55-11.31c0.01-0.06,0.02-0.12,0.03-0.18c0.01-0.09,0-0.18,0.01-0.27
		c0.01-0.11,0.02-0.21,0.02-0.32C933.29,105.98,933.28,105.88,933.28,105.78z"/>
	
		<ellipse transform="matrix(0.2786 -0.9604 0.9604 0.2786 482.8919 960.5541)" class="st26" cx="880.83" cy="158.84" rx="19.81" ry="18.85"/>
	<path class="st15" d="M340.68,379.03c-1.23,2.7-2.47,5.48-2.64,8.44c-0.04,0.62-0.02,1.25,0.16,1.84c0.24,0.78,0.74,1.45,1.27,2.07
		c1.21,1.42,2.6,2.72,3.55,4.33c0.49,0.83,0.91,1.79,1.75,2.27c0.77,0.44,1.71,0.37,2.59,0.3"/>
</g>
<g id="Layer_2">
	
		<rect x="410.94" y="382.82" transform="matrix(0.9603 -0.279 0.279 0.9603 -91.8342 130.1509)" class="st0" width="0.84" height="9.8"/>
	<line class="st27" x1="409.54" y1="383.27" x2="412.48" y2="392.62"/>
</g>
</svg>
