<?xml version="1.0" encoding="utf-8"?>
<!-- Generator: Adobe Illustrator 23.0.2, SVG Export Plug-In . SVG Version: 6.00 Build 0)  -->
<svg version="1.1" xmlns="http://www.w3.org/2000/svg" xmlns:xlink="http://www.w3.org/1999/xlink" x="0px" y="0px"
	 viewBox="0 0 530.16 226.32" style="enable-background:new 0 0 530.16 226.32;" xml:space="preserve">
<style type="text/css">
	.st0{fill:#CCCCFF;}
	.st1{fill:#FF00C9;stroke:#CCCCFF;stroke-width:2.26;stroke-miterlimit:10;}
	.st2{fill:#FFFFFF;}
	.st3{fill:none;stroke:#CCCCFF;stroke-miterlimit:10;}
</style>
<g id="vectorize_logo">
	<path class="st0" d="M232.67,136.81l-2.88,0.58c-13.32,2.71-26.31-5.89-29.02-19.21L182.87,30.1
		c-2.71-13.32,5.89-26.31,19.21-29.02l2.88-0.58c13.32-2.71,26.31,5.89,29.02,19.21l17.91,88.09
		C254.59,121.11,245.99,134.1,232.67,136.81z"/>
	<path class="st0" d="M151.34,152.11l-2.88,0.58c-13.32,2.71-26.31-5.89-29.02-19.21l-17.91-88.09
		c-2.71-13.32,5.89-26.31,19.21-29.02l2.88-0.58c13.32-2.71,26.31,5.89,29.02,19.21l17.91,88.09
		C173.26,136.41,164.66,149.4,151.34,152.11z"/>
	<path class="st0" d="M165.79,95.83l-2.95-1.71c-10.63-6.14-14.27-19.73-8.13-30.35l28.96-50.17c6.14-10.63,19.73-14.27,30.35-8.13
		l2.95,1.71c10.63,6.14,14.27,19.73,8.13,30.35l-28.96,50.17C190.01,98.32,176.42,101.96,165.79,95.83z"/>
	<path class="st0" d="M196.79,88.41l-2.14,2.65c-7.71,9.55-21.7,11.04-31.25,3.33L118.33,58c-9.55-7.71-11.04-21.7-3.33-31.25
		l2.14-2.65c7.71-9.55,21.7-11.04,31.25-3.33l45.07,36.39C203.01,64.87,204.5,78.86,196.79,88.41z"/>
	<ellipse class="st0" cx="129.7" cy="37.2" rx="26.19" ry="22.4"/>
	<path class="st0" d="M86.9,179.36l-2.5,1.53c-11.59,7.1-26.74,3.45-33.83-8.14L3.62,96.09c-7.1-11.59-3.45-26.74,8.14-33.83
		l2.5-1.53c11.59-7.1,26.74-3.45,33.83,8.14l46.94,76.66C102.13,157.12,98.49,172.26,86.9,179.36z"/>
	<path class="st0" d="M515.93,87.05l-1.54-2.5c-7.14-11.56-22.3-15.15-33.86-8.01l-81.48,50.32c-11.56,7.14-15.15,22.3-8.01,33.86
		l1.54,2.5c7.14,11.56,22.3,15.15,33.86,8.01l25.97-16.04c0.09-0.06,0.18-0.11,0.27-0.17l28.53-17.62c-1.87-0.42-3.59-1.3-4.96-2.75
		c-1.35-1.08-2.38-2.48-2.85-4.46c-0.19-0.81-0.19-1.55-0.05-2.22c-1.26-1.27-1.99-3.14-1.29-4.8c2.53-6.06,8.62-7.36,14.61-7.36
		c1.26,0,2.27,0.39,3.04,1.01c2.14,0.29,3.56,1.9,4.1,3.89c1.16,2.42,2.23,4.71,2.51,7.35l11.6-7.16
		C519.48,113.78,523.07,98.62,515.93,87.05z"/>
	<path class="st0" d="M508.46,79.63l-2.89-0.53c-13.37-2.43-26.18,6.44-28.61,19.81l-4.14,22.78c2.85-4.79,8.39-5.88,13.86-5.88
		c1.26,0,2.27,0.39,3.04,1.01c2.14,0.29,3.56,1.9,4.1,3.89c1.42,2.98,2.74,5.75,2.58,9.24c-0.18,3.76-1.96,8.08-6.08,8.73
		c-2.28,0.36-5.13-0.27-7.6-1.04c-2.43-0.25-4.73-1.17-6.45-3c-1.35-1.08-2.38-2.48-2.85-4.46c-0.19-0.8-0.19-1.55-0.05-2.22
		c-0.57-0.58-1.04-1.28-1.31-2.04l-12.89,70.85c-2.43,13.37,6.44,26.18,19.81,28.61l2.89,0.53c13.37,2.43,26.18-6.44,28.61-19.81
		l17.8-97.87C530.7,94.87,521.84,82.06,508.46,79.63z"/>
	<path class="st0" d="M515.07,78.33c-13.77-9.66-32.1-7.27-40.94,5.33c-7.25,10.33-5.83,24.28,2.47,34.3
		c2.87-1.67,6.49-2.15,10.08-2.14c1.26,0,2.27,0.39,3.04,1.01c2.14,0.29,3.56,1.9,4.1,3.89c1.34,2.8,2.57,5.42,2.58,8.62
		c10.64,1.81,21.42-1.9,27.59-10.7C532.83,106.04,528.84,87.99,515.07,78.33z"/>
	<path class="st0" d="M463.76,145.43c-5.74,0-10.39,4.13-10.46,9.25c0.06-0.04,0.11-0.08,0.17-0.12c0.55-0.36,1.25-0.56,1.96-0.63
		c0.17-0.05,0.34-0.12,0.52-0.15c1.15-0.24,2.15-0.25,3.25-0.07c1.67,0.12,3.23,0.81,4.38,2.04c1.26,1.35,1.73,3.05,1.79,4.86
		c0.02,0.7-0.07,1.39-0.09,2.09c-0.01,0.38-0.06,0.75-0.14,1.1c-0.01,0.09-0.02,0.19-0.04,0.28c5.15-0.59,9.14-4.51,9.14-9.27
		C474.23,149.62,469.54,145.43,463.76,145.43z"/>
	
		<rect x="470.87" y="116.46" transform="matrix(0.9827 0.1853 -0.1853 0.9827 31.0745 -85.4333)" class="st0" width="3.22" height="14.06"/>
	
		<rect x="473.51" y="111.68" transform="matrix(0.7274 0.6862 -0.6862 0.7274 210.9756 -293.677)" class="st0" width="3.22" height="14.06"/>
	
		<rect x="489.73" y="129.59" transform="matrix(0.7274 0.6862 -0.6862 0.7274 227.8736 -300.3844)" class="st0" width="4.58" height="14.06"/>
	
		<rect x="483.31" y="131.72" transform="matrix(0.1162 0.9932 -0.9932 0.1162 567.59 -359.0616)" class="st0" width="4.51" height="15.38"/>
	
		<rect x="494.08" y="122.35" transform="matrix(0.9827 0.1853 -0.1853 0.9827 32.7032 -89.7411)" class="st0" width="4.51" height="15.38"/>
	
		<rect x="494.08" y="116.65" transform="matrix(0.9739 -0.2268 0.2268 0.9739 -15.2672 115.8006)" class="st0" width="4.51" height="15.38"/>
	
		<rect x="491.45" y="109.39" transform="matrix(0.5873 -0.8094 0.8094 0.5873 108.4688 448.1749)" class="st0" width="4.51" height="16.67"/>
	
		<rect x="460.02" y="128.43" transform="matrix(0.866 -0.5 0.5 0.866 -5.6575 252.4182)" class="st0" width="16.34" height="16.67"/>
	<path class="st0" d="M397.96,46.23c-2.6-6.21-6.88-11.34-11.53-16.12c-0.18-0.29-0.38-0.58-0.63-0.86
		c-9.01-9.92-23.56-20.16-37.87-21.62c-1.35-0.26-2.73-0.36-4.13-0.38c-0.22-0.04-0.44-0.09-0.66-0.12
		c-0.77-0.12-1.57-0.19-2.33-0.06c-0.14-0.01-0.27-0.03-0.41-0.04c-2.62-0.19-5.27-0.05-7.89,0.07c-3.77,0.18-7.47,0.62-11.11,1.48
		c-0.04,0.01-0.08,0-0.12,0.01c-10.82,1.76-19.44,6.73-27.9,13.37c-0.87,0.64-1.71,1.3-2.53,1.99c-3.94,2.74-7.27,6.23-9.82,10.3
		c-2.44,2.74-4.36,6.19-5.85,9.39c-1.41,2.24-2.45,4.79-3.41,7.07c-1.22,2.92-2.11,5.9-2.62,8.95c-2.01,8.04-2.67,17.2-1.63,25.64
		c0.03,0.41,0.09,0.83,0.16,1.24c0.03,0.18,0.07,0.36,0.1,0.54c-0.05,0.92,0.02,1.83,0.27,2.73c-0.04,0.71,0.08,1.41,0.29,2.08
		c0.02,1.72,0.54,3.39,1.22,5c0.04,0.16,0.08,0.34,0.12,0.5c0.01,0.05,0.04,0.1,0.05,0.16c0.02,0.36,0.07,0.71,0.19,1.05
		c0.22,0.62,0.44,1.24,0.66,1.87c0.05,0.13,0.11,0.25,0.16,0.37c0.96,4.42,3.91,8.83,6.28,12.56c0.8,1.26,1.66,2.49,2.54,3.69
		c0.12,0.27,0.26,0.55,0.43,0.83c4.52,7.02,11.2,13.7,18.88,18c0.34,0.34,0.75,0.64,1.25,0.9c11.01,5.77,22.07,8.3,34.48,8.81
		c0.33,0.01,0.64-0.01,0.93-0.05c0.06,0,0.11,0.02,0.17,0.02c4.1,0.04,8.17-0.33,12.17-1.09c1.66-0.29,3.31-0.66,4.95-1.06
		c0.63-0.14,1.26-0.29,1.89-0.44c2.62-0.56,5.2-1.28,7.72-2.2c0.06-0.02,0.11-0.03,0.17-0.05c0.1-0.03,0.19-0.07,0.28-0.11
		c1.92-0.72,3.8-1.55,5.64-2.54c8.06-3.39,13.75-11.63,13.75-21.25c0-12.65-9.83-22.91-21.96-22.91c-2.3,0-4.51,0.38-6.6,1.07
		c-0.51,0.11-1.03,0.24-1.53,0.4c-3.01,0.94-5.71,2.68-8.75,3.52c-3.87,1.07-7.97,0.8-11.87,0.02c-1.21-0.24-3.27-0.69-5.07-1.17
		c-0.06-0.02-0.12-0.05-0.18-0.08c-9.38-4.65-14.65-13.33-14.4-23.74c0.48-2.82,1.6-5.44,3.03-7.91c0.85-1.46,1.94-2.74,3.03-4.03
		c0.44-0.3,0.83-0.67,1.17-1.11c0.44-0.47,0.95-0.87,1.43-1.31c2.78-1.41,5.17-2.79,8.45-3.23c2-0.27,4.04-0.41,6.08-0.42
		c3.39,0.39,6.57,1.78,9.82,2.87c0.18,0.11,0.38,0.21,0.58,0.3c-0.02-0.01,0.01,0,0.05,0.02c0.15,0.07,0.41,0.19,0.48,0.22
		c0.16,0.08,0.33,0.14,0.49,0.22c1.01,0.65,2.07,1.25,3.09,1.85c0.02,0.01,0.03,0.03,0.05,0.04c1.48,0.96,2.6,2.48,3.73,3.81
		c0.03,0.04,0.07,0.08,0.1,0.12c0.94,1.41,1.88,2.84,2.88,4.22c0.1,0.21,0.21,0.41,0.34,0.62c0.27,0.43,0.55,0.86,0.84,1.29
		c1.59,2.7,3.35,5.19,5.82,7.02c1.88,1.63,4.01,2.89,6.5,3.49c2.35,0.9,4.88,1.39,7.51,1.39c11.08,0,20.28-8.61,22.17-19.94
		c0.23-0.58,0.38-1.13,0.48-1.85c0.06-0.44,0.07-0.8,0.07-1.16C401.15,55.84,399.7,50.37,397.96,46.23z"/>
	<line class="st1" x1="392.65" y1="41.14" x2="397.36" y2="50.91"/>
</g>
<g id="white_shiny_layer">
	<path class="st2" d="M364.79,31.72c0-0.17-0.01-0.34-0.02-0.5c0-0.02,0-0.04,0-0.05c-0.28-3.35-2.55-6.19-4.57-8.76
		c-1.11-1.42-2.25-2.59-3.53-3.52c0,0,0-0.01-0.01-0.01c-0.31-0.3-0.79-0.68-1.17-0.89c-0.32-0.18-0.72-0.37-1.1-0.49
		c-0.18-0.07-0.37-0.15-0.55-0.22c-0.33-0.17-0.66-0.31-0.98-0.39c-0.21-0.08-0.42-0.12-0.64-0.17c-0.74-0.23-1.5-0.37-2.27-0.45
		c-0.53-0.09-1.06-0.15-1.59-0.19c-4.48-0.49-9.01,1.23-12.73,3.78c-0.15,0.1-0.29,0.21-0.42,0.32c-0.01,0.01-0.02,0.01-0.03,0.02
		c-0.57,0.4-1.06,0.9-1.47,1.46c-0.07,0.08-0.14,0.16-0.2,0.25c-2.2,3.06-1.73,7.16,1.05,9.17c2.32,1.67,5.52,1.35,7.8-0.58
		c0.27-0.14,0.54-0.3,0.79-0.49c3.52-1.36,7.04-0.21,9.18,3.07c0.07,0.22,0.18,0.42,0.29,0.61c0.18,0.74,0.47,1.43,0.85,2.04
		c0.92,1.58,2.57,2.73,4.4,2.93c0.09,0.01,0.18,0.02,0.28,0.03c0.09,0,0.18,0.03,0.27,0.03c0.03,0,0.05-0.01,0.08-0.01
		c0.04,0,0.07,0.01,0.11,0.01c3.3,0,5.99-2.83,6.19-6.4c0-0.03,0.01-0.07,0.01-0.1c0-0.05,0-0.1,0-0.15c0-0.06,0.01-0.12,0.01-0.17
		C364.8,31.83,364.79,31.77,364.79,31.72z"/>
	<path class="st2" d="M159.82,78.83c0.08,0.15,0.16,0.29,0.25,0.44c0.01,0.02,0.02,0.03,0.03,0.05c1.77,2.86,5.09,4.35,8.06,5.72
		c1.63,0.76,3.18,1.29,4.75,1.52c0,0,0.01,0,0.01,0c0.41,0.13,1.02,0.25,1.45,0.26c0.36,0.01,0.8,0,1.2-0.07
		c0.2-0.02,0.4-0.03,0.59-0.06c0.38,0,0.72-0.03,1.05-0.1c0.22-0.03,0.43-0.08,0.65-0.14c0.76-0.13,1.5-0.35,2.23-0.64
		c0.51-0.16,1.01-0.35,1.51-0.56c4.21-1.6,7.46-5.2,9.61-9.16c0.08-0.16,0.16-0.32,0.23-0.48c0.01-0.01,0.01-0.02,0.02-0.03
		c0.32-0.61,0.54-1.28,0.64-1.97c0.02-0.11,0.05-0.2,0.07-0.31c0.57-3.73-1.72-7.17-5.11-7.68c-2.83-0.43-5.53,1.31-6.68,4.07
		c-0.18,0.25-0.34,0.51-0.48,0.79c-2.52,2.82-6.17,3.39-9.57,1.45c-0.16-0.16-0.35-0.29-0.54-0.41c-0.5-0.57-1.07-1.05-1.69-1.43
		c-1.54-0.99-3.53-1.27-5.26-0.6c-0.09,0.03-0.17,0.07-0.26,0.1c-0.08,0.04-0.17,0.06-0.25,0.1c-0.02,0.01-0.04,0.03-0.06,0.04
		c-0.03,0.02-0.07,0.03-0.1,0.04c-2.94,1.5-4.05,5.25-2.6,8.52c0.01,0.03,0.02,0.06,0.04,0.1c0.02,0.05,0.05,0.09,0.07,0.13
		c0.03,0.05,0.05,0.11,0.07,0.16C159.77,78.74,159.8,78.78,159.82,78.83z"/>
	<path class="st2" d="M141.84,32.48c-0.07-0.15-0.15-0.3-0.24-0.45c-0.01-0.02-0.02-0.03-0.03-0.05c-1.68-2.91-4.95-4.51-7.87-5.98
		c-1.61-0.81-3.14-1.39-4.69-1.68c0,0-0.01,0-0.01,0c-0.4-0.14-1.01-0.28-1.44-0.31c-0.36-0.03-0.8-0.02-1.2,0.03
		c-0.2,0.01-0.4,0.02-0.59,0.04c-0.38-0.01-0.73,0-1.06,0.07c-0.22,0.02-0.44,0.07-0.66,0.12c-0.77,0.11-1.52,0.3-2.25,0.57
		c-0.52,0.14-1.02,0.32-1.52,0.51c-4.26,1.46-7.63,4.95-9.9,8.84c-0.09,0.15-0.17,0.31-0.25,0.47c-0.01,0.01-0.01,0.02-0.02,0.03
		c-0.34,0.6-0.58,1.27-0.7,1.95c-0.02,0.1-0.06,0.2-0.08,0.31c-0.69,3.71,1.49,7.22,4.86,7.84c2.82,0.52,5.57-1.13,6.81-3.85
		c0.18-0.25,0.36-0.5,0.5-0.78c2.61-2.74,6.28-3.19,9.62-1.14c0.16,0.17,0.34,0.3,0.53,0.43c0.48,0.59,1.03,1.09,1.64,1.48
		c1.51,1.04,3.49,1.38,5.23,0.77c0.09-0.03,0.17-0.06,0.26-0.09c0.08-0.03,0.17-0.05,0.25-0.09c0.02-0.01,0.04-0.03,0.07-0.04
		c0.03-0.02,0.07-0.03,0.1-0.04c2.99-1.41,4.21-5.12,2.87-8.43c-0.01-0.03-0.02-0.06-0.03-0.1c-0.02-0.05-0.04-0.09-0.06-0.13
		c-0.02-0.05-0.04-0.11-0.07-0.16C141.9,32.57,141.87,32.52,141.84,32.48z"/>
	<path class="st2" d="M222.54,18.14c-0.07-0.15-0.15-0.3-0.24-0.45c-0.01-0.02-0.02-0.03-0.03-0.05c-1.68-2.91-4.95-4.51-7.87-5.98
		c-1.61-0.81-3.14-1.39-4.69-1.68c0,0-0.01,0-0.01,0c-0.4-0.14-1.01-0.28-1.44-0.31c-0.36-0.03-0.8-0.02-1.2,0.03
		c-0.2,0.01-0.4,0.02-0.59,0.04c-0.38-0.01-0.73,0-1.06,0.07c-0.22,0.02-0.44,0.07-0.66,0.12c-0.77,0.11-1.52,0.3-2.25,0.57
		c-0.52,0.14-1.02,0.32-1.52,0.51c-4.26,1.46-7.63,4.95-9.9,8.84c-0.09,0.15-0.17,0.31-0.25,0.47c-0.01,0.01-0.01,0.02-0.02,0.03
		c-0.34,0.6-0.58,1.27-0.7,1.95c-0.02,0.1-0.06,0.2-0.08,0.31c-0.69,3.71,1.49,7.22,4.86,7.84c2.82,0.52,5.57-1.13,6.81-3.85
		c0.18-0.25,0.36-0.5,0.5-0.78c2.61-2.74,6.28-3.19,9.62-1.14c0.16,0.17,0.34,0.3,0.53,0.43c0.48,0.59,1.03,1.09,1.64,1.48
		c1.51,1.04,3.49,1.38,5.23,0.77c0.09-0.03,0.17-0.06,0.26-0.09c0.08-0.03,0.17-0.05,0.25-0.09c0.02-0.01,0.04-0.03,0.07-0.04
		c0.03-0.02,0.07-0.03,0.1-0.04c2.99-1.41,4.21-5.12,2.87-8.43c-0.01-0.03-0.02-0.06-0.03-0.1c-0.02-0.05-0.04-0.09-0.06-0.13
		c-0.02-0.05-0.04-0.11-0.07-0.16C222.59,18.24,222.56,18.19,222.54,18.14z"/>
	<path class="st2" d="M37.9,71.46c-0.12-0.12-0.24-0.24-0.36-0.35c-0.01-0.01-0.03-0.02-0.04-0.04c-2.5-2.25-6.1-2.76-9.33-3.25
		c-1.78-0.27-3.41-0.35-4.98-0.14c0,0-0.01,0-0.01,0c-0.43-0.01-1.05,0.05-1.46,0.15c-0.35,0.09-0.77,0.23-1.13,0.4
		c-0.19,0.07-0.37,0.14-0.55,0.22c-0.36,0.1-0.69,0.23-0.98,0.39c-0.2,0.09-0.39,0.2-0.59,0.32c-0.7,0.34-1.35,0.76-1.96,1.24
		c-0.45,0.3-0.87,0.62-1.29,0.96c-3.6,2.71-5.72,7.08-6.67,11.48c-0.04,0.17-0.07,0.35-0.09,0.52c0,0.01-0.01,0.03-0.01,0.04
		c-0.14,0.68-0.16,1.38-0.06,2.07c0.01,0.11,0,0.21,0.02,0.32c0.49,3.74,3.65,6.4,7.05,5.95c2.84-0.38,4.94-2.81,5.28-5.77
		c0.1-0.29,0.18-0.59,0.24-0.89c1.63-3.41,4.98-4.98,8.79-4.06c0.2,0.11,0.42,0.18,0.64,0.25c0.64,0.41,1.32,0.71,2.02,0.9
		c1.76,0.52,3.74,0.23,5.22-0.89c0.07-0.05,0.15-0.11,0.22-0.17c0.07-0.06,0.15-0.1,0.21-0.17c0.02-0.02,0.03-0.04,0.05-0.06
		c0.03-0.02,0.06-0.05,0.08-0.07c2.4-2.26,2.42-6.17,0.12-8.91c-0.02-0.03-0.04-0.06-0.06-0.08c-0.03-0.04-0.07-0.07-0.1-0.11
		c-0.04-0.04-0.07-0.09-0.11-0.13C37.98,71.54,37.93,71.5,37.9,71.46z"/>
	<path class="st2" d="M518.54,104.34c0.04-0.16,0.07-0.33,0.1-0.49c0-0.02,0.01-0.04,0.01-0.05c0.53-3.32-0.99-6.62-2.34-9.6
		c-0.74-1.64-1.56-3.06-2.59-4.26c0,0,0-0.01-0.01-0.01c-0.23-0.36-0.61-0.85-0.92-1.15c-0.26-0.25-0.61-0.53-0.95-0.74
		c-0.16-0.12-0.32-0.24-0.48-0.35c-0.28-0.25-0.56-0.46-0.86-0.62c-0.18-0.12-0.38-0.22-0.59-0.32c-0.66-0.4-1.37-0.72-2.1-0.98
		c-0.49-0.21-1-0.4-1.5-0.56c-4.23-1.55-9.05-0.96-13.26,0.62c-0.17,0.06-0.33,0.13-0.49,0.21c-0.01,0-0.02,0.01-0.04,0.01
		c-0.65,0.25-1.25,0.62-1.77,1.07c-0.08,0.07-0.17,0.12-0.26,0.19c-2.87,2.44-3.39,6.54-1.17,9.15c1.86,2.18,5.04,2.63,7.71,1.3
		c0.3-0.08,0.59-0.17,0.88-0.29c3.75-0.48,6.89,1.48,8.18,5.18c0.02,0.23,0.07,0.45,0.14,0.67c0,0.76,0.12,1.5,0.34,2.18
		c0.52,1.76,1.84,3.27,3.58,3.9c0.09,0.03,0.17,0.06,0.26,0.09c0.09,0.03,0.17,0.07,0.25,0.09c0.02,0.01,0.05,0.01,0.07,0.01
		c0.04,0.01,0.07,0.02,0.11,0.03c3.21,0.79,6.5-1.31,7.54-4.73c0.01-0.03,0.03-0.06,0.04-0.1c0.01-0.05,0.02-0.1,0.04-0.14
		c0.02-0.06,0.04-0.11,0.05-0.17C518.53,104.45,518.53,104.4,518.54,104.34z"/>
</g>
<g id="hole_in_a">
	
		<ellipse transform="matrix(0.477 -0.8789 0.8789 0.477 141.7924 491.7621)" class="st3" cx="484.07" cy="126.75" rx="10.92" ry="10.39"/>
</g>
</svg>
