<?xml version="1.0" encoding="utf-8"?>
<!-- Generator: Adobe Illustrator 26.5.0, SVG Export Plug-In . SVG Version: 6.00 Build 0)  -->
<svg version="1.1" xmlns="http://www.w3.org/2000/svg" xmlns:xlink="http://www.w3.org/1999/xlink" x="0px" y="0px"
	 viewBox="0 0 277 209.5" style="enable-background:new 0 0 277 209.5;" xml:space="preserve">
<style type="text/css">
	.st0{fill:#020202;}
</style>
<g id="mixlcoud">
	<path d="M0,95.5h14v-15h14v-14h14v-13h14v-14h14v-15h75v15h14v14h14v28h14v14h14v14h14v36h-14v14h-14v15H28v-15H14v-14H0V95.5z
		 M14,145.5h14v14h159v-14h14v-36h-14v-14h-14v-14h-14v-28h-14v-14H70v14H56v13h14v14h14v15H70v-15H28v15H14V145.5z"/>
	<polygon points="220,93.5 220,107.5 234,107.5 234,151.5 220,151.5 220,165.5 234,165.5 234,151.5 248,151.5 248,107.5 234,107.5 
		234,93.5 	"/>
	<polygon points="249,88.5 249,102.5 263,102.5 263,156.5 249,156.5 249,170.5 235,170.5 235,184.5 249,184.5 249,170.5 263,170.5 
		263,156.5 277,156.5 277,102.5 263,102.5 263,98.5 263,88.5 249,88.5 249,74.5 235,74.5 235,88.5 	"/>
</g>
<g id="facebook">
	<g>
		<path d="M232,14.5v-14H46v14H32v182h14v13h100v-78h-29v-34h29v-39h12v-12h13v-12h44v35h-35v26h38v12h-13v12h-12v12h-12v78h51v-13
			h14v-182H232z"/>
	</g>
</g>
<g id="instagram">
	<g>
		<path d="M31,182.5V28.6h14V14.5h14v-14h159v14h14v14h14v154h-14v14h-14v13H59v-13H45v-14H31z M45,28.6v153.9h14v14h159v-14h14
			v-154h-14v-14H59v14L45,28.6z"/>
		<polygon points="103,85.5 90,85.5 90,133.5 103,133.5 103,147.5 117,147.5 117,161.5 165,161.5 165,147.5 179,147.5 179,133.5 
			193,133.5 193,85.5 179,85.5 179,71.5 165,71.5 165,57.5 117,57.5 117,71.5 103,71.5 103,85.5 117,85.5 117,71.5 165,71.5 
			165,85.5 179,85.5 179,133.5 165,133.5 165,147.5 117,147.5 117,133.5 103,133.5 		"/>
		<rect x="186" y="40.5" class="st0" width="22" height="22"/>
	</g>
</g>
</svg>
