<?xml version="1.0" encoding="utf-8"?>
<!-- Generator: Adobe Illustrator 26.5.0, SVG Export Plug-In . SVG Version: 6.00 Build 0)  -->
<svg version="1.1" xmlns="http://www.w3.org/2000/svg" xmlns:xlink="http://www.w3.org/1999/xlink" x="0px" y="0px"
	 viewBox="0 0 32 27" style="enable-background:new 0 0 32 27;" xml:space="preserve">
<style type="text/css">
	.st0{fill:#FFFFFF;}
	.st1{display:none;}
	.st2{display:inline;}
</style>
<g id="volume-off">
	<g id="volumeoff-white">
		<polygon class="st0" points="0,10 4,10 4,6 8,6 8,2 12,2 12,0 16,0 16,27 12,27 12,25 8,25 8,21 4,21 4,17 0,17 		"/>
		<polygon class="st0" points="18,7 18,9 20,9 20,11 22,11 22,13 24,13 24,15 22,15 22,17 20,17 20,19 18,19 18,21 20,21 20,19 
			22,19 22,17 24,17 24,15 26,15 26,17 28,17 28,19 30,19 30,21 32,21 32,19 30,19 30,17 28,17 28,15 26,15 26,13 28,13 28,11 
			30,11 30,9 32,9 32,7 30,7 30,9 28,9 28,11 26,11 26,13 24,13 24,11 22,11 22,9 20,9 20,7 		"/>
	</g>
	<g id="volumeoff-black" class="st1">
		<polygon class="st2" points="0,10 4,10 4,6 8,6 8,2 12,2 12,0 16,0 16,27 12,27 12,25 8,25 8,21 4,21 4,17 0,17 		"/>
		<polygon class="st2" points="18,7 18,9 20,9 20,11 22,11 22,13 24,13 24,15 22,15 22,17 20,17 20,19 18,19 18,21 20,21 20,19 
			22,19 22,17 24,17 24,15 26,15 26,17 28,17 28,19 30,19 30,21 32,21 32,19 30,19 30,17 28,17 28,15 26,15 26,13 28,13 28,11 
			30,11 30,9 32,9 32,7 30,7 30,9 28,9 28,11 26,11 26,13 24,13 24,11 22,11 22,9 20,9 20,7 		"/>
	</g>
</g>
<g id="volume-on">
	<g id="volumeon-white">
		<polygon class="st0" points="0,10 4,10 4,6 8,6 8,2 12,2 12,0 16,0 16,27 12,27 12,25 8,25 8,21 4,21 4,17 0,17 		"/>
		<rect x="18" y="10" class="st0" width="2" height="7"/>
		<rect x="22" y="6" class="st0" width="2" height="15"/>
		<rect x="27" y="2" class="st0" width="2" height="24"/>
	</g>
	<g id="volumeon-black" class="st1">
		<polygon class="st2" points="0,10 4,10 4,6 8,6 8,2 12,2 12,0 16,0 16,27 12,27 12,25 8,25 8,21 4,21 4,17 0,17 		"/>
		<rect x="18" y="10" class="st2" width="2" height="7"/>
		<rect x="22" y="6" class="st2" width="2" height="15"/>
		<rect x="27" y="2" class="st2" width="2" height="24"/>
	</g>
</g>
<g id="info">
	<polygon class="st0" points="10,27 22,27 22,23 26,23 26,19 30,19 30,8 26,8 26,4 22,4 22,0 10,0 10,4 6,4 6,8 2,8 2,19 6,19 6,23 
		10,23 10,19 6,19 6,8 10,8 10,4 22,4 22,8 26,8 26,19 22,19 22,23 10,23 	"/>
	<path class="st0" d="M18,6v4h-4V6H18z M14,21h4V11h-4V21z"/>
</g>
<g id="play">
	<polyline class="st0" points="27,11 27,10 25,10 25,9 23,9 23,8 20,8 20,7 18,7 18,6 15,6 15,5 13,5 13,4 10,4 10,3 8,3 8,2 5,2 
		5,1 3,1 3,0 0,0 0,27 3,27 3,26 5,26 5,25 8,25 8,24 10,24 10,23 13,23 13,22 15,22 15,21 18,21 18,20 20,20 20,19 23,19 23,18 
		25,18 25,17 27,17 27,16 29,16 29,15 31,15 31,14 32,14 32,13 31,13 31,12 29,12 29,11 	"/>
</g>
</svg>
