<?xml version="1.0" encoding="utf-8"?>
<!-- Generator: Adobe Illustrator 23.0.2, SVG Export Plug-In . SVG Version: 6.00 Build 0)  -->
<svg version="1.1" xmlns="http://www.w3.org/2000/svg" xmlns:xlink="http://www.w3.org/1999/xlink" x="0px" y="0px"
	 viewBox="0 0 277 209.5" style="enable-background:new 0 0 277 209.5;" xml:space="preserve">
<style type="text/css">
	.st0{display:none;}
</style>
<g id="instagram_xA0_Image_1_" class="st0">
	
		<image style="display:inline;overflow:visible;" width="554" height="419" id="instagram_xA0_Image" xlink:href="53716E64D1C0254.png"  transform="matrix(0.5 0 0 0.5 0 0)">
	</image>
</g>
<g id="Layer_2">
	<rect x="90.6" y="84.9" width="13.6" height="48.7"/>
	<rect x="180.6" y="84.9" width="13.6" height="48.7"/>
	<rect x="104.3" y="133.6" width="13.6" height="13.6"/>
	<rect x="117.9" y="147.2" width="49.1" height="13.6"/>
	<rect x="167" y="133.6" width="13.6" height="13.6"/>
	<rect x="104.3" y="71.2" width="13.6" height="13.6"/>
	<rect x="167" y="71.2" width="13.6" height="13.6"/>
	<rect x="117.9" y="57.6" width="49.1" height="13.6"/>
	<rect x="188.5" y="39.6" width="21.9" height="21.9"/>
	<rect x="219.6" y="13.6" width="13.6" height="13.6"/>
	<rect x="233.3" y="27.2" width="13.6" height="154.1"/>
	<rect x="219.6" y="181.3" width="13.6" height="13.6"/>
	<rect x="60.5" y="194.9" width="159.1" height="13.6"/>
	<rect x="46.9" y="181.3" width="13.6" height="13.6"/>
	<rect x="60.5" y="-0.1" width="159.1" height="13.6"/>
	<rect x="33.3" y="27.2" width="13.6" height="154.1"/>
	<rect x="46.9" y="13.6" width="13.6" height="13.6"/>
</g>
</svg>
