<?xml version="1.0" encoding="UTF-8"?>
<svg id="Layer_2" data-name="Layer 2" xmlns="http://www.w3.org/2000/svg" viewBox="0 0 277 160">
  <g id="mixlcoud">
    <path d="M0,71H14v-15h14v-14h14v-13h14V15h14V0h75V15h14v14h14v28h14v14h14v14h14v36h-14v14h-14v15H28v-15H14v-14H0v-50Zm14,50h14v14H187v-14h14v-36h-14v-14h-14v-14h-14V29h-14V15H70v14h-14v13h14v14h14v15h-14v-15H28v15H14v50Z"/>
    <polygon points="220 69 220 83 234 83 234 127 220 127 220 141 234 141 234 127 248 127 248 83 234 83 234 69 220 69"/>
    <polygon points="249 64 249 78 263 78 263 132 249 132 249 146 235 146 235 160 249 160 249 146 263 146 263 132 277 132 277 78 263 78 263 74 263 64 249 64 249 50 235 50 235 64 249 64"/>
  </g>
</svg>