<?xml version="1.0" encoding="utf-8"?>
<!-- Generator: Adobe Illustrator 23.0.2, SVG Export Plug-In . SVG Version: 6.00 Build 0)  -->
<svg version="1.1" id="mixcloud_xA0_Image_1_" xmlns="http://www.w3.org/2000/svg" xmlns:xlink="http://www.w3.org/1999/xlink"
	 x="0px" y="0px" viewBox="0 0 277 209.5" style="enable-background:new 0 0 277 209.5;" xml:space="preserve">
<rect x="200.6" y="116.4" width="13.9" height="34.6"/>
<rect x="233.6" y="113.5" width="13.9" height="43.5"/>
<rect x="263.1" y="108" width="13.9" height="55"/>
<rect y="101" width="13.9" height="50"/>
<rect x="158.9" y="59.7" width="13.9" height="27.5"/>
<rect x="145.1" y="45.2" width="13.9" height="14.5"/>
<rect x="172.8" y="87.3" width="13.9" height="14.5"/>
<rect x="186.7" y="101.8" width="13.9" height="14.5"/>
<rect x="186.7" y="151" width="13.9" height="14.5"/>
<rect x="27.8" y="165.6" width="158.9" height="14.5"/>
<rect x="13.9" y="151" width="13.9" height="14.5"/>
<rect x="13.9" y="86.5" width="13.9" height="14.5"/>
<rect x="27.8" y="71.9" width="42.2" height="14.5"/>
<rect x="69.9" y="86.5" width="13.9" height="14.5"/>
<rect x="41.9" y="59.6" width="13.9" height="14.5"/>
<rect x="55.8" y="45" width="13.9" height="14.5"/>
<rect x="69.7" y="30.5" width="75.4" height="14.5"/>
<rect x="219.7" y="157" width="13.9" height="14.5"/>
<rect x="219.7" y="98.9" width="13.9" height="14.5"/>
<rect x="249.2" y="93.4" width="13.9" height="14.5"/>
<rect x="235.4" y="78.9" width="13.9" height="14.5"/>
<rect x="249.2" y="162.9" width="13.9" height="14.5"/>
<rect x="235.4" y="177.5" width="13.9" height="14.5"/>
</svg>
