<?xml version="1.0" encoding="UTF-8"?>
<svg id="artboard_2" data-name="artboard 2" xmlns="http://www.w3.org/2000/svg" viewBox="0 0 287 291">
  <defs>
    <style>
      .cls-1 {
        fill: #fff;
      }
    </style>
  </defs>
  <g id="submission">
    <g>
      <polygon points="265.52 206.18 206.91 27.55 203.11 28.8 201.86 25 198.06 26.25 196.82 22.45 193.01 23.69 191.77 19.89 187.97 21.14 186.72 17.34 182.92 18.59 181.67 14.79 177.87 16.03 176.62 12.23 172.82 13.48 171.58 9.68 167.78 10.93 166.53 7.13 162.73 8.37 161.79 5.52 157.99 6.77 156.75 2.97 152.95 4.22 151.7 .42 22.48 42.82 94.5 262.3 265.52 206.18"/>
      <polygon class="cls-1" points="97.05 257.25 27.52 45.37 149.14 5.46 162.55 46.32 204.36 32.6 260.48 203.63 97.05 257.25"/>
      <polygon class="cls-1" points="155.44 11.82 159.24 10.57 160.18 13.42 163.98 12.17 165.22 15.97 169.02 14.73 170.27 18.53 174.07 17.28 175.32 21.08 179.12 19.83 180.37 23.63 184.17 22.39 185.41 26.19 189.21 24.94 190.46 28.74 194.26 27.49 195.51 31.3 165.1 41.27 155.44 11.82"/>
    </g>
    <g>
      <polygon points="128 267 140 267 140 279 137 279 137 287 131 287 131 291 145 291 145 279 148 279 148 267 208 267 208 275 204 275 204 287 199 287 199 291 212 291 212 275 216 275 216 267 228 267 228 119 224 119 224 110 220 110 220 102 216 102 216 95 213 95 213 91 208 91 208 87 200 87 200 82 192 82 192 87 180 87 180 95 176 95 176 91 172 91 172 86 168 86 168 82 161 82 161 78 153 78 153 82 144 82 144 86 140 86 140 91 136 91 136 107 113 107 113 111 109 111 109 114 104 114 104 119 100 119 100 135 105 135 105 142 108 142 108 151 112 151 112 159 116 159 116 163 98 163 98 167 92 167 92 171 85 171 85 178 80 178.01 80 190 83 190 83 196 88 196 88 203 96 203 96 207 104 207 104 211 116 211 116 215 124 215 124 219 128 219 128 267"/>
      <polygon class="cls-1" points="136 259 220 259 220 127 216 127 216 119 212 119 212 107 208 107 208 103 204 103 204 99 201 99 201 95 188 95 188 99 184 99 184 103 180 103 180 107 172 107 172 99 168 99 168 94 160 94 160 90 152 90 152 94 148 94 148 99 144 99 144 122 140 122 140 119 136 119 136 117 132 117 132 114 116 114 116 118 112 118 112 122 108 122 108 130 113 130 113 139 116 139 116 147 120 147 120 155 125 155 125 163 128 163 128 167 133 167 133 171 136 171 136 179 128 179 128 175 124 175 124 171 101 171 101 175 92 175 92 179 89 179 89 186 93 186 93 195 98 195 98 199 106 199 106 203 114 203 114 207 126 207 126 211 136 211 136 259"/>
      <polygon points="144 250 212 250 212 139 208 139 208 123 204 123 204 111 201 111 201 103 193 103 193.01 107 188 107 188 111 184 111.01 184 123 188 123 188 135 192 135 192 151 188 151 188 147 185 147 185 139 180 139 180 131 176 131 176 118 172 118 172 115 168 115 168 106 164 106 164 102 156 102 156 106 152 106 152 118 156 117.99 156 131 160 131 160 139 165 139 165 151 156 151 155.99 147 152 147 152 143 148 143 148 139.09 144 139.01 144 135 140 135.01 140 131 136 131 136 127 132 127 132 123 124 123.01 124 127 120 127 120 135 124 135 124 143 128 143 128 147 132 147 132 151 136 151 136 155 140 155 140 163 144 163 144 179 141 179.01 141.01 183 125 183 125 178 117 178 117 175 109 175 109 178 100 178 100 191 104 191 104 195 113 195 113 198 124 198 124 202 136 202 136 207 144 207 144 250"/>
    </g>
  </g>
</svg>