<svg xmlns="http://www.w3.org/2000/svg" id="artboard_2" data-name="artboard 2" viewBox="0 0 287 291">
  <defs>
    <style>
      .cls-1{fill:#fff}
    </style>
  </defs>
  <g id="submission">
    <path d="M282.4 174.4 179.8 16.8l-3.4 2.2-2.2-3.4-3.4 2.2-2.2-3.4-3.5 2.1-2.1-3.3-3.5 2.1-2.2-3.3-3.4 2.1-2.2-3.4-3.4 2.2-2.2-3.4-3.4 2.2-2.2-3.4-3.4 2.1-2.2-3.3-3.5 2.1-1.6-2.5-3.4 2.1-2.2-3.3-3.5 2.1-2.1-3.3L1.8 76.7l126.1 193.6 154.5-95.9z"/>
    <path d="M129.1 264.8 7.4 77.9 117.3 9.7l23.5 36.1 37.8-23.5 98.2 150.9-147.7 91.6z" class="cls-1"/>
    <path d="m125.1 14.3 3.4-2.1 1.7 2.5 3.4-2.1 2.2 3.3 3.4-2.1 2.2 3.3 3.5-2.1 2.1 3.4 3.5-2.2 2.2 3.4 3.4-2.2 2.2 3.4 3.4-2.1 2.2 3.3 3.4-2.1 2.2 3.3L142 40.3l-16.9-26z" class="cls-1"/>
    <path d="m199.2 264.5 10.3-6.4 6.6 10.1-2.6 1.6 4.4 6.7-5.1 3.2 2.2 3.3 12-7.5-6.6-10 2.6-1.6-6.6-10.1 51.5-32 4.3 6.7-3.4 2.1 6.6 10.1-4.3 2.6 2.2 3.4 11.1-7-8.7-13.3 3.4-2.2-4.4-6.7 10.3-6.4-81-123.9-3.4 2.2-5-7.6-3.4 2.2-4.4-6.7-3.4 2.1-3.8-5.8-2.6 1.6-2.2-3.4-4.3 2.7-2.2-3.4-6.8 4.3-2.8-4.2-6.8 4.3 2.7 4.2-10.3 6.4 4.4 6.7-3.4 2.1-2.2-3.3-3.5 2.1-2.7-4.2-3.4 2.2-2.2-3.4-6 3.8-2.2-3.4-6.9 4.3 2.2 3.3-7.7 4.8 2.2 3.4-3.4 2.1 2.7 4.2-3.4 2.1 8.7 13.4-19.7 12.3 2.2 3.4-3.4 2.1 1.6 2.5-4.3 2.7 2.8 4.2-3.5 2.1L103 169l4.3-2.7 3.8 5.9 2.6-1.6 4.9 7.5 3.4-2.1 4.4 6.7 3.4-2.2 2.2 3.4-15.4 9.6 2.2 3.4-5.2 3.2 2.2 3.3-6 3.8 3.9 5.8-4.3 2.7 6.5 10 2.6-1.6 3.3 5 4.3-2.6 3.8 5.8 6.9-4.2 2.2 3.3 6.8-4.3 2.2 3.4 10.3-6.4 2.2 3.3 6.9-4.3 2.1 3.4 3.5-2.1 26.2 40.1z"/>
    <path d="m201.7 253.6 72.1-44.9-72.3-110.5-3.4 2.1-4.4-6.7-3.4 2.2-6.6-10.1-3.4 2.2-2.2-3.4-3.4 2.2-2.2-3.4-2.6 1.6-2.2-3.3-11.1 6.9 2.1 3.4-3.4 2.1 2.2 3.3-3.4 2.2 2.2 3.3-6.9 4.3-4.4-6.7-3.4 2.1-2.7-4.1-6.9 4.2-2.2-3.3-6.9 4.3 2.2 3.3-3.4 2.1 2.7 4.2-3.4 2.2 12.6 19.2-3.4 2.2-1.7-2.6-3.4 2.2-1.1-1.7-3.4 2.1-1.7-2.5-13.7 8.6 2.2 3.3-3.4 2.2 2.2 3.3-3.5 2.2 4.4 6.6 4.3-2.6 4.9 7.5 2.6-1.6 4.4 6.7 3.4-2.1 4.4 6.7 4.3-2.7 4.4 6.7 2.5-1.6 2.2 3.3 4.3-2.6 2.2 3.3 2.6-1.6 4.3 6.7-6.8 4.3-2.2-3.4-3.4 2.2-2.2-3.4-19.8 12.3 2.2 3.4-7.7 4.8 2.2 3.3-2.6 1.6 3.9 5.9 3.4-2.2 4.9 7.6 4.3-2.7 2.2 3.3 6.9-4.2 2.2 3.3 6.8-4.3 2.2 3.4 10.3-6.4 2.2 3.3 8.6-5.3 26.2 40.2z" class="cls-1"/>
    <path d="m203.7 241.8 58.3-36.4-60.8-92.9-3.4 2.2-8.8-13.4-3.4 2.1-6.6-10-2.5 1.6-4.4-6.7-6.9 4.2 2.2 3.4-4.3 2.7 2.2 3.3-3.4 2.1 6.6 10.1 3.4-2.1 6.6 10 3.4-2.1 8.7 13.4-3.4 2.1-2.2-3.4-2.6 1.6-4.3-6.7-4.3 2.7-4.4-6.7-3.4 2.2-7.1-10.9-3.5 2.1-1.6-2.5-3.4 2.1-5-7.5-3.4 2.1-2.2-3.3-6.9 4.3 2.2 3.3-3.4 2.2 6.6 10 3.4-2.1 7.1 10.8 3.4-2.1 4.4 6.7 4.3-2.7 6.6 10.1-7.7 4.8-2.2-3.4-3.5 2.2-2.1-3.4-3.5 2.2-2.1-3.3-3.5 2.1-2.2-3.4-3.4 2.1-2.2-3.3-3.4 2.1-2.2-3.3-3.5 2.1-2.1-3.3-6.9 4.2 2.2 3.4-3.4 2.1 4.3 6.7 3.5-2.1 4.3 6.7 3.5-2.2 2.2 3.4 3.4-2.1 2.2 3.3 3.4-2.1 2.2 3.3 3.4-2.1 4.4 6.7 3.4-2.2 8.8 13.4-2.6 1.6 2.2 3.4-13.7 8.5-2.7-4.2-6.9 4.3-1.6-2.5-6.9 4.3 1.6 2.5-7.7 4.8 7.1 10.9 3.5-2.2 2.2 3.4 7.7-4.8 1.6 2.5 9.5-5.9 2.1 3.4 10.3-6.4 2.8 4.1 6.8-4.2 23.6 36z"/>
  </g>
</svg>
